SplineFontDB: 3.2
FontName: TimesNewRomanPSMT
FullName: Times New Roman
FamilyName: Times New Roman
Weight: Book
Copyright: Typeface (c) The Monotype Corporation plc. Data (c) The Monotype Corporation plc/Type Solutions Inc. 1990-1992. All Rights Reserved
Version: 2.95
ItalicAngle: 0
UnderlinePosition: -273
UnderlineWidth: 100
Ascent: 1638
Descent: 410
InvalidEm: 0
sfntRevision: 0x0002e667
LayerCount: 2
Layer: 0 1 "Back" 1
Layer: 1 1 "Fore" 0
XUID: [1021 507 1675590895 11378119]
StyleMap: 0x0040
FSType: 0
OS2Version: 1
OS2_WeightWidthSlopeOnly: 0
OS2_UseTypoMetrics: 0
CreationTime: 649948482
ModificationTime: 976023210
PfmFamily: 17
TTFWeight: 400
TTFWidth: 5
LineGap: 87
VLineGap: 0
Panose: 2 2 6 3 5 4 5 2 3 4
OS2TypoAscent: 1420
OS2TypoAOffset: 0
OS2TypoDescent: -442
OS2TypoDOffset: 0
OS2TypoLinegap: 307
OS2WinAscent: 1825
OS2WinAOffset: 0
OS2WinDescent: 443
OS2WinDOffset: 0
HheadAscent: 1825
HheadAOffset: 0
HheadDescent: -443
HheadDOffset: 0
OS2SubXSize: 1434
OS2SubYSize: 1331
OS2SubXOff: 0
OS2SubYOff: 293
OS2SupXSize: 1434
OS2SupYSize: 1331
OS2SupXOff: 0
OS2SupYOff: 928
OS2StrikeYSize: 102
OS2StrikeYPos: 530
OS2FamilyClass: 261
OS2Vendor: 'Mono'
OS2CodePages: 400001ff.ffff0000
OS2UnicodeRanges: 00007a87.80000000.00000008.00000000
Lookup: 1 1 0 "'init' Initial Forms in Arabic lookup 0" { "'init' Initial Forms in Arabic lookup 0 subtable"  } ['init' ('arab' <'dflt' > ) ]
Lookup: 1 1 0 "'medi' Medial Forms in Arabic lookup 1" { "'medi' Medial Forms in Arabic lookup 1 subtable"  } ['medi' ('arab' <'dflt' > ) ]
Lookup: 1 1 0 "'fina' Terminal Forms in Arabic lookup 2" { "'fina' Terminal Forms in Arabic lookup 2 subtable"  } ['fina' ('arab' <'dflt' > ) ]
Lookup: 4 9 1 "'liga' Standard Ligatures in Arabic lookup 3" { "'liga' Standard Ligatures in Arabic lookup 3 subtable"  } ['liga' ('arab' <'dflt' > ) ]
Lookup: 4 7 1 "'liga' Standard Ligatures in Arabic lookup 4" { "'liga' Standard Ligatures in Arabic lookup 4 subtable"  } ['liga' ('arab' <'dflt' > ) ]

StartChar: .notdef
Encoding: 65536 -1 0
Width: 1593
GlyphClass: 1
Flags: W
LayerCount: 2
Fore
SplineSet
284 0 m 1,0,-1
 284 1280 l 1,1,-1
 1308 1280 l 1,2,-1
 1308 0 l 1,3,-1
 284 0 l 1,0,-1
316 32 m 1,4,-1
 1276 32 l 1,5,-1
 1276 1248 l 1,6,-1
 316 1248 l 1,7,-1
 316 32 l 1,4,-1
EndSplineSet
EndChar

StartChar: exclam
Encoding: 33 33 4
Width: 682
GlyphClass: 1
Flags: W
LayerCount: 2
Fore
SplineSet
360 359 m 1,0,-1
 322 359 l 1,1,-1
 234 1169 l 2,2,3
 228 1222 228 1222 228 1248 c 0,4,5
 228 1311 228 1311 261.5 1349 c 128,-1,6
 295 1387 295 1387 342 1387 c 256,7,8
 389 1387 389 1387 421.5 1349 c 128,-1,9
 454 1311 454 1311 454 1236 c 0,10,11
 454 1212 454 1212 450 1169 c 2,12,-1
 360 359 l 1,0,-1
340 193 m 256,13,14
 386 193 386 193 418.5 160.5 c 128,-1,15
 451 128 451 128 451 83 c 0,16,17
 451 37 451 37 418.5 4.5 c 128,-1,18
 386 -28 386 -28 340 -28 c 256,19,20
 294 -28 294 -28 261.5 4.5 c 128,-1,21
 229 37 229 37 229 83 c 0,22,23
 229 128 229 128 261.5 160.5 c 128,-1,24
 294 193 294 193 340 193 c 256,13,14
EndSplineSet
EndChar

StartChar: quotedbl
Encoding: 34 34 5
Width: 836
GlyphClass: 1
Flags: W
LayerCount: 2
Fore
SplineSet
576 803 m 1,0,-1
 522 1095 l 1,1,-1
 500 1216 l 2,2,3
 498 1241 498 1241 498 1266 c 0,4,5
 498 1329 498 1329 526 1358 c 128,-1,6
 554 1387 554 1387 600 1387 c 0,7,8
 643 1387 643 1387 671.5 1358 c 128,-1,9
 700 1329 700 1329 700 1280 c 0,10,11
 700 1195 700 1195 681 1096 c 2,12,-1
 624 803 l 1,13,-1
 576 803 l 1,0,-1
210 803 m 1,14,-1
 155 1099 l 2,15,16
 133 1221 133 1221 133 1265 c 0,17,18
 133 1329 133 1329 159.5 1358 c 128,-1,19
 186 1387 186 1387 231 1387 c 0,20,21
 275 1387 275 1387 304 1357.5 c 128,-1,22
 333 1328 333 1328 333 1279 c 0,23,24
 333 1240 333 1240 307 1098 c 2,25,-1
 253 803 l 1,26,-1
 210 803 l 1,14,-1
EndSplineSet
EndChar

StartChar: numbersign
Encoding: 35 35 6
Width: 1024
GlyphClass: 1
Flags: W
LayerCount: 2
Fore
SplineSet
115 -28 m 1,0,-1
 208 427 l 1,1,-1
 37 427 l 1,2,-1
 37 509 l 1,3,-1
 224 509 l 1,4,-1
 293 852 l 1,5,-1
 37 852 l 1,6,-1
 37 932 l 1,7,-1
 312 932 l 1,8,-1
 403 1387 l 1,9,-1
 486 1387 l 1,10,-1
 395 932 l 1,11,-1
 732 932 l 1,12,-1
 829 1387 l 1,13,-1
 912 1387 l 1,14,-1
 817 932 l 1,15,-1
 987 932 l 1,16,-1
 987 852 l 1,17,-1
 802 852 l 1,18,-1
 732 509 l 1,19,-1
 987 509 l 1,20,-1
 987 427 l 1,21,-1
 715 427 l 1,22,-1
 622 -28 l 1,23,-1
 541 -28 l 1,24,-1
 632 427 l 1,25,-1
 293 427 l 1,26,-1
 198 -28 l 1,27,-1
 115 -28 l 1,0,-1
308 509 m 1,28,-1
 647 509 l 1,29,-1
 719 852 l 1,30,-1
 378 852 l 1,31,-1
 308 509 l 1,28,-1
EndSplineSet
EndChar

StartChar: dollar
Encoding: 36 36 7
Width: 1024
GlyphClass: 1
Flags: W
LayerCount: 2
Fore
SplineSet
108 334 m 1,0,-1
 152 334 l 1,1,2
 163 197 163 197 238 124 c 128,-1,3
 313 51 313 51 462 37 c 1,4,-1
 462 621 l 1,5,6
 237 760 237 760 162 867 c 0,7,8
 109 943 109 943 109 1052 c 0,9,10
 109 1175 109 1175 200.5 1267 c 128,-1,11
 292 1359 292 1359 462 1378 c 1,12,-1
 462 1470 l 1,13,-1
 526 1470 l 1,14,-1
 526 1378 l 1,15,16
 608 1373 608 1373 664 1359 c 0,17,18
 693 1352 693 1352 856 1290 c 1,19,-1
 856 991 l 1,20,-1
 817 991 l 1,21,22
 804 1150 804 1150 734.5 1223.5 c 128,-1,23
 665 1297 665 1297 526 1311 c 1,24,-1
 526 803 l 1,25,26
 778 627 778 627 849.5 543.5 c 128,-1,27
 921 460 921 460 921 336 c 0,28,29
 921 198 921 198 816.5 93 c 128,-1,30
 712 -12 712 -12 526 -28 c 1,31,-1
 526 -156 l 1,32,-1
 462 -156 l 1,33,-1
 462 -28 l 1,34,35
 368 -24 368 -24 287 -6.5 c 128,-1,36
 206 11 206 11 108 51 c 1,37,-1
 108 334 l 1,0,-1
462 845 m 1,38,-1
 462 1310 l 1,39,40
 362 1298 362 1298 313.5 1246.5 c 128,-1,41
 265 1195 265 1195 265 1117 c 0,42,43
 265 1044 265 1044 309 980.5 c 128,-1,44
 353 917 353 917 462 845 c 1,38,-1
526 37 m 1,45,46
 601 50 601 50 641 74 c 0,47,48
 697 109 697 109 729.5 165.5 c 128,-1,49
 762 222 762 222 762 286 c 0,50,51
 762 352 762 352 722.5 411 c 128,-1,52
 683 470 683 470 526 578 c 1,53,-1
 526 37 l 1,45,46
EndSplineSet
EndChar

StartChar: percent
Encoding: 37 37 8
Width: 1706
GlyphClass: 1
Flags: W
LayerCount: 2
Fore
SplineSet
1392 1387 m 1,0,-1
 404 -56 l 1,1,-1
 315 -56 l 1,2,-1
 1303 1387 l 1,3,-1
 1392 1387 l 1,0,-1
364 1387 m 0,4,5
 499 1387 499 1387 573.5 1275 c 128,-1,6
 648 1163 648 1163 648 1018 c 0,7,8
 648 844 648 844 564 749 c 128,-1,9
 480 654 480 654 362 654 c 0,10,11
 283 654 283 654 217 697.5 c 128,-1,12
 151 741 151 741 111.5 827 c 128,-1,13
 72 913 72 913 72 1018 c 256,14,15
 72 1123 72 1123 112 1211.5 c 128,-1,16
 152 1300 152 1300 221.5 1343.5 c 128,-1,17
 291 1387 291 1387 364 1387 c 0,4,5
361 1331 m 0,18,19
 310 1331 310 1331 270.5 1271 c 128,-1,20
 231 1211 231 1211 231 1019 c 0,21,22
 231 880 231 880 253 807 c 0,23,24
 270 752 270 752 306 722 c 0,25,26
 327 704 327 704 358 704 c 0,27,28
 406 704 406 704 440 756 c 0,29,30
 490 833 490 833 490 1013 c 0,31,32
 490 1203 490 1203 441 1280 c 0,33,34
 409 1331 409 1331 361 1331 c 0,18,19
1346 673 m 0,35,36
 1417 673 1417 673 1487.5 628 c 128,-1,37
 1558 583 1558 583 1596.5 497 c 128,-1,38
 1635 411 1635 411 1635 308 c 0,39,40
 1635 131 1635 131 1550 37.5 c 128,-1,41
 1465 -56 1465 -56 1349 -56 c 0,42,43
 1276 -56 1276 -56 1207.5 -11 c 128,-1,44
 1139 34 1139 34 1099.5 117.5 c 128,-1,45
 1060 201 1060 201 1060 308 c 0,46,47
 1060 413 1060 413 1099.5 500 c 128,-1,48
 1139 587 1139 587 1207.5 630 c 128,-1,49
 1276 673 1276 673 1346 673 c 0,35,36
1347 620 m 0,50,51
 1299 620 1299 620 1264 566 c 0,52,53
 1219 496 1219 496 1219 301 c 0,54,55
 1219 122 1219 122 1265 51 c 0,56,57
 1299 0 1299 0 1347 0 c 0,58,59
 1393 0 1393 0 1429 55 c 0,60,61
 1477 128 1477 128 1477 306 c 0,62,63
 1477 494 1477 494 1429 569 c 0,64,65
 1396 620 1396 620 1347 620 c 0,50,51
EndSplineSet
EndChar

StartChar: ampersand
Encoding: 38 38 9
Width: 1593
GlyphClass: 1
Flags: W
LayerCount: 2
Fore
SplineSet
1045 873 m 1,0,-1
 1465 873 l 1,1,-1
 1465 836 l 1,2,3
 1378 829 1378 829 1336.5 797.5 c 128,-1,4
 1295 766 1295 766 1207 607 c 128,-1,5
 1119 448 1119 448 1009 310 c 1,6,7
 1098 206 1098 206 1168 164.5 c 128,-1,8
 1238 123 1238 123 1309 123 c 0,9,10
 1378 123 1378 123 1426 160.5 c 128,-1,11
 1474 198 1474 198 1494 271 c 1,12,-1
 1531 244 l 1,13,14
 1494 103 1494 103 1412 36 c 128,-1,15
 1330 -31 1330 -31 1221 -31 c 0,16,17
 1139 -31 1139 -31 1054.5 13.5 c 128,-1,18
 970 58 970 58 870 164 c 1,19,20
 746 54 746 54 646.5 11.5 c 128,-1,21
 547 -31 547 -31 434 -31 c 0,22,23
 269 -31 269 -31 172 57 c 128,-1,24
 75 145 75 145 75 267 c 0,25,26
 75 388 75 388 162 508.5 c 128,-1,27
 249 629 249 629 489 758 c 1,28,29
 442 862 442 862 425 928.5 c 128,-1,30
 408 995 408 995 408 1056 c 0,31,32
 408 1227 408 1227 534 1317 c 0,33,34
 632 1387 632 1387 757 1387 c 0,35,36
 876 1387 876 1387 951 1316.5 c 128,-1,37
 1026 1246 1026 1246 1026 1143 c 0,38,39
 1026 1037 1026 1037 953.5 957 c 128,-1,40
 881 877 881 877 697 782 c 1,41,42
 824 556 824 556 962 368 c 1,43,44
 1138 578 1138 578 1138 722 c 0,45,46
 1138 768 1138 768 1108 804 c 0,47,48
 1086 831 1086 831 1045 836 c 1,49,-1
 1045 873 l 1,0,-1
663 847 m 1,50,51
 787 906 787 906 848.5 981 c 128,-1,52
 910 1056 910 1056 910 1148 c 0,53,54
 910 1220 910 1220 865.5 1267 c 128,-1,55
 821 1314 821 1314 755 1314 c 0,56,57
 668 1314 668 1314 623.5 1253.5 c 128,-1,58
 579 1193 579 1193 579 1135 c 0,59,60
 579 1086 579 1086 596 1025.5 c 128,-1,61
 613 965 613 965 663 847 c 1,50,51
818 222 m 1,62,63
 686 402 686 402 635 485 c 128,-1,64
 584 568 584 568 523 691 c 1,65,66
 403 622 403 622 342.5 539 c 128,-1,67
 282 456 282 456 282 359 c 0,68,69
 282 252 282 252 351 171 c 128,-1,70
 420 90 420 90 537 90 c 0,71,72
 600 90 600 90 658.5 115 c 128,-1,73
 717 140 717 140 818 222 c 1,62,63
EndSplineSet
EndChar

StartChar: quotesingle
Encoding: 39 39 10
Width: 369
GlyphClass: 1
Flags: W
LayerCount: 2
Fore
SplineSet
158 803 m 1,0,-1
 104 1099 l 2,1,2
 81 1222 81 1222 81 1265 c 0,3,4
 81 1329 81 1329 107 1358 c 128,-1,5
 133 1387 133 1387 178 1387 c 256,6,7
 223 1387 223 1387 252.5 1357.5 c 128,-1,8
 282 1328 282 1328 282 1280 c 0,9,10
 282 1243 282 1243 256 1098 c 2,11,-1
 202 803 l 1,12,-1
 158 803 l 1,0,-1
EndSplineSet
EndChar

StartChar: parenleft
Encoding: 40 40 11
Width: 682
GlyphClass: 1
Flags: W
LayerCount: 2
Fore
SplineSet
636 -401 m 1,0,-1
 636 -438 l 1,1,2
 485 -362 485 -362 384 -260 c 0,3,4
 240 -115 240 -115 162 82 c 128,-1,5
 84 279 84 279 84 491 c 0,6,7
 84 801 84 801 237 1056.5 c 128,-1,8
 390 1312 390 1312 636 1422 c 1,9,-1
 636 1380 l 1,10,11
 513 1312 513 1312 434 1194 c 128,-1,12
 355 1076 355 1076 316 895 c 128,-1,13
 277 714 277 714 277 517 c 0,14,15
 277 303 277 303 310 128 c 0,16,17
 336 -10 336 -10 373 -93.5 c 128,-1,18
 410 -177 410 -177 472.5 -254 c 128,-1,19
 535 -331 535 -331 636 -401 c 1,0,-1
EndSplineSet
EndChar

StartChar: parenright
Encoding: 41 41 12
Width: 682
GlyphClass: 1
Flags: W
LayerCount: 2
Fore
SplineSet
46 1380 m 1,0,-1
 46 1422 l 1,1,2
 198 1347 198 1347 299 1245 c 0,3,4
 442 1099 442 1099 520 902.5 c 128,-1,5
 598 706 598 706 598 493 c 0,6,7
 598 183 598 183 445.5 -72.5 c 128,-1,8
 293 -328 293 -328 46 -438 c 1,9,-1
 46 -401 l 1,10,11
 169 -332 169 -332 248.5 -214.5 c 128,-1,12
 328 -97 328 -97 366.5 84.5 c 128,-1,13
 405 266 405 266 405 463 c 0,14,15
 405 676 405 676 372 852 c 0,16,17
 347 990 347 990 309.5 1073 c 128,-1,18
 272 1156 272 1156 210 1233 c 128,-1,19
 148 1310 148 1310 46 1380 c 1,0,-1
EndSplineSet
EndChar

StartChar: asterisk
Encoding: 42 42 13
Width: 1024
GlyphClass: 1
Flags: W
LayerCount: 2
Fore
SplineSet
494 1044 m 1,0,1
 490 1113 490 1113 466 1181 c 0,2,3
 432 1279 432 1279 432 1316 c 0,4,5
 432 1368 432 1368 456.5 1395 c 128,-1,6
 481 1422 481 1422 517 1422 c 0,7,8
 548 1422 548 1422 571 1395 c 128,-1,9
 594 1368 594 1368 594 1318 c 0,10,11
 594 1273 594 1273 567.5 1192.5 c 128,-1,12
 541 1112 541 1112 535 1044 c 1,13,14
 590 1079 590 1079 634 1129 c 0,15,16
 702 1208 702 1208 735 1227 c 128,-1,17
 768 1246 768 1246 802 1246 c 0,18,19
 835 1246 835 1246 857.5 1223.5 c 128,-1,20
 880 1201 880 1201 880 1170 c 0,21,22
 880 1133 880 1133 847 1104 c 128,-1,23
 814 1075 814 1075 682 1046 c 0,24,25
 605 1029 605 1029 554 1007 c 1,26,27
 606 980 606 980 681 966 c 0,28,29
 802 944 802 944 839.5 911 c 128,-1,30
 877 878 877 878 877 839 c 0,31,32
 877 809 877 809 854.5 787 c 128,-1,33
 832 765 832 765 802 765 c 256,34,35
 772 765 772 765 735.5 786 c 128,-1,36
 699 807 699 807 637 880 c 0,37,38
 596 929 596 929 535 972 c 1,39,40
 537 915 537 915 558 848 c 0,41,42
 594 730 594 730 594 687 c 0,43,44
 594 647 594 647 570 619.5 c 128,-1,45
 546 592 546 592 519 592 c 0,46,47
 482 592 482 592 452 621 c 0,48,49
 431 642 431 642 431 688 c 0,50,51
 431 736 431 736 454 803.5 c 128,-1,52
 477 871 477 871 483 896.5 c 128,-1,53
 489 922 489 922 494 972 c 1,54,55
 435 933 435 933 391 885 c 0,56,57
 318 803 318 803 281 781 c 0,58,59
 255 765 255 765 227 765 c 0,60,61
 193 765 193 765 169 788 c 128,-1,62
 145 811 145 811 145 839 c 0,63,64
 145 864 145 864 165.5 891.5 c 128,-1,65
 186 919 186 919 227 937 c 0,66,67
 254 949 254 949 350 969 c 0,68,69
 412 982 412 982 471 1007 c 1,70,71
 417 1034 417 1034 342 1049 c 0,72,73
 219 1075 219 1075 190 1096 c 0,74,75
 145 1129 145 1129 145 1176 c 0,76,77
 145 1203 145 1203 167.5 1225.5 c 128,-1,78
 190 1248 190 1248 220 1248 c 0,79,80
 253 1248 253 1248 290 1227 c 128,-1,81
 327 1206 327 1206 382 1142.5 c 128,-1,82
 437 1079 437 1079 494 1044 c 1,0,1
EndSplineSet
EndChar

StartChar: plus
Encoding: 43 43 14
Width: 1155
GlyphClass: 1
Flags: W
LayerCount: 2
Fore
SplineSet
535 141 m 1,0,-1
 535 640 l 1,1,-1
 37 640 l 1,2,-1
 37 722 l 1,3,-1
 535 722 l 1,4,-1
 535 1219 l 1,5,-1
 615 1219 l 1,6,-1
 615 722 l 1,7,-1
 1115 722 l 1,8,-1
 1115 640 l 1,9,-1
 615 640 l 1,10,-1
 615 141 l 1,11,-1
 535 141 l 1,0,-1
EndSplineSet
EndChar

StartChar: comma
Encoding: 44 44 15
Width: 512
GlyphClass: 1
Flags: W
LayerCount: 2
Fore
SplineSet
110 -341 m 1,0,-1
 110 -297 l 1,1,2
 213 -263 213 -263 269.5 -191.5 c 128,-1,3
 326 -120 326 -120 326 -40 c 0,4,5
 326 -21 326 -21 317 -8 c 0,6,7
 310 1 310 1 303 1 c 0,8,9
 292 1 292 1 255 -19 c 0,10,11
 237 -28 237 -28 217 -28 c 0,12,13
 168 -28 168 -28 139 1 c 128,-1,14
 110 30 110 30 110 81 c 0,15,16
 110 130 110 130 147.5 165 c 128,-1,17
 185 200 185 200 239 200 c 0,18,19
 305 200 305 200 356.5 142.5 c 128,-1,20
 408 85 408 85 408 -10 c 0,21,22
 408 -113 408 -113 336.5 -201.5 c 128,-1,23
 265 -290 265 -290 110 -341 c 1,0,-1
EndSplineSet
EndChar

StartChar: hyphen
Encoding: 45 45 16
AltUni2: 0000ad.ffffffff.0 0000ad.ffffffff.0
Width: 682
GlyphClass: 1
Flags: W
LayerCount: 2
Fore
SplineSet
83 535 m 1,0,-1
 600 535 l 1,1,-1
 600 384 l 1,2,-1
 83 384 l 1,3,-1
 83 535 l 1,0,-1
EndSplineSet
EndChar

StartChar: period
Encoding: 46 46 17
Width: 512
GlyphClass: 1
Flags: W
LayerCount: 2
Fore
SplineSet
256 194 m 0,0,1
 303 194 303 194 335 161.5 c 128,-1,2
 367 129 367 129 367 83 c 256,3,4
 367 37 367 37 334.5 4.5 c 128,-1,5
 302 -28 302 -28 256 -28 c 256,6,7
 210 -28 210 -28 177.5 4.5 c 128,-1,8
 145 37 145 37 145 83 c 0,9,10
 145 130 145 130 177.5 162 c 128,-1,11
 210 194 210 194 256 194 c 0,0,1
EndSplineSet
EndChar

StartChar: slash
Encoding: 47 47 18
Width: 569
GlyphClass: 1
Flags: W
LayerCount: 2
Fore
SplineSet
574 1422 m 1,0,-1
 83 -28 l 1,1,-1
 3 -28 l 1,2,-1
 494 1422 l 1,3,-1
 574 1422 l 1,0,-1
EndSplineSet
EndChar

StartChar: zero
Encoding: 48 48 19
Width: 1024
GlyphClass: 1
Flags: W
LayerCount: 2
Fore
SplineSet
74 670 m 0,0,1
 74 902 74 902 144 1069.5 c 128,-1,2
 214 1237 214 1237 330 1319 c 0,3,4
 420 1384 420 1384 516 1384 c 0,5,6
 672 1384 672 1384 796 1225 c 0,7,8
 951 1028 951 1028 951 691 c 0,9,10
 951 455 951 455 883 290 c 128,-1,11
 815 125 815 125 709.5 50.5 c 128,-1,12
 604 -24 604 -24 506 -24 c 0,13,14
 312 -24 312 -24 183 205 c 0,15,16
 74 398 74 398 74 670 c 0,0,1
270 645 m 0,17,18
 270 365 270 365 339 188 c 0,19,20
 396 39 396 39 509 39 c 0,21,22
 563 39 563 39 621 87.5 c 128,-1,23
 679 136 679 136 709 250 c 0,24,25
 755 422 755 422 755 735 c 0,26,27
 755 967 755 967 707 1122 c 0,28,29
 671 1237 671 1237 614 1285 c 0,30,31
 573 1318 573 1318 515 1318 c 0,32,33
 447 1318 447 1318 394 1257 c 0,34,35
 322 1174 322 1174 296 996 c 128,-1,36
 270 818 270 818 270 645 c 0,17,18
EndSplineSet
EndChar

StartChar: one
Encoding: 49 49 20
Width: 1024
GlyphClass: 1
Flags: W
LayerCount: 2
Fore
SplineSet
240 1223 m 1,0,-1
 570 1384 l 1,1,-1
 603 1384 l 1,2,-1
 603 239 l 2,3,4
 603 125 603 125 612.5 97 c 128,-1,5
 622 69 622 69 652 54 c 128,-1,6
 682 39 682 39 774 37 c 1,7,-1
 774 0 l 1,8,-1
 264 0 l 1,9,-1
 264 37 l 1,10,11
 360 39 360 39 388 53.5 c 128,-1,12
 416 68 416 68 427 92.5 c 128,-1,13
 438 117 438 117 438 239 c 2,14,-1
 438 971 l 2,15,16
 438 1119 438 1119 428 1161 c 0,17,18
 421 1193 421 1193 402.5 1208 c 128,-1,19
 384 1223 384 1223 358 1223 c 0,20,21
 321 1223 321 1223 255 1192 c 1,22,-1
 240 1223 l 1,0,-1
EndSplineSet
EndChar

StartChar: two
Encoding: 50 50 21
Width: 1024
GlyphClass: 1
Flags: W
LayerCount: 2
Fore
SplineSet
939 261 m 1,0,-1
 844 0 l 1,1,-1
 44 0 l 1,2,-1
 44 37 l 1,3,4
 397 359 397 359 541 563 c 128,-1,5
 685 767 685 767 685 936 c 0,6,7
 685 1065 685 1065 606 1148 c 128,-1,8
 527 1231 527 1231 417 1231 c 0,9,10
 317 1231 317 1231 237.5 1172.5 c 128,-1,11
 158 1114 158 1114 120 1001 c 1,12,-1
 83 1001 l 1,13,14
 108 1186 108 1186 211.5 1285 c 128,-1,15
 315 1384 315 1384 470 1384 c 0,16,17
 635 1384 635 1384 745.5 1278 c 128,-1,18
 856 1172 856 1172 856 1028 c 0,19,20
 856 925 856 925 808 822 c 0,21,22
 734 660 734 660 568 479 c 0,23,24
 319 207 319 207 257 151 c 1,25,-1
 611 151 l 2,26,27
 719 151 719 151 762.5 159 c 128,-1,28
 806 167 806 167 841 191.5 c 128,-1,29
 876 216 876 216 902 261 c 1,30,-1
 939 261 l 1,0,-1
EndSplineSet
EndChar

StartChar: three
Encoding: 51 51 22
Width: 1024
GlyphClass: 1
Flags: W
LayerCount: 2
Fore
SplineSet
104 1098 m 1,0,1
 162 1235 162 1235 250.5 1309.5 c 128,-1,2
 339 1384 339 1384 471 1384 c 0,3,4
 634 1384 634 1384 721 1278 c 0,5,6
 787 1199 787 1199 787 1109 c 0,7,8
 787 961 787 961 601 803 c 1,9,10
 726 754 726 754 790 663 c 128,-1,11
 854 572 854 572 854 449 c 0,12,13
 854 273 854 273 742 144 c 0,14,15
 596 -24 596 -24 319 -24 c 0,16,17
 182 -24 182 -24 132.5 10 c 128,-1,18
 83 44 83 44 83 83 c 0,19,20
 83 112 83 112 106.5 134 c 128,-1,21
 130 156 130 156 163 156 c 0,22,23
 188 156 188 156 214 148 c 0,24,25
 231 143 231 143 291 111.5 c 128,-1,26
 351 80 351 80 374 74 c 0,27,28
 411 63 411 63 453 63 c 0,29,30
 555 63 555 63 630.5 142 c 128,-1,31
 706 221 706 221 706 329 c 0,32,33
 706 408 706 408 671 483 c 0,34,35
 645 539 645 539 614 568 c 0,36,37
 571 608 571 608 496 640.5 c 128,-1,38
 421 673 421 673 343 673 c 2,39,-1
 311 673 l 1,40,-1
 311 703 l 1,41,42
 390 713 390 713 469.5 760 c 128,-1,43
 549 807 549 807 585 873 c 128,-1,44
 621 939 621 939 621 1018 c 0,45,46
 621 1121 621 1121 556.5 1184.5 c 128,-1,47
 492 1248 492 1248 396 1248 c 0,48,49
 241 1248 241 1248 137 1082 c 1,50,-1
 104 1098 l 1,0,1
EndSplineSet
EndChar

StartChar: four
Encoding: 52 52 23
Width: 1024
GlyphClass: 1
Flags: W
LayerCount: 2
Fore
SplineSet
953 500 m 1,0,-1
 953 358 l 1,1,-1
 771 358 l 1,2,-1
 771 0 l 1,3,-1
 606 0 l 1,4,-1
 606 358 l 1,5,-1
 32 358 l 1,6,-1
 32 486 l 1,7,-1
 661 1384 l 1,8,-1
 771 1384 l 1,9,-1
 771 500 l 1,10,-1
 953 500 l 1,0,-1
606 500 m 1,11,-1
 606 1173 l 1,12,-1
 130 500 l 1,13,-1
 606 500 l 1,11,-1
EndSplineSet
EndChar

StartChar: five
Encoding: 53 53 24
Width: 1024
GlyphClass: 1
Flags: W
LayerCount: 2
Fore
SplineSet
889 1356 m 1,0,-1
 811 1186 l 1,1,-1
 403 1186 l 1,2,-1
 314 1004 l 1,3,4
 579 965 579 965 734 807 c 0,5,6
 867 671 867 671 867 487 c 0,7,8
 867 380 867 380 823.5 289 c 128,-1,9
 780 198 780 198 714 134 c 128,-1,10
 648 70 648 70 567 31 c 0,11,12
 452 -24 452 -24 331 -24 c 0,13,14
 209 -24 209 -24 153.5 17.5 c 128,-1,15
 98 59 98 59 98 109 c 0,16,17
 98 137 98 137 121 158.5 c 128,-1,18
 144 180 144 180 179 180 c 0,19,20
 205 180 205 180 224.5 172 c 128,-1,21
 244 164 244 164 291 131 c 0,22,23
 366 79 366 79 443 79 c 0,24,25
 560 79 560 79 648.5 167.5 c 128,-1,26
 737 256 737 256 737 383 c 0,27,28
 737 506 737 506 658 612.5 c 128,-1,29
 579 719 579 719 440 777 c 0,30,31
 331 822 331 822 143 829 c 1,32,-1
 403 1356 l 1,33,-1
 889 1356 l 1,0,-1
EndSplineSet
EndChar

StartChar: six
Encoding: 54 54 25
Width: 1024
GlyphClass: 1
Flags: W
LayerCount: 2
Fore
SplineSet
918 1384 m 1,0,-1
 918 1347 l 1,1,2
 786 1334 786 1334 702.5 1294.5 c 128,-1,3
 619 1255 619 1255 537.5 1174 c 128,-1,4
 456 1093 456 1093 402.5 993.5 c 128,-1,5
 349 894 349 894 313 757 c 1,6,7
 457 856 457 856 602 856 c 0,8,9
 741 856 741 856 843 744 c 128,-1,10
 945 632 945 632 945 456 c 0,11,12
 945 286 945 286 842 146 c 0,13,14
 718 -24 718 -24 514 -24 c 0,15,16
 375 -24 375 -24 278 68 c 0,17,18
 88 247 88 247 88 532 c 0,19,20
 88 714 88 714 161 878 c 128,-1,21
 234 1042 234 1042 369.5 1169 c 128,-1,22
 505 1296 505 1296 629 1340 c 128,-1,23
 753 1384 753 1384 860 1384 c 2,24,-1
 918 1384 l 1,0,-1
296 684 m 1,25,26
 278 549 278 549 278 466 c 0,27,28
 278 370 278 370 313.5 257.5 c 128,-1,29
 349 145 349 145 419 79 c 0,30,31
 470 32 470 32 543 32 c 0,32,33
 630 32 630 32 698.5 114 c 128,-1,34
 767 196 767 196 767 348 c 0,35,36
 767 519 767 519 699 644 c 128,-1,37
 631 769 631 769 506 769 c 0,38,39
 468 769 468 769 424.5 753 c 128,-1,40
 381 737 381 737 296 684 c 1,25,26
EndSplineSet
EndChar

StartChar: seven
Encoding: 55 55 26
Width: 1024
GlyphClass: 1
Flags: W
LayerCount: 2
Fore
SplineSet
206 1356 m 1,0,-1
 933 1356 l 1,1,-1
 933 1318 l 1,2,-1
 481 -28 l 1,3,-1
 369 -28 l 1,4,-1
 774 1193 l 1,5,-1
 401 1193 l 2,6,7
 288 1193 288 1193 240 1166 c 0,8,9
 156 1120 156 1120 105 1024 c 1,10,-1
 76 1035 l 1,11,-1
 206 1356 l 1,0,-1
EndSplineSet
EndChar

StartChar: eight
Encoding: 56 56 27
Width: 1024
GlyphClass: 1
Flags: W
LayerCount: 2
Fore
SplineSet
393 683 m 1,0,1
 232 815 232 815 185.5 895 c 128,-1,2
 139 975 139 975 139 1061 c 0,3,4
 139 1193 139 1193 241 1288.5 c 128,-1,5
 343 1384 343 1384 512 1384 c 0,6,7
 676 1384 676 1384 776 1295 c 128,-1,8
 876 1206 876 1206 876 1092 c 0,9,10
 876 1016 876 1016 822 937 c 128,-1,11
 768 858 768 858 597 751 c 1,12,13
 773 615 773 615 830 537 c 0,14,15
 906 435 906 435 906 322 c 0,16,17
 906 179 906 179 797 77.5 c 128,-1,18
 688 -24 688 -24 511 -24 c 0,19,20
 318 -24 318 -24 210 97 c 0,21,22
 124 194 124 194 124 309 c 0,23,24
 124 399 124 399 184.5 487.5 c 128,-1,25
 245 576 245 576 393 683 c 1,0,1
550 790 m 1,26,27
 670 898 670 898 702 960.5 c 128,-1,28
 734 1023 734 1023 734 1102 c 0,29,30
 734 1207 734 1207 675 1266.5 c 128,-1,31
 616 1326 616 1326 514 1326 c 256,32,33
 412 1326 412 1326 348 1267 c 128,-1,34
 284 1208 284 1208 284 1129 c 0,35,36
 284 1077 284 1077 310.5 1025 c 128,-1,37
 337 973 337 973 386 926 c 1,38,-1
 550 790 l 1,26,27
440 645 m 1,39,40
 357 575 357 575 317 492.5 c 128,-1,41
 277 410 277 410 277 314 c 0,42,43
 277 185 277 185 347.5 107.5 c 128,-1,44
 418 30 418 30 527 30 c 0,45,46
 635 30 635 30 700 91 c 128,-1,47
 765 152 765 152 765 239 c 0,48,49
 765 311 765 311 727 368 c 0,50,51
 656 474 656 474 440 645 c 1,39,40
EndSplineSet
EndChar

StartChar: nine
Encoding: 57 57 28
Width: 1024
GlyphClass: 1
Flags: W
LayerCount: 2
Fore
SplineSet
108 -28 m 1,0,-1
 108 9 l 1,1,2
 238 11 238 11 350 69.5 c 128,-1,3
 462 128 462 128 566.5 274 c 128,-1,4
 671 420 671 420 712 595 c 1,5,6
 555 494 555 494 428 494 c 0,7,8
 285 494 285 494 183 604.5 c 128,-1,9
 81 715 81 715 81 898 c 0,10,11
 81 1076 81 1076 183 1215 c 0,12,13
 306 1384 306 1384 504 1384 c 0,14,15
 671 1384 671 1384 790 1246 c 0,16,17
 936 1075 936 1075 936 824 c 0,18,19
 936 598 936 598 825 402.5 c 128,-1,20
 714 207 714 207 516 78 c 0,21,22
 355 -28 355 -28 165 -28 c 2,23,-1
 108 -28 l 1,0,-1
728 669 m 1,24,25
 746 799 746 799 746 877 c 0,26,27
 746 974 746 974 713 1086.5 c 128,-1,28
 680 1199 680 1199 619.5 1259 c 128,-1,29
 559 1319 559 1319 482 1319 c 0,30,31
 393 1319 393 1319 326 1239 c 128,-1,32
 259 1159 259 1159 259 1001 c 0,33,34
 259 790 259 790 348 671 c 0,35,36
 413 585 413 585 508 585 c 0,37,38
 554 585 554 585 617 607 c 128,-1,39
 680 629 680 629 728 669 c 1,24,25
EndSplineSet
EndChar

StartChar: colon
Encoding: 58 58 29
Width: 569
GlyphClass: 1
Flags: W
LayerCount: 2
Fore
SplineSet
289 944 m 256,0,1
 335 944 335 944 367.5 911.5 c 128,-1,2
 400 879 400 879 400 833 c 256,3,4
 400 787 400 787 367.5 754.5 c 128,-1,5
 335 722 335 722 289 722 c 256,6,7
 243 722 243 722 210.5 754.5 c 128,-1,8
 178 787 178 787 178 833 c 256,9,10
 178 879 178 879 210.5 911.5 c 128,-1,11
 243 944 243 944 289 944 c 256,0,1
287 195 m 0,12,13
 334 195 334 195 366.5 162 c 128,-1,14
 399 129 399 129 399 83 c 256,15,16
 399 37 399 37 366 4.5 c 128,-1,17
 333 -28 333 -28 287 -28 c 256,18,19
 241 -28 241 -28 208.5 4.5 c 128,-1,20
 176 37 176 37 176 83 c 256,21,22
 176 129 176 129 208.5 162 c 128,-1,23
 241 195 241 195 287 195 c 0,12,13
EndSplineSet
EndChar

StartChar: semicolon
Encoding: 59 59 30
AltUni2: 00037e.ffffffff.0 00037e.ffffffff.0
Width: 569
GlyphClass: 1
Flags: W
LayerCount: 2
Fore
SplineSet
282 945 m 256,0,1
 328 945 328 945 360.5 913 c 128,-1,2
 393 881 393 881 393 835 c 256,3,4
 393 789 393 789 360.5 756.5 c 128,-1,5
 328 724 328 724 282 724 c 256,6,7
 236 724 236 724 203.5 756.5 c 128,-1,8
 171 789 171 789 171 835 c 256,9,10
 171 881 171 881 203.5 913 c 128,-1,11
 236 945 236 945 282 945 c 256,0,1
142 -341 m 1,12,-1
 142 -297 l 1,13,14
 245 -263 245 -263 301.5 -191.5 c 128,-1,15
 358 -120 358 -120 358 -40 c 0,16,17
 358 -21 358 -21 349 -8 c 0,18,19
 342 1 342 1 335 1 c 0,20,21
 324 1 324 1 287 -19 c 0,22,23
 269 -28 269 -28 249 -28 c 0,24,25
 200 -28 200 -28 171 1 c 128,-1,26
 142 30 142 30 142 81 c 0,27,28
 142 130 142 130 179.5 165 c 128,-1,29
 217 200 217 200 271 200 c 0,30,31
 337 200 337 200 388.5 142.5 c 128,-1,32
 440 85 440 85 440 -10 c 0,33,34
 440 -113 440 -113 368.5 -201.5 c 128,-1,35
 297 -290 297 -290 142 -341 c 1,12,-1
EndSplineSet
EndChar

StartChar: less
Encoding: 60 60 31
Width: 1155
GlyphClass: 1
Flags: W
LayerCount: 2
Fore
SplineSet
37 706 m 1,0,-1
 1113 1172 l 1,1,-1
 1113 1085 l 1,2,-1
 187 683 l 1,3,-1
 1113 277 l 1,4,-1
 1113 187 l 1,5,-1
 37 657 l 1,6,-1
 37 706 l 1,0,-1
EndSplineSet
EndChar

StartChar: equal
Encoding: 61 61 32
Width: 1155
GlyphClass: 1
Flags: W
LayerCount: 2
Fore
SplineSet
37 883 m 1,0,-1
 1116 883 l 1,1,-1
 1116 801 l 1,2,-1
 37 801 l 1,3,-1
 37 883 l 1,0,-1
37 557 m 1,4,-1
 1116 557 l 1,5,-1
 1116 475 l 1,6,-1
 37 475 l 1,7,-1
 37 557 l 1,4,-1
EndSplineSet
EndChar

StartChar: greater
Encoding: 62 62 33
Width: 1155
GlyphClass: 1
Flags: W
LayerCount: 2
Fore
SplineSet
1113 653 m 1,0,-1
 37 187 l 1,1,-1
 37 273 l 1,2,-1
 964 675 l 1,3,-1
 37 1081 l 1,4,-1
 37 1172 l 1,5,-1
 1113 702 l 1,6,-1
 1113 653 l 1,0,-1
EndSplineSet
EndChar

StartChar: question
Encoding: 63 63 34
Width: 909
GlyphClass: 1
Flags: W
LayerCount: 2
Fore
SplineSet
454 320 m 1,0,-1
 413 320 l 1,1,2
 420 446 420 446 444.5 528.5 c 128,-1,3
 469 611 469 611 546 758 c 0,4,5
 606 871 606 871 624 931.5 c 128,-1,6
 642 992 642 992 642 1054 c 0,7,8
 642 1181 642 1181 574.5 1256 c 128,-1,9
 507 1331 507 1331 409 1331 c 0,10,11
 322 1331 322 1331 272 1290 c 128,-1,12
 222 1249 222 1249 222 1201 c 0,13,14
 222 1164 222 1164 252 1110 c 128,-1,15
 282 1056 282 1056 282 1028 c 0,16,17
 282 992 282 992 259 967.5 c 128,-1,18
 236 943 236 943 203 943 c 0,19,20
 161 943 161 943 126.5 984.5 c 128,-1,21
 92 1026 92 1026 92 1100 c 0,22,23
 92 1213 92 1213 189 1300 c 128,-1,24
 286 1387 286 1387 452 1387 c 0,25,26
 658 1387 658 1387 755 1267 c 0,27,28
 827 1179 827 1179 827 1072 c 0,29,30
 827 999 827 999 794.5 922 c 128,-1,31
 762 845 762 845 671 741 c 0,32,33
 526 577 526 577 493.5 508.5 c 128,-1,34
 461 440 461 440 454 320 c 1,0,-1
440 196 m 0,35,36
 487 196 487 196 519.5 163.5 c 128,-1,37
 552 131 552 131 552 84 c 0,38,39
 552 38 552 38 519 5.5 c 128,-1,40
 486 -27 486 -27 440 -27 c 256,41,42
 394 -27 394 -27 361.5 5.5 c 128,-1,43
 329 38 329 38 329 84 c 0,44,45
 329 131 329 131 361.5 163.5 c 128,-1,46
 394 196 394 196 440 196 c 0,35,36
EndSplineSet
EndChar

StartChar: at
Encoding: 64 64 35
Width: 1886
GlyphClass: 1
Flags: W
LayerCount: 2
Fore
SplineSet
1408 958 m 1,0,-1
 1291 559 l 2,1,2
 1226 335 1226 335 1212 275 c 128,-1,3
 1198 215 1198 215 1198 179 c 0,4,5
 1198 147 1198 147 1219.5 125 c 128,-1,6
 1241 103 1241 103 1273 103 c 0,7,8
 1346 103 1346 103 1448.5 176 c 128,-1,9
 1551 249 1551 249 1624 413 c 128,-1,10
 1697 577 1697 577 1697 755 c 0,11,12
 1697 926 1697 926 1614.5 1071 c 128,-1,13
 1532 1216 1532 1216 1381.5 1293.5 c 128,-1,14
 1231 1371 1231 1371 1049 1371 c 0,15,16
 818 1371 818 1371 620 1248.5 c 128,-1,17
 422 1126 422 1126 306.5 896 c 128,-1,18
 191 666 191 666 191 418 c 0,19,20
 191 188 191 188 292.5 0 c 128,-1,21
 394 -188 394 -188 578 -284.5 c 128,-1,22
 762 -381 762 -381 974 -381 c 0,23,24
 1237 -381 1237 -381 1449.5 -240 c 128,-1,25
 1662 -99 1662 -99 1778 172 c 1,26,-1
 1836 172 l 1,27,28
 1746 -102 1746 -102 1509 -272 c 128,-1,29
 1272 -442 1272 -442 969 -442 c 0,30,31
 731 -442 731 -442 527 -329.5 c 128,-1,32
 323 -217 323 -217 210 -10.5 c 128,-1,33
 97 196 97 196 97 444 c 0,34,35
 97 708 97 708 221 936.5 c 128,-1,36
 345 1165 345 1165 568.5 1293.5 c 128,-1,37
 792 1422 792 1422 1043 1422 c 0,38,39
 1250 1422 1250 1422 1416.5 1336.5 c 128,-1,40
 1583 1251 1583 1251 1670 1086.5 c 128,-1,41
 1757 922 1757 922 1757 737 c 0,42,43
 1757 554 1757 554 1675.5 374.5 c 128,-1,44
 1594 195 1594 195 1468 113 c 128,-1,45
 1342 31 1342 31 1205 31 c 0,46,47
 1129 31 1129 31 1090.5 67 c 128,-1,48
 1052 103 1052 103 1052 168 c 0,49,50
 1052 224 1052 224 1070 315 c 1,51,52
 922 136 922 136 833 83 c 128,-1,53
 744 30 744 30 676 30 c 0,54,55
 605 30 605 30 550 93.5 c 128,-1,56
 495 157 495 157 495 263 c 0,57,58
 495 408 495 408 589.5 588 c 128,-1,59
 684 768 684 768 840 881 c 0,60,61
 955 964 955 964 1046 964 c 0,62,63
 1113 964 1113 964 1157.5 929.5 c 128,-1,64
 1202 895 1202 895 1218 826 c 1,65,-1
 1251 936 l 1,66,-1
 1408 958 l 1,0,-1
1057 917 m 0,67,68
 982 917 982 917 905 838 c 0,69,70
 792 722 792 722 712 525 c 0,71,72
 653 381 653 381 653 293 c 0,73,74
 653 230 653 230 688.5 190.5 c 128,-1,75
 724 151 724 151 768 151 c 0,76,77
 826 151 826 151 890 195 c 128,-1,78
 954 239 954 239 1024 330.5 c 128,-1,79
 1094 422 1094 422 1126 514 c 0,80,81
 1182 673 1182 673 1182 773 c 0,82,83
 1182 839 1182 839 1145.5 878 c 128,-1,84
 1109 917 1109 917 1057 917 c 0,67,68
EndSplineSet
EndChar

StartChar: A
Encoding: 65 65 36
Width: 1479
GlyphClass: 1
Flags: W
LayerCount: 2
Fore
SplineSet
937 454 m 1,0,-1
 412 454 l 1,1,-1
 320 240 l 2,2,3
 286 161 286 161 286 122 c 0,4,5
 286 91 286 91 315.5 67.5 c 128,-1,6
 345 44 345 44 443 37 c 1,7,-1
 443 0 l 1,8,-1
 16 0 l 1,9,-1
 16 37 l 1,10,11
 101 52 101 52 126 76 c 0,12,13
 177 124 177 124 239 271 c 2,14,-1
 716 1387 l 1,15,-1
 751 1387 l 1,16,-1
 1223 259 l 2,17,18
 1280 123 1280 123 1326.5 82.5 c 128,-1,19
 1373 42 1373 42 1456 37 c 1,20,-1
 1456 0 l 1,21,-1
 921 0 l 1,22,-1
 921 37 l 1,23,24
 1002 41 1002 41 1030.5 64 c 128,-1,25
 1059 87 1059 87 1059 120 c 0,26,27
 1059 164 1059 164 1019 259 c 2,28,-1
 937 454 l 1,0,-1
909 528 m 1,29,-1
 679 1076 l 1,30,-1
 443 528 l 1,31,-1
 909 528 l 1,29,-1
EndSplineSet
EndChar

StartChar: B
Encoding: 66 66 37
Width: 1366
GlyphClass: 1
Flags: W
LayerCount: 2
Fore
SplineSet
946 692 m 1,0,1
 1087 662 1087 662 1157 596 c 0,2,3
 1254 504 1254 504 1254 371 c 0,4,5
 1254 270 1254 270 1190 177.5 c 128,-1,6
 1126 85 1126 85 1014.5 42.5 c 128,-1,7
 903 0 903 0 674 0 c 2,8,-1
 34 0 l 1,9,-1
 34 37 l 1,10,-1
 85 37 l 2,11,12
 170 37 170 37 207 91 c 0,13,14
 230 126 230 126 230 240 c 2,15,-1
 230 1116 l 2,16,17
 230 1242 230 1242 201 1275 c 0,18,19
 162 1319 162 1319 85 1319 c 2,20,-1
 34 1319 l 1,21,-1
 34 1356 l 1,22,-1
 620 1356 l 2,23,24
 784 1356 784 1356 883 1332 c 0,25,26
 1033 1296 1033 1296 1112 1204.5 c 128,-1,27
 1191 1113 1191 1113 1191 994 c 0,28,29
 1191 892 1191 892 1129 811.5 c 128,-1,30
 1067 731 1067 731 946 692 c 1,0,1
422 746 m 1,31,32
 459 739 459 739 506.5 735.5 c 128,-1,33
 554 732 554 732 611 732 c 0,34,35
 757 732 757 732 830.5 763.5 c 128,-1,36
 904 795 904 795 943 860 c 128,-1,37
 982 925 982 925 982 1002 c 0,38,39
 982 1121 982 1121 885 1205 c 128,-1,40
 788 1289 788 1289 602 1289 c 0,41,42
 502 1289 502 1289 422 1267 c 1,43,-1
 422 746 l 1,31,32
422 98 m 1,44,45
 538 71 538 71 651 71 c 0,46,47
 832 71 832 71 927 152.5 c 128,-1,48
 1022 234 1022 234 1022 354 c 0,49,50
 1022 433 1022 433 979 506 c 128,-1,51
 936 579 936 579 839 621 c 128,-1,52
 742 663 742 663 599 663 c 0,53,54
 537 663 537 663 493 661 c 128,-1,55
 449 659 449 659 422 654 c 1,56,-1
 422 98 l 1,44,45
EndSplineSet
EndChar

StartChar: C
Encoding: 67 67 38
Width: 1366
GlyphClass: 1
Flags: W
LayerCount: 2
Fore
SplineSet
1233 1387 m 1,0,-1
 1264 926 l 1,1,-1
 1233 926 l 1,2,3
 1171 1133 1171 1133 1056 1224 c 128,-1,4
 941 1315 941 1315 780 1315 c 0,5,6
 645 1315 645 1315 536 1246.5 c 128,-1,7
 427 1178 427 1178 364.5 1028 c 128,-1,8
 302 878 302 878 302 655 c 0,9,10
 302 471 302 471 361 336 c 128,-1,11
 420 201 420 201 538.5 129 c 128,-1,12
 657 57 657 57 809 57 c 0,13,14
 941 57 941 57 1042 113.5 c 128,-1,15
 1143 170 1143 170 1264 338 c 1,16,-1
 1295 318 l 1,17,18
 1193 137 1193 137 1057 53 c 128,-1,19
 921 -31 921 -31 734 -31 c 0,20,21
 397 -31 397 -31 212 219 c 0,22,23
 74 405 74 405 74 657 c 0,24,25
 74 860 74 860 165 1030 c 128,-1,26
 256 1200 256 1200 415.5 1293.5 c 128,-1,27
 575 1387 575 1387 764 1387 c 0,28,29
 911 1387 911 1387 1054 1315 c 0,30,31
 1096 1293 1096 1293 1114 1293 c 0,32,33
 1141 1293 1141 1293 1161 1312 c 0,34,35
 1187 1339 1187 1339 1198 1387 c 1,36,-1
 1233 1387 l 1,0,-1
EndSplineSet
EndChar

StartChar: D
Encoding: 68 68 39
Width: 1479
GlyphClass: 1
Flags: W
LayerCount: 2
Fore
SplineSet
35 0 m 1,0,-1
 35 37 l 1,1,-1
 86 37 l 2,2,3
 172 37 172 37 208 92 c 0,4,5
 230 125 230 125 230 240 c 2,6,-1
 230 1116 l 2,7,8
 230 1243 230 1243 202 1275 c 0,9,10
 163 1319 163 1319 86 1319 c 2,11,-1
 35 1319 l 1,12,-1
 35 1356 l 1,13,-1
 587 1356 l 2,14,15
 891 1356 891 1356 1049.5 1287 c 128,-1,16
 1208 1218 1208 1218 1304.5 1057 c 128,-1,17
 1401 896 1401 896 1401 685 c 0,18,19
 1401 402 1401 402 1229 212 c 0,20,21
 1036 0 1036 0 641 0 c 2,22,-1
 35 0 l 1,0,-1
422 98 m 1,23,24
 549 70 549 70 635 70 c 0,25,26
 867 70 867 70 1020 233 c 128,-1,27
 1173 396 1173 396 1173 675 c 0,28,29
 1173 956 1173 956 1020 1118 c 128,-1,30
 867 1280 867 1280 627 1280 c 0,31,32
 537 1280 537 1280 422 1251 c 1,33,-1
 422 98 l 1,23,24
EndSplineSet
EndChar

StartChar: E
Encoding: 69 69 40
Width: 1251
GlyphClass: 1
Flags: W
LayerCount: 2
Fore
SplineSet
428 1282 m 1,0,-1
 428 746 l 1,1,-1
 726 746 l 2,2,3
 842 746 842 746 881 781 c 0,4,5
 933 827 933 827 939 943 c 1,6,-1
 976 943 l 1,7,-1
 976 471 l 1,8,-1
 939 471 l 1,9,10
 925 570 925 570 911 598 c 0,11,12
 893 633 893 633 852 653 c 128,-1,13
 811 673 811 673 726 673 c 2,14,-1
 428 673 l 1,15,-1
 428 226 l 2,16,17
 428 136 428 136 436 116.5 c 128,-1,18
 444 97 444 97 464 85.5 c 128,-1,19
 484 74 484 74 540 74 c 2,20,-1
 770 74 l 2,21,22
 885 74 885 74 937 90 c 128,-1,23
 989 106 989 106 1037 153 c 0,24,25
 1099 215 1099 215 1164 340 c 1,26,-1
 1204 340 l 1,27,-1
 1087 0 l 1,28,-1
 42 0 l 1,29,-1
 42 37 l 1,30,-1
 90 37 l 2,31,32
 138 37 138 37 181 60 c 0,33,34
 213 76 213 76 224.5 108 c 128,-1,35
 236 140 236 140 236 239 c 2,36,-1
 236 1120 l 2,37,38
 236 1249 236 1249 210 1279 c 0,39,40
 174 1319 174 1319 90 1319 c 2,41,-1
 42 1319 l 1,42,-1
 42 1356 l 1,43,-1
 1087 1356 l 1,44,-1
 1102 1059 l 1,45,-1
 1063 1059 l 1,46,47
 1042 1166 1042 1166 1016.5 1206 c 128,-1,48
 991 1246 991 1246 941 1267 c 0,49,50
 901 1282 901 1282 800 1282 c 2,51,-1
 428 1282 l 1,0,-1
EndSplineSet
EndChar

StartChar: F
Encoding: 70 70 41
Width: 1139
GlyphClass: 1
Flags: W
LayerCount: 2
Fore
SplineSet
419 1282 m 1,0,-1
 419 749 l 1,1,-1
 666 749 l 2,2,3
 751 749 751 749 790.5 786.5 c 128,-1,4
 830 824 830 824 843 935 c 1,5,-1
 880 935 l 1,6,-1
 880 476 l 1,7,-1
 843 476 l 1,8,9
 842 555 842 555 822.5 592 c 128,-1,10
 803 629 803 629 768.5 647.5 c 128,-1,11
 734 666 734 666 666 666 c 2,12,-1
 419 666 l 1,13,-1
 419 240 l 2,14,15
 419 137 419 137 432 104 c 0,16,17
 442 79 442 79 474 61 c 0,18,19
 518 37 518 37 566 37 c 2,20,-1
 615 37 l 1,21,-1
 615 0 l 1,22,-1
 33 0 l 1,23,-1
 33 37 l 1,24,-1
 81 37 l 2,25,26
 165 37 165 37 203 86 c 0,27,28
 227 118 227 118 227 240 c 2,29,-1
 227 1116 l 2,30,31
 227 1219 227 1219 214 1252 c 0,32,33
 204 1277 204 1277 173 1295 c 0,34,35
 130 1319 130 1319 81 1319 c 2,36,-1
 33 1319 l 1,37,-1
 33 1356 l 1,38,-1
 1042 1356 l 1,39,-1
 1055 1058 l 1,40,-1
 1020 1058 l 1,41,42
 994 1153 994 1153 959.5 1197.5 c 128,-1,43
 925 1242 925 1242 874.5 1262 c 128,-1,44
 824 1282 824 1282 718 1282 c 2,45,-1
 419 1282 l 1,0,-1
EndSplineSet
EndChar

StartChar: G
Encoding: 71 71 42
Width: 1479
GlyphClass: 1
Flags: W
LayerCount: 2
Fore
SplineSet
1257 1387 m 1,0,-1
 1292 959 l 1,1,-1
 1257 959 l 1,2,3
 1204 1119 1204 1119 1120 1200 c 0,4,5
 999 1317 999 1317 809 1317 c 0,6,7
 550 1317 550 1317 415 1112 c 0,8,9
 302 939 302 939 302 700 c 0,10,11
 302 506 302 506 377 346 c 128,-1,12
 452 186 452 186 573.5 111.5 c 128,-1,13
 695 37 695 37 823 37 c 0,14,15
 898 37 898 37 968 56 c 128,-1,16
 1038 75 1038 75 1103 112 c 1,17,-1
 1103 504 l 2,18,19
 1103 606 1103 606 1087.5 637.5 c 128,-1,20
 1072 669 1072 669 1039.5 685.5 c 128,-1,21
 1007 702 1007 702 925 702 c 1,22,-1
 925 740 l 1,23,-1
 1450 740 l 1,24,-1
 1450 702 l 1,25,-1
 1425 702 l 2,26,27
 1347 702 1347 702 1318 650 c 0,28,29
 1298 613 1298 613 1298 504 c 2,30,-1
 1298 89 l 1,31,32
 1183 27 1183 27 1071 -2 c 128,-1,33
 959 -31 959 -31 822 -31 c 0,34,35
 429 -31 429 -31 225 221 c 0,36,37
 72 410 72 410 72 657 c 0,38,39
 72 836 72 836 158 1000 c 0,40,41
 260 1195 260 1195 438 1300 c 0,42,43
 587 1387 587 1387 790 1387 c 0,44,45
 864 1387 864 1387 924.5 1375 c 128,-1,46
 985 1363 985 1363 1096 1322 c 0,47,48
 1152 1301 1152 1301 1171 1301 c 256,49,50
 1190 1301 1190 1301 1203.5 1318.5 c 128,-1,51
 1217 1336 1217 1336 1220 1387 c 1,52,-1
 1257 1387 l 1,0,-1
EndSplineSet
EndChar

StartChar: H
Encoding: 72 72 43
Width: 1479
GlyphClass: 1
Flags: W
LayerCount: 2
Fore
SplineSet
421 727 m 1,0,-1
 1051 727 l 1,1,-1
 1051 1115 l 2,2,3
 1051 1219 1051 1219 1038 1252 c 0,4,5
 1028 1277 1028 1277 996 1295 c 0,6,7
 953 1319 953 1319 905 1319 c 2,8,-1
 857 1319 l 1,9,-1
 857 1356 l 1,10,-1
 1437 1356 l 1,11,-1
 1437 1319 l 1,12,-1
 1389 1319 l 2,13,14
 1341 1319 1341 1319 1298 1296 c 0,15,16
 1266 1280 1266 1280 1254.5 1247.5 c 128,-1,17
 1243 1215 1243 1215 1243 1115 c 2,18,-1
 1243 240 l 2,19,20
 1243 137 1243 137 1256 104 c 0,21,22
 1266 79 1266 79 1297 61 c 0,23,24
 1341 37 1341 37 1389 37 c 2,25,-1
 1437 37 l 1,26,-1
 1437 0 l 1,27,-1
 857 0 l 1,28,-1
 857 37 l 1,29,-1
 905 37 l 2,30,31
 988 37 988 37 1026 86 c 0,32,33
 1051 118 1051 118 1051 240 c 2,34,-1
 1051 653 l 1,35,-1
 421 653 l 1,36,-1
 421 240 l 2,37,38
 421 137 421 137 434 104 c 0,39,40
 444 79 444 79 476 61 c 0,41,42
 519 37 519 37 567 37 c 2,43,-1
 616 37 l 1,44,-1
 616 0 l 1,45,-1
 35 0 l 1,46,-1
 35 37 l 1,47,-1
 83 37 l 2,48,49
 167 37 167 37 205 86 c 0,50,51
 229 118 229 118 229 240 c 2,52,-1
 229 1115 l 2,53,54
 229 1219 229 1219 216 1252 c 0,55,56
 206 1277 206 1277 175 1295 c 0,57,58
 131 1319 131 1319 83 1319 c 2,59,-1
 35 1319 l 1,60,-1
 35 1356 l 1,61,-1
 616 1356 l 1,62,-1
 616 1319 l 1,63,-1
 567 1319 l 2,64,65
 519 1319 519 1319 476 1296 c 0,66,67
 445 1280 445 1280 433 1247.5 c 128,-1,68
 421 1215 421 1215 421 1115 c 2,69,-1
 421 727 l 1,0,-1
EndSplineSet
EndChar

StartChar: I
Encoding: 73 73 44
Width: 682
GlyphClass: 1
Flags: W
LayerCount: 2
Fore
SplineSet
632 37 m 1,0,-1
 632 0 l 1,1,-1
 51 0 l 1,2,-1
 51 37 l 1,3,-1
 99 37 l 2,4,5
 183 37 183 37 221 86 c 0,6,7
 245 118 245 118 245 240 c 2,8,-1
 245 1116 l 2,9,10
 245 1219 245 1219 232 1252 c 0,11,12
 222 1277 222 1277 191 1295 c 0,13,14
 147 1319 147 1319 99 1319 c 2,15,-1
 51 1319 l 1,16,-1
 51 1356 l 1,17,-1
 632 1356 l 1,18,-1
 632 1319 l 1,19,-1
 583 1319 l 2,20,21
 500 1319 500 1319 462 1270 c 0,22,23
 437 1238 437 1238 437 1116 c 2,24,-1
 437 240 l 2,25,26
 437 137 437 137 450 104 c 0,27,28
 460 79 460 79 492 61 c 0,29,30
 535 37 535 37 583 37 c 2,31,-1
 632 37 l 1,0,-1
EndSplineSet
EndChar

StartChar: J
Encoding: 74 74 45
Width: 797
GlyphClass: 1
Flags: W
LayerCount: 2
Fore
SplineSet
204 1319 m 1,0,-1
 204 1356 l 1,1,-1
 785 1356 l 1,2,-1
 785 1319 l 1,3,-1
 736 1319 l 2,4,5
 653 1319 653 1319 615 1270 c 0,6,7
 591 1238 591 1238 591 1116 c 2,8,-1
 591 453 l 2,9,10
 591 300 591 300 557.5 205 c 128,-1,11
 524 110 524 110 442 39.5 c 128,-1,12
 360 -31 360 -31 244 -31 c 0,13,14
 150 -31 150 -31 96 15.5 c 128,-1,15
 42 62 42 62 42 122 c 0,16,17
 42 171 42 171 67 196 c 0,18,19
 100 227 100 227 144 227 c 0,20,21
 176 227 176 227 201.5 206 c 128,-1,22
 227 185 227 185 266 94 c 0,23,24
 289 40 289 40 325 40 c 0,25,26
 352 40 352 40 375.5 73 c 128,-1,27
 399 106 399 106 399 190 c 2,28,-1
 399 1116 l 2,29,30
 399 1219 399 1219 386 1252 c 0,31,32
 376 1277 376 1277 344 1295 c 0,33,34
 301 1319 301 1319 253 1319 c 2,35,-1
 204 1319 l 1,0,-1
EndSplineSet
EndChar

StartChar: K
Encoding: 75 75 46
Width: 1479
GlyphClass: 1
Flags: W
LayerCount: 2
Fore
SplineSet
612 752 m 1,0,-1
 1112 255 l 2,1,2
 1235 132 1235 132 1322 87.5 c 128,-1,3
 1409 43 1409 43 1496 37 c 1,4,-1
 1496 0 l 1,5,-1
 851 0 l 1,6,-1
 851 37 l 1,7,8
 909 37 909 37 934.5 56.5 c 128,-1,9
 960 76 960 76 960 100 c 256,10,11
 960 124 960 124 950.5 143 c 128,-1,12
 941 162 941 162 888 214 c 2,13,-1
 420 677 l 1,14,-1
 420 240 l 2,15,16
 420 137 420 137 433 104 c 0,17,18
 443 79 443 79 475 61 c 0,19,20
 518 37 518 37 566 37 c 2,21,-1
 612 37 l 1,22,-1
 612 0 l 1,23,-1
 34 0 l 1,24,-1
 34 37 l 1,25,-1
 82 37 l 2,26,27
 166 37 166 37 204 86 c 0,28,29
 228 118 228 118 228 240 c 2,30,-1
 228 1116 l 2,31,32
 228 1219 228 1219 215 1253 c 0,33,34
 205 1277 205 1277 174 1295 c 0,35,36
 130 1319 130 1319 82 1319 c 2,37,-1
 34 1319 l 1,38,-1
 34 1356 l 1,39,-1
 612 1356 l 1,40,-1
 612 1319 l 1,41,-1
 566 1319 l 2,42,43
 519 1319 519 1319 475 1296 c 0,44,45
 444 1280 444 1280 432 1248 c 128,-1,46
 420 1216 420 1216 420 1116 c 2,47,-1
 420 701 l 1,48,49
 440 720 440 720 557 828 c 0,50,51
 854 1100 854 1100 916 1191 c 0,52,53
 943 1231 943 1231 943 1261 c 0,54,55
 943 1284 943 1284 922 1301.5 c 128,-1,56
 901 1319 901 1319 851 1319 c 2,57,-1
 820 1319 l 1,58,-1
 820 1356 l 1,59,-1
 1318 1356 l 1,60,-1
 1318 1319 l 1,61,62
 1274 1318 1274 1318 1238 1307 c 128,-1,63
 1202 1296 1202 1296 1150 1264.5 c 128,-1,64
 1098 1233 1098 1233 1022 1163 c 0,65,66
 1000 1143 1000 1143 819 958 c 2,67,-1
 612 752 l 1,0,-1
EndSplineSet
EndChar

StartChar: L
Encoding: 76 76 47
Width: 1251
GlyphClass: 1
Flags: W
LayerCount: 2
Fore
SplineSet
1174 375 m 1,0,-1
 1207 368 l 1,1,-1
 1091 0 l 1,2,-1
 41 0 l 1,3,-1
 41 37 l 1,4,-1
 92 37 l 2,5,6
 178 37 178 37 215 93 c 0,7,8
 236 125 236 125 236 241 c 2,9,-1
 236 1116 l 2,10,11
 236 1243 236 1243 208 1275 c 0,12,13
 169 1319 169 1319 92 1319 c 2,14,-1
 41 1319 l 1,15,-1
 41 1356 l 1,16,-1
 655 1356 l 1,17,-1
 655 1319 l 1,18,19
 547 1320 547 1320 503.5 1299 c 128,-1,20
 460 1278 460 1278 444 1246 c 128,-1,21
 428 1214 428 1214 428 1093 c 2,22,-1
 428 241 l 2,23,24
 428 158 428 158 444 127 c 0,25,26
 456 106 456 106 481 96 c 128,-1,27
 506 86 506 86 637 86 c 2,28,-1
 736 86 l 2,29,30
 892 86 892 86 955 109 c 128,-1,31
 1018 132 1018 132 1070 190.5 c 128,-1,32
 1122 249 1122 249 1174 375 c 1,0,-1
EndSplineSet
EndChar

StartChar: M
Encoding: 77 77 48
Width: 1821
GlyphClass: 1
Flags: W
LayerCount: 2
Fore
SplineSet
838 0 m 1,0,-1
 314 1141 l 1,1,-1
 314 235 l 2,2,3
 314 110 314 110 341 79 c 0,4,5
 378 37 378 37 458 37 c 2,6,-1
 506 37 l 1,7,-1
 506 0 l 1,8,-1
 34 0 l 1,9,-1
 34 37 l 1,10,-1
 82 37 l 2,11,12
 168 37 168 37 204 89 c 0,13,14
 226 121 226 121 226 235 c 2,15,-1
 226 1121 l 2,16,17
 226 1211 226 1211 206 1251 c 0,18,19
 192 1280 192 1280 154.5 1299.5 c 128,-1,20
 117 1319 117 1319 34 1319 c 1,21,-1
 34 1356 l 1,22,-1
 418 1356 l 1,23,-1
 910 295 l 1,24,-1
 1394 1356 l 1,25,-1
 1778 1356 l 1,26,-1
 1778 1319 l 1,27,-1
 1731 1319 l 2,28,29
 1644 1319 1644 1319 1608 1267 c 0,30,31
 1586 1235 1586 1235 1586 1121 c 2,32,-1
 1586 235 l 2,33,34
 1586 110 1586 110 1614 79 c 0,35,36
 1651 37 1651 37 1731 37 c 2,37,-1
 1778 37 l 1,38,-1
 1778 0 l 1,39,-1
 1202 0 l 1,40,-1
 1202 37 l 1,41,-1
 1250 37 l 2,42,43
 1337 37 1337 37 1372 89 c 0,44,45
 1394 121 1394 121 1394 235 c 2,46,-1
 1394 1141 l 1,47,-1
 871 0 l 1,48,-1
 838 0 l 1,0,-1
EndSplineSet
EndChar

StartChar: N
Encoding: 78 78 49
Width: 1479
GlyphClass: 1
Flags: W
LayerCount: 2
Fore
SplineSet
-27 1356 m 1,0,-1
 341 1356 l 1,1,-1
 1170 339 l 1,2,-1
 1170 1121 l 2,3,4
 1170 1246 1170 1246 1142 1277 c 0,5,6
 1105 1319 1105 1319 1025 1319 c 2,7,-1
 978 1319 l 1,8,-1
 978 1356 l 1,9,-1
 1450 1356 l 1,10,-1
 1450 1319 l 1,11,-1
 1402 1319 l 2,12,13
 1316 1319 1316 1319 1280 1267 c 0,14,15
 1258 1235 1258 1235 1258 1121 c 2,16,-1
 1258 -22 l 1,17,-1
 1222 -22 l 1,18,-1
 328 1070 l 1,19,-1
 328 235 l 2,20,21
 328 110 328 110 355 79 c 0,22,23
 393 37 393 37 472 37 c 2,24,-1
 520 37 l 1,25,-1
 520 0 l 1,26,-1
 48 0 l 1,27,-1
 48 37 l 1,28,-1
 95 37 l 2,29,30
 182 37 182 37 218 89 c 0,31,32
 240 121 240 121 240 235 c 2,33,-1
 240 1178 l 1,34,35
 181 1247 181 1247 150.5 1269 c 128,-1,36
 120 1291 120 1291 61 1310 c 0,37,38
 32 1319 32 1319 -27 1319 c 1,39,-1
 -27 1356 l 1,0,-1
EndSplineSet
EndChar

StartChar: O
Encoding: 79 79 50
Width: 1479
GlyphClass: 1
Flags: W
LayerCount: 2
Fore
SplineSet
749 1387 m 0,0,1
 1013 1387 1013 1387 1206.5 1186.5 c 128,-1,2
 1400 986 1400 986 1400 686 c 0,3,4
 1400 377 1400 377 1205 173 c 128,-1,5
 1010 -31 1010 -31 733 -31 c 0,6,7
 453 -31 453 -31 262.5 168 c 128,-1,8
 72 367 72 367 72 683 c 0,9,10
 72 1006 72 1006 292 1210 c 0,11,12
 483 1387 483 1387 749 1387 c 0,0,1
730 1314 m 0,13,14
 548 1314 548 1314 438 1179 c 0,15,16
 301 1011 301 1011 301 687 c 0,17,18
 301 355 301 355 443 176 c 0,19,20
 552 40 552 40 731 40 c 0,21,22
 922 40 922 40 1046.5 189 c 128,-1,23
 1171 338 1171 338 1171 659 c 0,24,25
 1171 1007 1171 1007 1034 1178 c 0,26,27
 924 1314 924 1314 730 1314 c 0,13,14
EndSplineSet
EndChar

StartChar: P
Encoding: 80 80 51
Width: 1139
GlyphClass: 1
Flags: W
LayerCount: 2
Fore
SplineSet
420 635 m 1,0,-1
 420 240 l 2,1,2
 420 112 420 112 448 81 c 0,3,4
 486 37 486 37 563 37 c 2,5,-1
 615 37 l 1,6,-1
 615 0 l 1,7,-1
 34 0 l 1,8,-1
 34 37 l 1,9,-1
 85 37 l 2,10,11
 171 37 171 37 208 93 c 0,12,13
 228 124 228 124 228 240 c 2,14,-1
 228 1116 l 2,15,16
 228 1244 228 1244 201 1275 c 0,17,18
 162 1319 162 1319 85 1319 c 2,19,-1
 34 1319 l 1,20,-1
 34 1356 l 1,21,-1
 531 1356 l 2,22,23
 713 1356 713 1356 818 1318.5 c 128,-1,24
 923 1281 923 1281 995 1192 c 128,-1,25
 1067 1103 1067 1103 1067 981 c 0,26,27
 1067 815 1067 815 957.5 711 c 128,-1,28
 848 607 848 607 648 607 c 0,29,30
 599 607 599 607 542 614 c 128,-1,31
 485 621 485 621 420 635 c 1,0,-1
420 692 m 1,32,33
 473 682 473 682 514 677 c 128,-1,34
 555 672 555 672 584 672 c 0,35,36
 688 672 688 672 763.5 752.5 c 128,-1,37
 839 833 839 833 839 961 c 0,38,39
 839 1049 839 1049 803 1124.5 c 128,-1,40
 767 1200 767 1200 701 1237.5 c 128,-1,41
 635 1275 635 1275 551 1275 c 0,42,43
 500 1275 500 1275 420 1256 c 1,44,-1
 420 692 l 1,32,33
EndSplineSet
EndChar

StartChar: Q
Encoding: 81 81 52
Width: 1479
GlyphClass: 1
Flags: W
LayerCount: 2
Fore
SplineSet
902 -15 m 1,0,1
 1004 -191 1004 -191 1122.5 -274 c 128,-1,2
 1241 -357 1241 -357 1392 -369 c 1,3,-1
 1392 -401 l 1,4,5
 1254 -396 1254 -396 1097 -345.5 c 128,-1,6
 940 -295 940 -295 799.5 -205.5 c 128,-1,7
 659 -116 659 -116 557 -15 c 1,8,9
 413 43 413 43 329 108 c 0,10,11
 207 205 207 205 139.5 346.5 c 128,-1,12
 72 488 72 488 72 681 c 0,13,14
 72 985 72 985 269 1186 c 128,-1,15
 466 1387 466 1387 746 1387 c 0,16,17
 1012 1387 1012 1387 1206.5 1185.5 c 128,-1,18
 1401 984 1401 984 1401 677 c 0,19,20
 1401 428 1401 428 1262.5 240 c 128,-1,21
 1124 52 1124 52 902 -15 c 1,0,1
734 1310 m 0,22,23
 552 1310 552 1310 441 1180 c 0,24,25
 301 1017 301 1017 301 681 c 0,26,27
 301 352 301 352 443 174 c 0,28,29
 553 37 553 37 734 37 c 0,30,31
 922 37 922 37 1037 174 c 0,32,33
 1172 336 1172 336 1172 652 c 0,34,35
 1172 895 1172 895 1098 1061 c 0,36,37
 1041 1189 1041 1189 946.5 1249.5 c 128,-1,38
 852 1310 852 1310 734 1310 c 0,22,23
EndSplineSet
EndChar

StartChar: R
Encoding: 82 82 53
Width: 1366
GlyphClass: 1
Flags: W
LayerCount: 2
Fore
SplineSet
1384 0 m 1,0,-1
 1022 0 l 1,1,-1
 563 634 l 1,2,3
 512 632 512 632 480 632 c 0,4,5
 467 632 467 632 452 632.5 c 128,-1,6
 437 633 437 633 421 634 c 1,7,-1
 421 240 l 2,8,9
 421 112 421 112 449 81 c 0,10,11
 487 37 487 37 563 37 c 2,12,-1
 616 37 l 1,13,-1
 616 0 l 1,14,-1
 35 0 l 1,15,-1
 35 37 l 1,16,-1
 86 37 l 2,17,18
 172 37 172 37 209 93 c 0,19,20
 230 124 230 124 230 240 c 2,21,-1
 230 1116 l 2,22,23
 230 1244 230 1244 202 1275 c 0,24,25
 163 1319 163 1319 86 1319 c 2,26,-1
 35 1319 l 1,27,-1
 35 1356 l 1,28,-1
 529 1356 l 2,29,30
 745 1356 745 1356 847.5 1324.5 c 128,-1,31
 950 1293 950 1293 1021.5 1208.5 c 128,-1,32
 1093 1124 1093 1124 1093 1007 c 0,33,34
 1093 882 1093 882 1011.5 790 c 128,-1,35
 930 698 930 698 759 660 c 1,36,-1
 1039 271 l 2,37,38
 1135 137 1135 137 1204 93 c 128,-1,39
 1273 49 1273 49 1384 37 c 1,40,-1
 1384 0 l 1,0,-1
421 697 m 1,41,42
 440 697 440 697 454 696.5 c 128,-1,43
 468 696 468 696 477 696 c 0,44,45
 671 696 671 696 769.5 780 c 128,-1,46
 868 864 868 864 868 994 c 0,47,48
 868 1121 868 1121 788.5 1200.5 c 128,-1,49
 709 1280 709 1280 578 1280 c 0,50,51
 520 1280 520 1280 421 1261 c 1,52,-1
 421 697 l 1,41,42
EndSplineSet
EndChar

StartChar: S
Encoding: 83 83 54
Width: 1139
GlyphClass: 1
Flags: W
LayerCount: 2
Fore
SplineSet
939 1387 m 1,0,-1
 939 918 l 1,1,-1
 902 918 l 1,2,3
 884 1053 884 1053 837.5 1133 c 128,-1,4
 791 1213 791 1213 705 1260 c 128,-1,5
 619 1307 619 1307 527 1307 c 0,6,7
 423 1307 423 1307 355 1243.5 c 128,-1,8
 287 1180 287 1180 287 1099 c 0,9,10
 287 1037 287 1037 330 986 c 0,11,12
 392 911 392 911 625 786 c 0,13,14
 815 684 815 684 884.5 629.5 c 128,-1,15
 954 575 954 575 991.5 501 c 128,-1,16
 1029 427 1029 427 1029 346 c 0,17,18
 1029 192 1029 192 909.5 80.5 c 128,-1,19
 790 -31 790 -31 602 -31 c 0,20,21
 543 -31 543 -31 491 -22 c 0,22,23
 460 -17 460 -17 362.5 14.5 c 128,-1,24
 265 46 265 46 239 46 c 0,25,26
 214 46 214 46 199.5 31 c 128,-1,27
 185 16 185 16 178 -31 c 1,28,-1
 141 -31 l 1,29,-1
 141 434 l 1,30,-1
 178 434 l 1,31,32
 204 288 204 288 248 215.5 c 128,-1,33
 292 143 292 143 382.5 95 c 128,-1,34
 473 47 473 47 581 47 c 0,35,36
 706 47 706 47 778.5 113 c 128,-1,37
 851 179 851 179 851 269 c 0,38,39
 851 319 851 319 823.5 370 c 128,-1,40
 796 421 796 421 738 465 c 0,41,42
 699 495 699 495 525 592.5 c 128,-1,43
 351 690 351 690 277.5 748 c 128,-1,44
 204 806 204 806 166 876 c 128,-1,45
 128 946 128 946 128 1030 c 0,46,47
 128 1176 128 1176 240 1281.5 c 128,-1,48
 352 1387 352 1387 525 1387 c 0,49,50
 633 1387 633 1387 754 1334 c 0,51,52
 810 1309 810 1309 833 1309 c 0,53,54
 859 1309 859 1309 875.5 1324.5 c 128,-1,55
 892 1340 892 1340 902 1387 c 1,56,-1
 939 1387 l 1,0,-1
EndSplineSet
EndChar

StartChar: T
Encoding: 84 84 55
Width: 1251
GlyphClass: 1
Flags: W
LayerCount: 2
Fore
SplineSet
1185 1356 m 1,0,-1
 1200 1038 l 1,1,-1
 1162 1038 l 1,2,3
 1151 1122 1151 1122 1132 1158 c 0,4,5
 1101 1216 1101 1216 1049.5 1243.5 c 128,-1,6
 998 1271 998 1271 914 1271 c 2,7,-1
 723 1271 l 1,8,-1
 723 235 l 2,9,10
 723 110 723 110 750 79 c 0,11,12
 788 37 788 37 867 37 c 2,13,-1
 914 37 l 1,14,-1
 914 0 l 1,15,-1
 339 0 l 1,16,-1
 339 37 l 1,17,-1
 387 37 l 2,18,19
 473 37 473 37 509 89 c 0,20,21
 531 121 531 121 531 235 c 2,22,-1
 531 1271 l 1,23,-1
 368 1271 l 2,24,25
 273 1271 273 1271 233 1257 c 0,26,27
 181 1238 181 1238 144 1184 c 128,-1,28
 107 1130 107 1130 100 1038 c 1,29,-1
 62 1038 l 1,30,-1
 78 1356 l 1,31,-1
 1185 1356 l 1,0,-1
EndSplineSet
EndChar

StartChar: U
Encoding: 85 85 56
Width: 1479
GlyphClass: 1
Flags: W
LayerCount: 2
Fore
SplineSet
977 1319 m 1,0,-1
 977 1356 l 1,1,-1
 1457 1356 l 1,2,-1
 1457 1319 l 1,3,-1
 1406 1319 l 2,4,5
 1326 1319 1326 1319 1283 1252 c 0,6,7
 1262 1221 1262 1221 1262 1108 c 2,8,-1
 1262 558 l 2,9,10
 1262 354 1262 354 1221.5 241.5 c 128,-1,11
 1181 129 1181 129 1062.5 48.5 c 128,-1,12
 944 -32 944 -32 740 -32 c 0,13,14
 518 -32 518 -32 403 45 c 128,-1,15
 288 122 288 122 240 252 c 0,16,17
 208 341 208 341 208 586 c 2,18,-1
 208 1116 l 2,19,20
 208 1241 208 1241 173.5 1280 c 128,-1,21
 139 1319 139 1319 62 1319 c 2,22,-1
 11 1319 l 1,23,-1
 11 1356 l 1,24,-1
 597 1356 l 1,25,-1
 597 1319 l 1,26,-1
 545 1319 l 2,27,28
 461 1319 461 1319 425 1266 c 0,29,30
 400 1230 400 1230 400 1116 c 2,31,-1
 400 525 l 2,32,33
 400 446 400 446 414.5 344 c 128,-1,34
 429 242 429 242 467 185 c 128,-1,35
 505 128 505 128 576.5 91 c 128,-1,36
 648 54 648 54 752 54 c 0,37,38
 885 54 885 54 990 112 c 128,-1,39
 1095 170 1095 170 1133.5 260.5 c 128,-1,40
 1172 351 1172 351 1172 567 c 2,41,-1
 1172 1116 l 2,42,43
 1172 1243 1172 1243 1144 1275 c 0,44,45
 1105 1319 1105 1319 1028 1319 c 2,46,-1
 977 1319 l 1,0,-1
EndSplineSet
EndChar

StartChar: V
Encoding: 86 86 57
Width: 1479
GlyphClass: 1
Flags: W
LayerCount: 2
Fore
SplineSet
1454 1356 m 1,0,-1
 1454 1319 l 1,1,2
 1382 1306 1382 1306 1345 1273 c 0,3,4
 1292 1224 1292 1224 1251 1123 c 2,5,-1
 778 -31 l 1,6,-1
 741 -31 l 1,7,-1
 233 1138 l 2,8,9
 194 1228 194 1228 178 1248 c 0,10,11
 153 1279 153 1279 116.5 1296.5 c 128,-1,12
 80 1314 80 1314 18 1319 c 1,13,-1
 18 1356 l 1,14,-1
 572 1356 l 1,15,-1
 572 1319 l 1,16,17
 478 1310 478 1310 450 1287 c 128,-1,18
 422 1264 422 1264 422 1228 c 0,19,20
 422 1178 422 1178 468 1072 c 2,21,-1
 813 277 l 1,22,-1
 1133 1062 l 2,23,24
 1180 1178 1180 1178 1180 1223 c 0,25,26
 1180 1252 1180 1252 1151 1278.5 c 128,-1,27
 1122 1305 1122 1305 1053 1316 c 0,28,29
 1048 1317 1048 1317 1036 1319 c 1,30,-1
 1036 1356 l 1,31,-1
 1454 1356 l 1,0,-1
EndSplineSet
EndChar

StartChar: W
Encoding: 87 87 58
Width: 1933
GlyphClass: 1
Flags: W
LayerCount: 2
Fore
SplineSet
1917 1356 m 1,0,-1
 1917 1319 l 1,1,2
 1864 1319 1864 1319 1831 1300 c 128,-1,3
 1798 1281 1798 1281 1768 1229 c 0,4,5
 1748 1194 1748 1194 1705 1062 c 2,6,-1
 1327 -31 l 1,7,-1
 1287 -31 l 1,8,-1
 978 836 l 1,9,-1
 671 -31 l 1,10,-1
 635 -31 l 1,11,-1
 232 1095 l 2,12,13
 187 1221 187 1221 175 1244 c 0,14,15
 155 1282 155 1282 120.5 1300.5 c 128,-1,16
 86 1319 86 1319 27 1319 c 1,17,-1
 27 1356 l 1,18,-1
 529 1356 l 1,19,-1
 529 1319 l 1,20,-1
 505 1319 l 2,21,22
 452 1319 452 1319 424 1295 c 128,-1,23
 396 1271 396 1271 396 1237 c 0,24,25
 396 1202 396 1202 440 1076 c 2,26,-1
 707 315 l 1,27,-1
 932 962 l 1,28,-1
 892 1076 l 1,29,-1
 860 1167 l 2,30,31
 839 1217 839 1217 813 1255 c 0,32,33
 800 1274 800 1274 781 1287 c 0,34,35
 756 1305 756 1305 731 1313 c 0,36,37
 712 1319 712 1319 671 1319 c 1,38,-1
 671 1356 l 1,39,-1
 1199 1356 l 1,40,-1
 1199 1319 l 1,41,-1
 1163 1319 l 2,42,43
 1107 1319 1107 1319 1081 1295 c 128,-1,44
 1055 1271 1055 1271 1055 1230 c 0,45,46
 1055 1179 1055 1179 1100 1052 c 2,47,-1
 1360 315 l 1,48,-1
 1618 1062 l 2,49,50
 1662 1186 1662 1186 1662 1234 c 0,51,52
 1662 1257 1662 1257 1647.5 1277 c 128,-1,53
 1633 1297 1633 1297 1611 1305 c 0,54,55
 1573 1319 1573 1319 1512 1319 c 1,56,-1
 1512 1356 l 1,57,-1
 1917 1356 l 1,0,-1
EndSplineSet
EndChar

StartChar: X
Encoding: 88 88 59
Width: 1479
GlyphClass: 1
Flags: W
LayerCount: 2
Fore
SplineSet
836 751 m 1,0,-1
 1127 317 l 2,1,2
 1248 137 1248 137 1306.5 89.5 c 128,-1,3
 1365 42 1365 42 1455 37 c 1,4,-1
 1455 0 l 1,5,-1
 873 0 l 1,6,-1
 873 37 l 1,7,8
 931 38 931 38 959 49 c 0,9,10
 980 58 980 58 993.5 76.5 c 128,-1,11
 1007 95 1007 95 1007 114 c 0,12,13
 1007 137 1007 137 998 160 c 0,14,15
 991 177 991 177 943 248 c 2,16,-1
 713 596 l 1,17,-1
 429 232 l 2,18,19
 384 174 384 174 375 154.5 c 128,-1,20
 366 135 366 135 366 114 c 0,21,22
 366 82 366 82 393 61 c 128,-1,23
 420 40 420 40 496 37 c 1,24,-1
 496 0 l 1,25,-1
 15 0 l 1,26,-1
 15 37 l 1,27,28
 66 42 66 42 103 58 c 0,29,30
 165 84 165 84 221 128 c 128,-1,31
 277 172 277 172 349 263 c 2,32,-1
 669 667 l 1,33,-1
 402 1058 l 2,34,35
 293 1217 293 1217 217 1266.5 c 128,-1,36
 141 1316 141 1316 42 1319 c 1,37,-1
 42 1356 l 1,38,-1
 669 1356 l 1,39,-1
 669 1319 l 1,40,41
 589 1316 589 1316 559.5 1293 c 128,-1,42
 530 1270 530 1270 530 1242 c 0,43,44
 530 1205 530 1205 578 1134 c 2,45,-1
 786 823 l 1,46,-1
 1027 1128 l 2,47,48
 1069 1182 1069 1182 1078.5 1202 c 128,-1,49
 1088 1222 1088 1222 1088 1243 c 256,50,51
 1088 1264 1088 1264 1076 1280 c 0,52,53
 1061 1301 1061 1301 1038 1309.5 c 128,-1,54
 1015 1318 1015 1318 943 1319 c 1,55,-1
 943 1356 l 1,56,-1
 1424 1356 l 1,57,-1
 1424 1319 l 1,58,59
 1367 1316 1367 1316 1331 1301 c 0,60,61
 1277 1278 1277 1278 1232 1239 c 128,-1,62
 1187 1200 1187 1200 1105 1095 c 2,63,-1
 836 751 l 1,0,-1
EndSplineSet
EndChar

StartChar: Y
Encoding: 89 89 60
Width: 1479
GlyphClass: 1
Flags: W
LayerCount: 2
Fore
SplineSet
976 1356 m 1,0,-1
 1449 1356 l 1,1,-1
 1449 1319 l 1,2,-1
 1423 1319 l 2,3,4
 1397 1319 1397 1319 1347 1296 c 128,-1,5
 1297 1273 1297 1273 1256 1230 c 128,-1,6
 1215 1187 1215 1187 1155 1090 c 2,7,-1
 828 575 l 1,8,-1
 828 235 l 2,9,10
 828 110 828 110 856 79 c 0,11,12
 894 37 894 37 976 37 c 2,13,-1
 1020 37 l 1,14,-1
 1020 0 l 1,15,-1
 444 0 l 1,16,-1
 444 37 l 1,17,-1
 492 37 l 2,18,19
 578 37 578 37 614 89 c 0,20,21
 636 121 636 121 636 235 c 2,22,-1
 636 556 l 1,23,-1
 264 1124 l 2,24,25
 198 1224 198 1224 174.5 1249 c 128,-1,26
 151 1274 151 1274 77 1309 c 0,27,28
 57 1319 57 1319 19 1319 c 1,29,-1
 19 1356 l 1,30,-1
 599 1356 l 1,31,-1
 599 1319 l 1,32,-1
 569 1319 l 2,33,34
 522 1319 522 1319 482.5 1297 c 128,-1,35
 443 1275 443 1275 443 1231 c 0,36,37
 443 1195 443 1195 504 1101 c 2,38,-1
 787 664 l 1,39,-1
 1053 1082 l 2,40,41
 1113 1176 1113 1176 1113 1222 c 0,42,43
 1113 1250 1113 1250 1098.5 1272 c 128,-1,44
 1084 1294 1084 1294 1057 1306.5 c 128,-1,45
 1030 1319 1030 1319 976 1319 c 1,46,-1
 976 1356 l 1,0,-1
EndSplineSet
EndChar

StartChar: Z
Encoding: 90 90 61
Width: 1251
GlyphClass: 1
Flags: W
LayerCount: 2
Fore
SplineSet
1178 1356 m 1,0,-1
 287 82 l 1,1,-1
 843 82 l 2,2,3
 971 82 971 82 1039.5 138 c 128,-1,4
 1108 194 1108 194 1161 365 c 1,5,-1
 1194 359 l 1,6,-1
 1130 0 l 1,7,-1
 26 0 l 1,8,-1
 26 37 l 1,9,-1
 896 1275 l 1,10,-1
 462 1275 l 2,11,12
 354 1275 354 1275 305.5 1251.5 c 128,-1,13
 257 1228 257 1228 231.5 1183.5 c 128,-1,14
 206 1139 206 1139 185 1017 c 1,15,-1
 147 1017 l 1,16,-1
 175 1356 l 1,17,-1
 1178 1356 l 1,0,-1
EndSplineSet
EndChar

StartChar: bracketleft
Encoding: 91 91 62
Width: 682
GlyphClass: 1
Flags: W
LayerCount: 2
Fore
SplineSet
608 -406 m 1,0,-1
 168 -406 l 1,1,-1
 168 1387 l 1,2,-1
 608 1387 l 1,3,-1
 608 1308 l 1,4,-1
 318 1308 l 1,5,-1
 318 -328 l 1,6,-1
 608 -328 l 1,7,-1
 608 -406 l 1,0,-1
EndSplineSet
EndChar

StartChar: backslash
Encoding: 92 92 63
Width: 569
GlyphClass: 1
Flags: W
LayerCount: 2
Fore
SplineSet
83 1422 m 1,0,-1
 573 -28 l 1,1,-1
 493 -28 l 1,2,-1
 3 1422 l 1,3,-1
 83 1422 l 1,0,-1
EndSplineSet
EndChar

StartChar: bracketright
Encoding: 93 93 64
Width: 682
GlyphClass: 1
Flags: W
LayerCount: 2
Fore
SplineSet
75 1387 m 1,0,-1
 515 1387 l 1,1,-1
 515 -407 l 1,2,-1
 75 -407 l 1,3,-1
 75 -328 l 1,4,-1
 365 -328 l 1,5,-1
 365 1308 l 1,6,-1
 75 1308 l 1,7,-1
 75 1387 l 1,0,-1
EndSplineSet
EndChar

StartChar: asciicircum
Encoding: 94 94 65
Width: 961
GlyphClass: 1
Flags: W
LayerCount: 2
Fore
SplineSet
498 1384 m 1,0,-1
 923 667 l 1,1,-1
 831 667 l 1,2,-1
 481 1253 l 1,3,-1
 131 667 l 1,4,-1
 37 667 l 1,5,-1
 468 1384 l 1,6,-1
 498 1384 l 1,0,-1
EndSplineSet
EndChar

StartChar: underscore
Encoding: 95 95 66
Width: 1024
GlyphClass: 1
Flags: W
LayerCount: 2
Fore
SplineSet
1042 -442 m 1,0,-1
 -17 -442 l 1,1,-1
 -17 -358 l 1,2,-1
 1042 -358 l 1,3,-1
 1042 -442 l 1,0,-1
EndSplineSet
EndChar

StartChar: grave
Encoding: 96 96 67
Width: 682
GlyphClass: 1
Flags: W
LayerCount: 2
Fore
SplineSet
118 1390 m 1,0,-1
 341 1390 l 1,1,-1
 447 1045 l 1,2,-1
 412 1045 l 1,3,-1
 118 1390 l 1,0,-1
EndSplineSet
EndChar

StartChar: a
Encoding: 97 97 68
Width: 909
GlyphClass: 1
Flags: W
LayerCount: 2
Fore
SplineSet
583 132 m 1,0,1
 442 23 442 23 406 6 c 0,2,3
 352 -19 352 -19 291 -19 c 0,4,5
 196 -19 196 -19 134.5 46 c 128,-1,6
 73 111 73 111 73 217 c 0,7,8
 73 284 73 284 103 333 c 0,9,10
 144 401 144 401 245.5 461 c 128,-1,11
 347 521 347 521 583 607 c 1,12,-1
 583 643 l 2,13,14
 583 780 583 780 539.5 831 c 128,-1,15
 496 882 496 882 413 882 c 0,16,17
 350 882 350 882 313 848 c 0,18,19
 275 814 275 814 275 770 c 2,20,-1
 277 712 l 2,21,22
 277 666 277 666 253.5 641 c 128,-1,23
 230 616 230 616 192 616 c 0,24,25
 155 616 155 616 131.5 642 c 128,-1,26
 108 668 108 668 108 713 c 0,27,28
 108 799 108 799 196 871 c 128,-1,29
 284 943 284 943 443 943 c 0,30,31
 565 943 565 943 643 902 c 0,32,33
 702 871 702 871 730 805 c 0,34,35
 748 762 748 762 748 629 c 2,36,-1
 748 318 l 2,37,38
 748 187 748 187 753 157.5 c 128,-1,39
 758 128 758 128 769.5 118 c 128,-1,40
 781 108 781 108 796 108 c 0,41,42
 812 108 812 108 824 115 c 0,43,44
 845 128 845 128 905 188 c 1,45,-1
 905 132 l 1,46,47
 793 -18 793 -18 691 -18 c 0,48,49
 642 -18 642 -18 613 16 c 128,-1,50
 584 50 584 50 583 132 c 1,0,1
583 197 m 1,51,-1
 583 546 l 1,52,53
 432 486 432 486 388 461 c 0,54,55
 309 417 309 417 275 369 c 128,-1,56
 241 321 241 321 241 264 c 0,57,58
 241 192 241 192 284 144.5 c 128,-1,59
 327 97 327 97 383 97 c 0,60,61
 459 97 459 97 583 197 c 1,51,-1
EndSplineSet
EndChar

StartChar: b
Encoding: 98 98 69
Width: 1024
GlyphClass: 1
Flags: W
LayerCount: 2
Fore
SplineSet
315 758 m 1,0,1
 448 943 448 943 602 943 c 0,2,3
 743 943 743 943 848 822.5 c 128,-1,4
 953 702 953 702 953 493 c 0,5,6
 953 249 953 249 791 100 c 0,7,8
 652 -28 652 -28 481 -28 c 0,9,10
 401 -28 401 -28 318.5 1 c 128,-1,11
 236 30 236 30 150 88 c 1,12,-1
 150 1037 l 2,13,14
 150 1193 150 1193 142.5 1229 c 128,-1,15
 135 1265 135 1265 119 1278 c 128,-1,16
 103 1291 103 1291 79 1291 c 0,17,18
 51 1291 51 1291 9 1275 c 1,19,-1
 -5 1310 l 1,20,-1
 270 1422 l 1,21,-1
 315 1422 l 1,22,-1
 315 758 l 1,0,1
315 694 m 1,23,-1
 315 146 l 1,24,25
 366 96 366 96 420.5 70.5 c 128,-1,26
 475 45 475 45 532 45 c 0,27,28
 623 45 623 45 701.5 145 c 128,-1,29
 780 245 780 245 780 436 c 0,30,31
 780 612 780 612 701.5 706.5 c 128,-1,32
 623 801 623 801 523 801 c 0,33,34
 470 801 470 801 417 774 c 0,35,36
 377 754 377 754 315 694 c 1,23,-1
EndSplineSet
EndChar

StartChar: c
Encoding: 99 99 70
Width: 909
GlyphClass: 1
Flags: W
LayerCount: 2
Fore
SplineSet
842 348 m 1,0,1
 805 167 805 167 697 69.5 c 128,-1,2
 589 -28 589 -28 458 -28 c 0,3,4
 302 -28 302 -28 186 103 c 128,-1,5
 70 234 70 234 70 457 c 0,6,7
 70 673 70 673 198.5 808 c 128,-1,8
 327 943 327 943 507 943 c 0,9,10
 642 943 642 943 729 871.5 c 128,-1,11
 816 800 816 800 816 723 c 0,12,13
 816 685 816 685 791.5 661.5 c 128,-1,14
 767 638 767 638 723 638 c 0,15,16
 664 638 664 638 634 676 c 0,17,18
 617 697 617 697 611.5 756 c 128,-1,19
 606 815 606 815 571 846 c 0,20,21
 536 876 536 876 474 876 c 0,22,23
 374 876 374 876 313 802 c 0,24,25
 232 704 232 704 232 543 c 0,26,27
 232 379 232 379 312.5 253.5 c 128,-1,28
 393 128 393 128 530 128 c 0,29,30
 628 128 628 128 706 195 c 0,31,32
 761 241 761 241 813 362 c 1,33,-1
 842 348 l 1,0,1
EndSplineSet
EndChar

StartChar: d
Encoding: 100 100 71
Width: 1024
GlyphClass: 1
Flags: W
LayerCount: 2
Fore
SplineSet
711 103 m 1,0,1
 644 33 644 33 580 2.5 c 128,-1,2
 516 -28 516 -28 442 -28 c 0,3,4
 292 -28 292 -28 180 97.5 c 128,-1,5
 68 223 68 223 68 420 c 256,6,7
 68 617 68 617 192 780.5 c 128,-1,8
 316 944 316 944 511 944 c 0,9,10
 632 944 632 944 711 867 c 1,11,-1
 711 1036 l 2,12,13
 711 1193 711 1193 703.5 1229 c 128,-1,14
 696 1265 696 1265 680 1278 c 128,-1,15
 664 1291 664 1291 640 1291 c 0,16,17
 614 1291 614 1291 571 1275 c 1,18,-1
 558 1310 l 1,19,-1
 831 1422 l 1,20,-1
 876 1422 l 1,21,-1
 876 363 l 2,22,23
 876 202 876 202 883.5 166.5 c 128,-1,24
 891 131 891 131 907.5 117 c 128,-1,25
 924 103 924 103 946 103 c 0,26,27
 973 103 973 103 1018 120 c 1,28,-1
 1029 85 l 1,29,-1
 757 -28 l 1,30,-1
 711 -28 l 1,31,-1
 711 103 l 1,0,1
711 173 m 1,32,-1
 711 645 l 1,33,34
 705 713 705 713 675 769 c 128,-1,35
 645 825 645 825 595.5 853.5 c 128,-1,36
 546 882 546 882 499 882 c 0,37,38
 411 882 411 882 342 803 c 0,39,40
 251 699 251 699 251 499 c 0,41,42
 251 297 251 297 339 189.5 c 128,-1,43
 427 82 427 82 535 82 c 0,44,45
 626 82 626 82 711 173 c 1,32,-1
EndSplineSet
EndChar

StartChar: e
Encoding: 101 101 72
Width: 909
GlyphClass: 1
Flags: W
LayerCount: 2
Fore
SplineSet
218 571 m 1,0,1
 217 367 217 367 317 251 c 256,2,3
 417 135 417 135 552 135 c 0,4,5
 642 135 642 135 708.5 184.5 c 128,-1,6
 775 234 775 234 820 354 c 1,7,-1
 851 334 l 1,8,9
 830 197 830 197 729 84.5 c 128,-1,10
 628 -28 628 -28 476 -28 c 0,11,12
 311 -28 311 -28 193.5 100.5 c 128,-1,13
 76 229 76 229 76 446 c 0,14,15
 76 681 76 681 196.5 812.5 c 128,-1,16
 317 944 317 944 499 944 c 0,17,18
 653 944 653 944 752 842.5 c 128,-1,19
 851 741 851 741 851 571 c 1,20,-1
 218 571 l 1,0,1
218 629 m 1,21,-1
 642 629 l 1,22,23
 637 717 637 717 621 753 c 0,24,25
 596 809 596 809 546.5 841 c 128,-1,26
 497 873 497 873 443 873 c 0,27,28
 360 873 360 873 294.5 808.5 c 128,-1,29
 229 744 229 744 218 629 c 1,21,-1
EndSplineSet
EndChar

StartChar: f
Encoding: 102 102 73
Width: 682
GlyphClass: 1
Flags: W
LayerCount: 2
Fore
SplineSet
422 844 m 1,0,-1
 422 242 l 2,1,2
 422 114 422 114 450 80 c 0,3,4
 487 36 487 36 549 36 c 2,5,-1
 632 36 l 1,6,-1
 632 0 l 1,7,-1
 85 0 l 1,8,-1
 85 36 l 1,9,-1
 126 36 l 2,10,11
 166 36 166 36 199 56 c 128,-1,12
 232 76 232 76 244.5 110 c 128,-1,13
 257 144 257 144 257 242 c 2,14,-1
 257 844 l 1,15,-1
 79 844 l 1,16,-1
 79 916 l 1,17,-1
 257 916 l 1,18,-1
 257 976 l 2,19,20
 257 1113 257 1113 301 1208 c 128,-1,21
 345 1303 345 1303 435.5 1361.5 c 128,-1,22
 526 1420 526 1420 639 1420 c 0,23,24
 744 1420 744 1420 832 1352 c 0,25,26
 890 1307 890 1307 890 1251 c 0,27,28
 890 1221 890 1221 864 1194.5 c 128,-1,29
 838 1168 838 1168 808 1168 c 0,30,31
 785 1168 785 1168 759.5 1184.5 c 128,-1,32
 734 1201 734 1201 697 1255.5 c 128,-1,33
 660 1310 660 1310 629 1329 c 256,34,35
 598 1348 598 1348 560 1348 c 0,36,37
 514 1348 514 1348 482 1323.5 c 128,-1,38
 450 1299 450 1299 436 1247.5 c 128,-1,39
 422 1196 422 1196 422 982 c 2,40,-1
 422 916 l 1,41,-1
 658 916 l 1,42,-1
 658 844 l 1,43,-1
 422 844 l 1,0,-1
EndSplineSet
EndChar

StartChar: g
Encoding: 103 103 74
Width: 1024
GlyphClass: 1
Flags: W
LayerCount: 2
Fore
SplineSet
309 334 m 1,0,1
 225 375 225 375 180 448.5 c 128,-1,2
 135 522 135 522 135 611 c 0,3,4
 135 747 135 747 237.5 845 c 128,-1,5
 340 943 340 943 500 943 c 0,6,7
 631 943 631 943 727 879 c 1,8,-1
 921 879 l 2,9,10
 964 879 964 879 971 876.5 c 128,-1,11
 978 874 978 874 981 868 c 0,12,13
 987 859 987 859 987 836 c 0,14,15
 987 810 987 810 982 800 c 0,16,17
 979 795 979 795 971.5 792 c 128,-1,18
 964 789 964 789 921 789 c 2,19,-1
 802 789 l 1,20,21
 858 717 858 717 858 605 c 0,22,23
 858 477 858 477 760 386 c 128,-1,24
 662 295 662 295 497 295 c 0,25,26
 429 295 429 295 358 315 c 1,27,28
 314 277 314 277 298.5 248.5 c 128,-1,29
 283 220 283 220 283 200 c 0,30,31
 283 183 283 183 299.5 167 c 128,-1,32
 316 151 316 151 364 144 c 0,33,34
 392 140 392 140 504 137 c 0,35,36
 710 132 710 132 771 123 c 0,37,38
 864 110 864 110 919.5 54 c 128,-1,39
 975 -2 975 -2 975 -84 c 0,40,41
 975 -197 975 -197 869 -296 c 0,42,43
 713 -442 713 -442 462 -442 c 0,44,45
 269 -442 269 -442 136 -355 c 0,46,47
 61 -305 61 -305 61 -251 c 0,48,49
 61 -227 61 -227 72 -203 c 0,50,51
 89 -166 89 -166 142 -100 c 0,52,53
 149 -91 149 -91 244 8 c 1,54,55
 192 39 192 39 170.5 63.5 c 128,-1,56
 149 88 149 88 149 119 c 0,57,58
 149 154 149 154 177.5 201 c 128,-1,59
 206 248 206 248 309 334 c 1,0,1
483 895 m 0,60,61
 409 895 409 895 359 836 c 128,-1,62
 309 777 309 777 309 655 c 0,63,64
 309 497 309 497 377 410 c 0,65,66
 429 344 429 344 509 344 c 0,67,68
 585 344 585 344 634 401 c 128,-1,69
 683 458 683 458 683 580 c 0,70,71
 683 739 683 739 614 829 c 0,72,73
 563 895 563 895 483 895 c 0,60,61
299 0 m 1,74,75
 252 -51 252 -51 228 -95 c 128,-1,76
 204 -139 204 -139 204 -176 c 0,77,78
 204 -224 204 -224 262 -260 c 0,79,80
 362 -322 362 -322 551 -322 c 0,81,82
 731 -322 731 -322 816.5 -258.5 c 128,-1,83
 902 -195 902 -195 902 -123 c 0,84,85
 902 -71 902 -71 851 -49 c 0,86,87
 799 -27 799 -27 645 -23 c 0,88,89
 420 -17 420 -17 299 0 c 1,74,75
EndSplineSet
EndChar

StartChar: h
Encoding: 104 104 75
Width: 1024
GlyphClass: 1
Flags: W
LayerCount: 2
Fore
SplineSet
333 1422 m 1,0,-1
 333 752 l 1,1,2
 444 874 444 874 509 908.5 c 128,-1,3
 574 943 574 943 639 943 c 0,4,5
 717 943 717 943 773 900 c 128,-1,6
 829 857 829 857 856 765 c 0,7,8
 875 701 875 701 875 531 c 2,9,-1
 875 207 l 2,10,11
 875 120 875 120 889 88 c 0,12,13
 899 64 899 64 923 50 c 128,-1,14
 947 36 947 36 1011 36 c 1,15,-1
 1011 0 l 1,16,-1
 561 0 l 1,17,-1
 561 36 l 1,18,-1
 582 36 l 2,19,20
 646 36 646 36 671 55.5 c 128,-1,21
 696 75 696 75 706 113 c 0,22,23
 709 129 709 129 709 207 c 2,24,-1
 709 531 l 2,25,26
 709 681 709 681 693.5 728 c 128,-1,27
 678 775 678 775 644 798.5 c 128,-1,28
 610 822 610 822 562 822 c 0,29,30
 513 822 513 822 460 796 c 128,-1,31
 407 770 407 770 333 691 c 1,32,-1
 333 207 l 2,33,34
 333 113 333 113 343.5 90 c 128,-1,35
 354 67 354 67 382.5 51.5 c 128,-1,36
 411 36 411 36 481 36 c 1,37,-1
 481 0 l 1,38,-1
 27 0 l 1,39,-1
 27 36 l 1,40,41
 88 36 88 36 123 55 c 0,42,43
 143 65 143 65 155 93 c 128,-1,44
 167 121 167 121 167 207 c 2,45,-1
 167 1036 l 2,46,47
 167 1193 167 1193 159.5 1229 c 128,-1,48
 152 1265 152 1265 136.5 1278 c 128,-1,49
 121 1291 121 1291 95 1291 c 0,50,51
 74 1291 74 1291 27 1275 c 1,52,-1
 13 1310 l 1,53,-1
 287 1422 l 1,54,-1
 333 1422 l 1,0,-1
EndSplineSet
EndChar

StartChar: i
Encoding: 105 105 76
Width: 569
GlyphClass: 1
Flags: W
LayerCount: 2
Fore
SplineSet
297 1422 m 0,0,1
 339 1422 339 1422 368.5 1392.5 c 128,-1,2
 398 1363 398 1363 398 1321 c 256,3,4
 398 1279 398 1279 368.5 1249 c 128,-1,5
 339 1219 339 1219 297 1219 c 256,6,7
 255 1219 255 1219 225 1249 c 128,-1,8
 195 1279 195 1279 195 1321 c 256,9,10
 195 1363 195 1363 224.5 1392.5 c 128,-1,11
 254 1422 254 1422 297 1422 c 0,0,1
380 943 m 1,12,-1
 380 207 l 2,13,14
 380 121 380 121 392.5 92.5 c 128,-1,15
 405 64 405 64 429.5 50 c 128,-1,16
 454 36 454 36 519 36 c 1,17,-1
 519 0 l 1,18,-1
 74 0 l 1,19,-1
 74 36 l 1,20,21
 141 36 141 36 164 49 c 128,-1,22
 187 62 187 62 200.5 92 c 128,-1,23
 214 122 214 122 214 207 c 2,24,-1
 214 560 l 2,25,26
 214 709 214 709 205 753 c 0,27,28
 198 785 198 785 183 797.5 c 128,-1,29
 168 810 168 810 142 810 c 0,30,31
 114 810 114 810 74 795 c 1,32,-1
 60 831 l 1,33,-1
 336 943 l 1,34,-1
 380 943 l 1,12,-1
EndSplineSet
EndChar

StartChar: j
Encoding: 106 106 77
Width: 569
GlyphClass: 1
Flags: W
LayerCount: 2
Fore
SplineSet
296 1423 m 0,0,1
 339 1423 339 1423 369 1393 c 128,-1,2
 399 1363 399 1363 399 1320 c 0,3,4
 399 1278 399 1278 369 1248 c 128,-1,5
 339 1218 339 1218 296 1218 c 0,6,7
 254 1218 254 1218 224 1248 c 128,-1,8
 194 1278 194 1278 194 1320 c 0,9,10
 194 1363 194 1363 224 1393 c 128,-1,11
 254 1423 254 1423 296 1423 c 0,0,1
382 943 m 1,12,-1
 382 21 l 2,13,14
 382 -214 382 -214 282 -328 c 128,-1,15
 182 -442 182 -442 22 -442 c 0,16,17
 -69 -442 -69 -442 -113 -409 c 128,-1,18
 -157 -376 -157 -376 -157 -341 c 256,19,20
 -157 -306 -157 -306 -132.5 -281 c 128,-1,21
 -108 -256 -108 -256 -75 -256 c 0,22,23
 -49 -256 -49 -256 -22 -269 c 0,24,25
 -5 -276 -5 -276 43.5 -319.5 c 128,-1,26
 92 -363 92 -363 125 -363 c 0,27,28
 149 -363 149 -363 172 -344.5 c 128,-1,29
 195 -326 195 -326 206 -282.5 c 128,-1,30
 217 -239 217 -239 217 -94 c 2,31,-1
 217 558 l 2,32,33
 217 709 217 709 208 752 c 0,34,35
 201 785 201 785 186 797.5 c 128,-1,36
 171 810 171 810 145 810 c 0,37,38
 117 810 117 810 77 795 c 1,39,-1
 63 831 l 1,40,-1
 339 943 l 1,41,-1
 382 943 l 1,12,-1
EndSplineSet
EndChar

StartChar: k
Encoding: 107 107 78
Width: 1024
GlyphClass: 1
Flags: W
LayerCount: 2
Fore
SplineSet
335 1422 m 1,0,-1
 335 510 l 1,1,-1
 568 723 l 2,2,3
 642 791 642 791 654 809 c 0,4,5
 662 821 662 821 662 833 c 0,6,7
 662 853 662 853 645.5 867.5 c 128,-1,8
 629 882 629 882 591 884 c 1,9,-1
 591 916 l 1,10,-1
 989 916 l 1,11,-1
 989 884 l 1,12,13
 907 882 907 882 852.5 859 c 128,-1,14
 798 836 798 836 733 777 c 2,15,-1
 498 560 l 1,16,-1
 733 263 l 2,17,18
 831 140 831 140 865 107 c 0,19,20
 913 60 913 60 949 46 c 0,21,22
 974 36 974 36 1036 36 c 1,23,-1
 1036 0 l 1,24,-1
 591 0 l 1,25,-1
 591 36 l 1,26,27
 629 37 629 37 642.5 47.5 c 128,-1,28
 656 58 656 58 656 77 c 0,29,30
 656 100 656 100 616 151 c 2,31,-1
 335 510 l 1,32,-1
 335 206 l 2,33,34
 335 117 335 117 347.5 89 c 128,-1,35
 360 61 360 61 383 49 c 128,-1,36
 406 37 406 37 483 36 c 1,37,-1
 483 0 l 1,38,-1
 17 0 l 1,39,-1
 17 36 l 1,40,41
 87 36 87 36 122 53 c 0,42,43
 143 64 143 64 154 87 c 0,44,45
 169 120 169 120 169 201 c 2,46,-1
 169 1035 l 2,47,48
 169 1194 169 1194 162 1229.5 c 128,-1,49
 155 1265 155 1265 139 1278.5 c 128,-1,50
 123 1292 123 1292 97 1292 c 0,51,52
 76 1292 76 1292 34 1275 c 1,53,-1
 17 1310 l 1,54,-1
 289 1422 l 1,55,-1
 335 1422 l 1,0,-1
EndSplineSet
EndChar

StartChar: l
Encoding: 108 108 79
Width: 569
GlyphClass: 1
Flags: W
LayerCount: 2
Fore
SplineSet
379 1422 m 1,0,-1
 379 207 l 2,1,2
 379 121 379 121 391.5 93 c 128,-1,3
 404 65 404 65 430 50.5 c 128,-1,4
 456 36 456 36 527 36 c 1,5,-1
 527 0 l 1,6,-1
 78 0 l 1,7,-1
 78 36 l 1,8,9
 141 36 141 36 164 49 c 128,-1,10
 187 62 187 62 200 92 c 128,-1,11
 213 122 213 122 213 207 c 2,12,-1
 213 1039 l 2,13,14
 213 1194 213 1194 206 1229.5 c 128,-1,15
 199 1265 199 1265 183.5 1278 c 128,-1,16
 168 1291 168 1291 144 1291 c 0,17,18
 118 1291 118 1291 78 1275 c 1,19,-1
 61 1310 l 1,20,-1
 334 1422 l 1,21,-1
 379 1422 l 1,0,-1
EndSplineSet
EndChar

StartChar: m
Encoding: 109 109 80
Width: 1593
GlyphClass: 1
Flags: W
LayerCount: 2
Fore
SplineSet
336 748 m 1,0,1
 436 848 436 848 454 863 c 0,2,3
 499 901 499 901 551 922 c 128,-1,4
 603 943 603 943 654 943 c 0,5,6
 740 943 740 943 802 893 c 128,-1,7
 864 843 864 843 885 748 c 1,8,9
 988 868 988 868 1059 905.5 c 128,-1,10
 1130 943 1130 943 1205 943 c 0,11,12
 1278 943 1278 943 1334.5 905.5 c 128,-1,13
 1391 868 1391 868 1424 783 c 0,14,15
 1446 725 1446 725 1446 601 c 2,16,-1
 1446 207 l 2,17,18
 1446 121 1446 121 1459 89 c 0,19,20
 1469 67 1469 67 1496 51.5 c 128,-1,21
 1523 36 1523 36 1584 36 c 1,22,-1
 1584 0 l 1,23,-1
 1132 0 l 1,24,-1
 1132 36 l 1,25,-1
 1151 36 l 2,26,27
 1210 36 1210 36 1243 59 c 0,28,29
 1266 75 1266 75 1276 110 c 0,30,31
 1280 127 1280 127 1280 207 c 2,32,-1
 1280 601 l 2,33,34
 1280 713 1280 713 1253 759 c 0,35,36
 1214 823 1214 823 1128 823 c 0,37,38
 1075 823 1075 823 1021.5 796.5 c 128,-1,39
 968 770 968 770 892 698 c 1,40,-1
 890 687 l 1,41,-1
 892 644 l 1,42,-1
 892 207 l 2,43,44
 892 113 892 113 902.5 90 c 128,-1,45
 913 67 913 67 942 51.5 c 128,-1,46
 971 36 971 36 1041 36 c 1,47,-1
 1041 0 l 1,48,-1
 578 0 l 1,49,-1
 578 36 l 1,50,51
 654 36 654 36 682.5 54 c 128,-1,52
 711 72 711 72 722 108 c 0,53,54
 727 125 727 125 727 207 c 2,55,-1
 727 601 l 2,56,57
 727 713 727 713 694 762 c 0,58,59
 650 826 650 826 571 826 c 0,60,61
 517 826 517 826 464 797 c 0,62,63
 381 753 381 753 336 698 c 1,64,-1
 336 207 l 2,65,66
 336 117 336 117 348.5 90 c 128,-1,67
 361 63 361 63 385.5 49.5 c 128,-1,68
 410 36 410 36 485 36 c 1,69,-1
 485 0 l 1,70,-1
 32 0 l 1,71,-1
 32 36 l 1,72,73
 95 36 95 36 120 49.5 c 128,-1,74
 145 63 145 63 158 92.5 c 128,-1,75
 171 122 171 122 171 207 c 2,76,-1
 171 557 l 2,77,78
 171 708 171 708 162 752 c 0,79,80
 155 785 155 785 140 797.5 c 128,-1,81
 125 810 125 810 99 810 c 0,82,83
 71 810 71 810 32 795 c 1,84,-1
 17 831 l 1,85,-1
 293 943 l 1,86,-1
 336 943 l 1,87,-1
 336 748 l 1,0,1
EndSplineSet
EndChar

StartChar: n
Encoding: 110 110 81
Width: 1024
GlyphClass: 1
Flags: W
LayerCount: 2
Fore
SplineSet
331 749 m 1,0,1
 492 943 492 943 638 943 c 0,2,3
 713 943 713 943 767 905.5 c 128,-1,4
 821 868 821 868 853 782 c 0,5,6
 875 722 875 722 875 598 c 2,7,-1
 875 207 l 2,8,9
 875 120 875 120 889 89 c 0,10,11
 900 64 900 64 924.5 50 c 128,-1,12
 949 36 949 36 1015 36 c 1,13,-1
 1015 0 l 1,14,-1
 562 0 l 1,15,-1
 562 36 l 1,16,-1
 581 36 l 2,17,18
 645 36 645 36 670.5 55.5 c 128,-1,19
 696 75 696 75 706 113 c 0,20,21
 710 128 710 128 710 207 c 2,22,-1
 710 582 l 2,23,24
 710 707 710 707 677.5 763.5 c 128,-1,25
 645 820 645 820 568 820 c 0,26,27
 449 820 449 820 331 690 c 1,28,-1
 331 207 l 2,29,30
 331 114 331 114 342 92 c 0,31,32
 356 63 356 63 380.5 49.5 c 128,-1,33
 405 36 405 36 480 36 c 1,34,-1
 480 0 l 1,35,-1
 27 0 l 1,36,-1
 27 36 l 1,37,-1
 47 36 l 2,38,39
 117 36 117 36 141.5 71.5 c 128,-1,40
 166 107 166 107 166 207 c 2,41,-1
 166 547 l 2,42,43
 166 712 166 712 158.5 748 c 128,-1,44
 151 784 151 784 135.5 797 c 128,-1,45
 120 810 120 810 94 810 c 0,46,47
 66 810 66 810 27 795 c 1,48,-1
 12 831 l 1,49,-1
 288 943 l 1,50,-1
 331 943 l 1,51,-1
 331 749 l 1,0,1
EndSplineSet
EndChar

StartChar: o
Encoding: 111 111 82
Width: 1024
GlyphClass: 1
Flags: W
LayerCount: 2
Fore
SplineSet
512 943 m 0,0,1
 720 943 720 943 846 785 c 0,2,3
 953 650 953 650 953 475 c 0,4,5
 953 352 953 352 894 226 c 128,-1,6
 835 100 835 100 731.5 36 c 128,-1,7
 628 -28 628 -28 501 -28 c 0,8,9
 294 -28 294 -28 172 137 c 0,10,11
 69 276 69 276 69 449 c 0,12,13
 69 575 69 575 131.5 699.5 c 128,-1,14
 194 824 194 824 296 883.5 c 128,-1,15
 398 943 398 943 512 943 c 0,0,1
481 878 m 0,16,17
 428 878 428 878 374.5 846.5 c 128,-1,18
 321 815 321 815 288 736 c 128,-1,19
 255 657 255 657 255 533 c 0,20,21
 255 333 255 333 334.5 188 c 128,-1,22
 414 43 414 43 544 43 c 0,23,24
 641 43 641 43 704 123 c 128,-1,25
 767 203 767 203 767 398 c 0,26,27
 767 642 767 642 662 782 c 0,28,29
 591 878 591 878 481 878 c 0,16,17
EndSplineSet
EndChar

StartChar: p
Encoding: 112 112 83
Width: 1024
GlyphClass: 1
Flags: W
LayerCount: 2
Fore
SplineSet
-2 825 m 1,0,-1
 280 939 l 1,1,-1
 318 939 l 1,2,-1
 318 725 l 1,3,4
 389 846 389 846 460.5 894.5 c 128,-1,5
 532 943 532 943 611 943 c 0,6,7
 749 943 749 943 841 835 c 0,8,9
 954 703 954 703 954 491 c 0,10,11
 954 254 954 254 818 99 c 0,12,13
 706 -28 706 -28 536 -28 c 0,14,15
 462 -28 462 -28 408 -7 c 0,16,17
 368 8 368 8 318 53 c 1,18,-1
 318 -226 l 2,19,20
 318 -320 318 -320 329.5 -345.5 c 128,-1,21
 341 -371 341 -371 369.5 -386 c 128,-1,22
 398 -401 398 -401 473 -401 c 1,23,-1
 473 -438 l 1,24,-1
 -7 -438 l 1,25,-1
 -7 -401 l 1,26,-1
 18 -401 l 2,27,28
 73 -402 73 -402 112 -380 c 0,29,30
 131 -369 131 -369 141.5 -344.5 c 128,-1,31
 152 -320 152 -320 152 -220 c 2,32,-1
 152 646 l 2,33,34
 152 735 152 735 144 759 c 128,-1,35
 136 783 136 783 118.5 795 c 128,-1,36
 101 807 101 807 71 807 c 0,37,38
 47 807 47 807 10 793 c 1,39,-1
 -2 825 l 1,0,-1
318 666 m 1,40,-1
 318 324 l 2,41,42
 318 213 318 213 327 178 c 0,43,44
 341 120 341 120 395.5 76 c 128,-1,45
 450 32 450 32 533 32 c 0,46,47
 633 32 633 32 695 110 c 0,48,49
 776 212 776 212 776 397 c 0,50,51
 776 607 776 607 684 720 c 0,52,53
 620 798 620 798 532 798 c 0,54,55
 484 798 484 798 437 774 c 0,56,57
 401 756 401 756 318 666 c 1,40,-1
EndSplineSet
EndChar

StartChar: q
Encoding: 113 113 84
Width: 1024
GlyphClass: 1
Flags: W
LayerCount: 2
Fore
SplineSet
875 943 m 1,0,-1
 875 -235 l 2,1,2
 875 -323 875 -323 887 -348 c 128,-1,3
 899 -373 899 -373 924.5 -387 c 128,-1,4
 950 -401 950 -401 1024 -401 c 1,5,-1
 1024 -438 l 1,6,-1
 562 -438 l 1,7,-1
 562 -401 l 1,8,-1
 581 -401 l 2,9,10
 637 -401 637 -401 666 -385 c 0,11,12
 686 -374 686 -374 698 -345.5 c 128,-1,13
 710 -317 710 -317 710 -235 c 2,14,-1
 710 159 l 1,15,16
 619 51 619 51 551 11.5 c 128,-1,17
 483 -28 483 -28 410 -28 c 0,18,19
 277 -28 277 -28 172.5 93 c 128,-1,20
 68 214 68 214 68 417 c 0,21,22
 68 650 68 650 206 796.5 c 128,-1,23
 344 943 344 943 539 943 c 0,24,25
 596 943 596 943 644 927 c 128,-1,26
 692 911 692 911 730 879 c 1,27,28
 788 907 788 907 841 943 c 1,29,-1
 875 943 l 1,0,-1
710 222 m 1,30,-1
 710 652 l 2,31,32
 710 727 710 727 690.5 770 c 128,-1,33
 671 813 671 813 621 843 c 128,-1,34
 571 873 571 873 508 873 c 0,35,36
 396 873 396 873 316 778 c 128,-1,37
 236 683 236 683 236 490 c 0,38,39
 236 305 236 305 317.5 209 c 128,-1,40
 399 113 399 113 514 113 c 0,41,42
 573 113 573 113 619 138.5 c 128,-1,43
 665 164 665 164 710 222 c 1,30,-1
EndSplineSet
EndChar

StartChar: r
Encoding: 114 114 85
Width: 682
GlyphClass: 1
Flags: W
LayerCount: 2
Fore
SplineSet
332 943 m 1,0,-1
 332 737 l 1,1,2
 447 943 447 943 568 943 c 0,3,4
 623 943 623 943 659 909.5 c 128,-1,5
 695 876 695 876 695 832 c 0,6,7
 695 793 695 793 669 766 c 128,-1,8
 643 739 643 739 607 739 c 0,9,10
 572 739 572 739 528.5 773.5 c 128,-1,11
 485 808 485 808 464 808 c 0,12,13
 446 808 446 808 425 788 c 0,14,15
 380 747 380 747 332 653 c 1,16,-1
 332 214 l 2,17,18
 332 138 332 138 351 99 c 0,19,20
 364 72 364 72 397 54 c 128,-1,21
 430 36 430 36 492 36 c 1,22,-1
 492 0 l 1,23,-1
 23 0 l 1,24,-1
 23 36 l 1,25,26
 93 36 93 36 127 58 c 0,27,28
 152 74 152 74 162 109 c 0,29,30
 167 126 167 126 167 206 c 2,31,-1
 167 561 l 2,32,33
 167 721 167 721 160.5 751.5 c 128,-1,34
 154 782 154 782 136.5 796 c 128,-1,35
 119 810 119 810 93 810 c 0,36,37
 62 810 62 810 23 795 c 1,38,-1
 13 831 l 1,39,-1
 290 943 l 1,40,-1
 332 943 l 1,0,-1
EndSplineSet
EndChar

StartChar: s
Encoding: 115 115 86
Width: 797
GlyphClass: 1
Flags: W
LayerCount: 2
Fore
SplineSet
656 943 m 1,0,-1
 656 631 l 1,1,-1
 623 631 l 1,2,3
 585 778 585 778 525.5 831 c 128,-1,4
 466 884 466 884 374 884 c 0,5,6
 304 884 304 884 261 847 c 128,-1,7
 218 810 218 810 218 765 c 0,8,9
 218 709 218 709 250 669 c 0,10,11
 281 628 281 628 376 582 c 2,12,-1
 522 511 l 2,13,14
 725 412 725 412 725 250 c 0,15,16
 725 125 725 125 630.5 48.5 c 128,-1,17
 536 -28 536 -28 419 -28 c 0,18,19
 335 -28 335 -28 227 2 c 0,20,21
 194 12 194 12 173 12 c 0,22,23
 150 12 150 12 137 -14 c 1,24,-1
 104 -14 l 1,25,-1
 104 313 l 1,26,-1
 137 313 l 1,27,28
 165 173 165 173 244 102 c 128,-1,29
 323 31 323 31 421 31 c 0,30,31
 490 31 490 31 533.5 71.5 c 128,-1,32
 577 112 577 112 577 169 c 0,33,34
 577 238 577 238 528.5 285 c 128,-1,35
 480 332 480 332 335 404 c 128,-1,36
 190 476 190 476 145 534 c 0,37,38
 100 591 100 591 100 678 c 0,39,40
 100 791 100 791 177.5 867 c 128,-1,41
 255 943 255 943 378 943 c 0,42,43
 432 943 432 943 509 920 c 0,44,45
 560 905 560 905 577 905 c 0,46,47
 593 905 593 905 602 912 c 128,-1,48
 611 919 611 919 623 943 c 1,49,-1
 656 943 l 1,0,-1
EndSplineSet
EndChar

StartChar: t
Encoding: 116 116 87
Width: 569
GlyphClass: 1
Flags: W
LayerCount: 2
Fore
SplineSet
330 1217 m 1,0,-1
 330 916 l 1,1,-1
 544 916 l 1,2,-1
 544 846 l 1,3,-1
 330 846 l 1,4,-1
 330 252 l 2,5,6
 330 163 330 163 355.5 132 c 128,-1,7
 381 101 381 101 421 101 c 0,8,9
 454 101 454 101 485 121.5 c 128,-1,10
 516 142 516 142 533 182 c 1,11,-1
 572 182 l 1,12,13
 537 84 537 84 473 34.5 c 128,-1,14
 409 -15 409 -15 341 -15 c 0,15,16
 295 -15 295 -15 251 10.5 c 128,-1,17
 207 36 207 36 186 83.5 c 128,-1,18
 165 131 165 131 165 230 c 2,19,-1
 165 846 l 1,20,-1
 20 846 l 1,21,-1
 20 879 l 1,22,23
 75 901 75 901 132.5 953.5 c 128,-1,24
 190 1006 190 1006 235 1078 c 0,25,26
 258 1116 258 1116 299 1217 c 1,27,-1
 330 1217 l 1,0,-1
EndSplineSet
EndChar

StartChar: u
Encoding: 117 117 88
Width: 1024
GlyphClass: 1
Flags: W
LayerCount: 2
Fore
SplineSet
867 916 m 1,0,-1
 867 361 l 2,1,2
 867 202 867 202 874.5 166.5 c 128,-1,3
 882 131 882 131 898.5 117 c 128,-1,4
 915 103 915 103 937 103 c 0,5,6
 968 103 968 103 1007 120 c 1,7,-1
 1021 85 l 1,8,-1
 747 -28 l 1,9,-1
 702 -28 l 1,10,-1
 702 166 l 1,11,12
 584 38 584 38 522 5 c 128,-1,13
 460 -28 460 -28 391 -28 c 0,14,15
 314 -28 314 -28 257.5 16.5 c 128,-1,16
 201 61 201 61 179 131 c 128,-1,17
 157 201 157 201 157 329 c 2,18,-1
 157 738 l 2,19,20
 157 803 157 803 143 828 c 128,-1,21
 129 853 129 853 101.5 866.5 c 128,-1,22
 74 880 74 880 2 879 c 1,23,-1
 2 916 l 1,24,-1
 323 916 l 1,25,-1
 323 303 l 2,26,27
 323 175 323 175 367.5 135 c 128,-1,28
 412 95 412 95 475 95 c 0,29,30
 518 95 518 95 572.5 122 c 128,-1,31
 627 149 627 149 702 225 c 1,32,-1
 702 744 l 2,33,34
 702 822 702 822 673.5 849.5 c 128,-1,35
 645 877 645 877 555 879 c 1,36,-1
 555 916 l 1,37,-1
 867 916 l 1,0,-1
EndSplineSet
EndChar

StartChar: v
Encoding: 118 118 89
Width: 1024
GlyphClass: 1
Flags: W
LayerCount: 2
Fore
SplineSet
17 916 m 1,0,-1
 448 916 l 1,1,-1
 448 879 l 1,2,-1
 420 879 l 2,3,4
 381 879 381 879 360.5 860 c 128,-1,5
 340 841 340 841 340 809 c 0,6,7
 340 774 340 774 361 726 c 2,8,-1
 574 220 l 1,9,-1
 788 745 l 2,10,11
 811 801 811 801 811 830 c 0,12,13
 811 844 811 844 803 853 c 0,14,15
 792 868 792 868 775 873.5 c 128,-1,16
 758 879 758 879 706 879 c 1,17,-1
 706 916 l 1,18,-1
 1005 916 l 1,19,-1
 1005 879 l 1,20,21
 953 875 953 875 933 858 c 0,22,23
 898 828 898 828 870 758 c 2,24,-1
 545 -28 l 1,25,-1
 504 -28 l 1,26,-1
 177 745 l 2,27,28
 155 799 155 799 135 822.5 c 128,-1,29
 115 846 115 846 84 862 c 0,30,31
 67 871 67 871 17 879 c 1,32,-1
 17 916 l 1,0,-1
EndSplineSet
EndChar

StartChar: w
Encoding: 119 119 90
Width: 1479
GlyphClass: 1
Flags: W
LayerCount: 2
Fore
SplineSet
13 916 m 1,0,-1
 397 916 l 1,1,-1
 397 879 l 1,2,3
 344 875 344 875 327.5 860 c 128,-1,4
 311 845 311 845 311 817 c 0,5,6
 311 786 311 786 328 742 c 2,7,-1
 524 215 l 1,8,-1
 721 644 l 1,9,-1
 669 779 l 2,10,11
 645 839 645 839 606 862 c 0,12,13
 584 876 584 876 524 879 c 1,14,-1
 524 916 l 1,15,-1
 960 916 l 1,16,-1
 960 879 l 1,17,18
 888 876 888 876 858 853 c 0,19,20
 838 837 838 837 838 802 c 0,21,22
 838 782 838 782 846 761 c 2,23,-1
 1054 235 l 1,24,-1
 1247 742 l 2,25,26
 1267 796 1267 796 1267 828 c 0,27,28
 1267 847 1267 847 1247.5 862 c 128,-1,29
 1228 877 1228 877 1171 879 c 1,30,-1
 1171 916 l 1,31,-1
 1460 916 l 1,32,-1
 1460 879 l 1,33,34
 1373 866 1373 866 1332 761 c 2,35,-1
 1026 -28 l 1,36,-1
 985 -28 l 1,37,-1
 756 557 l 1,38,-1
 489 -28 l 1,39,-1
 452 -28 l 1,40,-1
 158 742 l 2,41,42
 129 815 129 815 101 840.5 c 128,-1,43
 73 866 73 866 13 879 c 1,44,-1
 13 916 l 1,0,-1
EndSplineSet
EndChar

StartChar: x
Encoding: 120 120 91
Width: 1024
GlyphClass: 1
Flags: W
LayerCount: 2
Fore
SplineSet
27 916 m 1,0,-1
 458 916 l 1,1,-1
 458 879 l 1,2,3
 417 879 417 879 400.5 865 c 128,-1,4
 384 851 384 851 384 828 c 0,5,6
 384 804 384 804 419 754 c 0,7,8
 430 738 430 738 452 704 c 2,9,-1
 517 600 l 1,10,-1
 592 704 l 2,11,12
 664 803 664 803 664 829 c 0,13,14
 664 850 664 850 647 864.5 c 128,-1,15
 630 879 630 879 592 879 c 1,16,-1
 592 916 l 1,17,-1
 902 916 l 1,18,-1
 902 879 l 1,19,20
 853 876 853 876 817 852 c 0,21,22
 768 818 768 818 683 704 c 2,23,-1
 558 537 l 1,24,-1
 786 209 l 2,25,26
 870 88 870 88 906 63.5 c 128,-1,27
 942 39 942 39 999 36 c 1,28,-1
 999 0 l 1,29,-1
 567 0 l 1,30,-1
 567 36 l 1,31,32
 612 36 612 36 637 56 c 0,33,34
 656 70 656 70 656 93 c 256,35,36
 656 116 656 116 592 209 c 2,37,-1
 458 405 l 1,38,-1
 311 209 l 2,39,40
 243 118 243 118 243 101 c 0,41,42
 243 77 243 77 265.5 57.5 c 128,-1,43
 288 38 288 38 333 36 c 1,44,-1
 333 0 l 1,45,-1
 34 0 l 1,46,-1
 34 36 l 1,47,48
 70 41 70 41 97 61 c 0,49,50
 135 90 135 90 225 209 c 2,51,-1
 417 464 l 1,52,-1
 243 716 l 2,53,54
 169 824 169 824 128.5 851.5 c 128,-1,55
 88 879 88 879 27 879 c 1,56,-1
 27 916 l 1,0,-1
EndSplineSet
EndChar

StartChar: y
Encoding: 121 121 92
Width: 1024
GlyphClass: 1
Flags: W
LayerCount: 2
Fore
SplineSet
12 916 m 1,0,-1
 439 916 l 1,1,-1
 439 879 l 1,2,-1
 418 879 l 2,3,4
 373 879 373 879 350.5 859.5 c 128,-1,5
 328 840 328 840 328 811 c 0,6,7
 328 772 328 772 361 703 c 2,8,-1
 584 241 l 1,9,-1
 789 747 l 2,10,11
 806 788 806 788 806 828 c 0,12,13
 806 846 806 846 799 855 c 0,14,15
 791 866 791 866 774 872.5 c 128,-1,16
 757 879 757 879 714 879 c 1,17,-1
 714 916 l 1,18,-1
 1012 916 l 1,19,-1
 1012 879 l 1,20,21
 975 875 975 875 955 863 c 128,-1,22
 935 851 935 851 911 818 c 0,23,24
 902 804 902 804 877 741 c 2,25,-1
 504 -173 l 2,26,27
 450 -306 450 -306 362.5 -374 c 128,-1,28
 275 -442 275 -442 194 -442 c 0,29,30
 135 -442 135 -442 97 -408 c 128,-1,31
 59 -374 59 -374 59 -330 c 0,32,33
 59 -288 59 -288 86.5 -262.5 c 128,-1,34
 114 -237 114 -237 162 -237 c 0,35,36
 195 -237 195 -237 252 -259 c 0,37,38
 292 -274 292 -274 302 -274 c 0,39,40
 332 -274 332 -274 367.5 -243 c 128,-1,41
 403 -212 403 -212 439 -123 c 2,42,-1
 504 36 l 1,43,-1
 175 727 l 2,44,45
 160 758 160 758 127 804 c 0,46,47
 102 839 102 839 86 851 c 0,48,49
 63 867 63 867 12 879 c 1,50,-1
 12 916 l 1,0,-1
EndSplineSet
EndChar

StartChar: z
Encoding: 122 122 93
Width: 909
GlyphClass: 1
Flags: W
LayerCount: 2
Fore
SplineSet
860 281 m 1,0,-1
 849 0 l 1,1,-1
 41 0 l 1,2,-1
 41 36 l 1,3,-1
 649 846 l 1,4,-1
 349 846 l 2,5,6
 252 846 252 846 222 833.5 c 128,-1,7
 192 821 192 821 173 786 c 0,8,9
 146 736 146 736 142 662 c 1,10,-1
 102 662 l 1,11,-1
 108 916 l 1,12,-1
 876 916 l 1,13,-1
 876 879 l 1,14,-1
 262 67 l 1,15,-1
 596 67 l 2,16,17
 701 67 701 67 738.5 84.5 c 128,-1,18
 776 102 776 102 799 146 c 0,19,20
 815 178 815 178 826 281 c 1,21,-1
 860 281 l 1,0,-1
EndSplineSet
EndChar

StartChar: braceleft
Encoding: 123 123 94
Width: 983
GlyphClass: 1
Flags: W
LayerCount: 2
Fore
SplineSet
841 -407 m 1,0,-1
 841 -442 l 1,1,2
 674 -419 674 -419 569.5 -306.5 c 128,-1,3
 465 -194 465 -194 465 -57 c 0,4,5
 465 15 465 15 488 110.5 c 128,-1,6
 511 206 511 206 511 259 c 0,7,8
 511 331 511 331 450.5 393.5 c 128,-1,9
 390 456 390 456 283 470 c 1,10,-1
 283 511 l 1,11,12
 390 525 390 525 450.5 587 c 128,-1,13
 511 649 511 649 511 722 c 0,14,15
 511 775 511 775 488 870 c 128,-1,16
 465 965 465 965 465 1038 c 0,17,18
 465 1174 465 1174 569.5 1287 c 128,-1,19
 674 1400 674 1400 841 1422 c 1,20,-1
 841 1387 l 1,21,22
 724 1359 724 1359 669.5 1295.5 c 128,-1,23
 615 1232 615 1232 615 1156 c 0,24,25
 615 1097 615 1097 637.5 1000.5 c 128,-1,26
 660 904 660 904 660 836 c 0,27,28
 660 735 660 735 586 640 c 128,-1,29
 512 545 512 545 365 493 c 1,30,31
 509 440 509 440 584.5 343 c 128,-1,32
 660 246 660 246 660 145 c 0,33,34
 660 77 660 77 637.5 -19.5 c 128,-1,35
 615 -116 615 -116 615 -175 c 0,36,37
 615 -251 615 -251 669.5 -314.5 c 128,-1,38
 724 -378 724 -378 841 -407 c 1,0,-1
EndSplineSet
EndChar

StartChar: bar
Encoding: 124 124 95
Width: 410
GlyphClass: 1
Flags: W
LayerCount: 2
Fore
SplineSet
244 1422 m 1,0,-1
 244 -442 l 1,1,-1
 161 -442 l 1,2,-1
 161 1422 l 1,3,-1
 244 1422 l 1,0,-1
EndSplineSet
EndChar

StartChar: braceright
Encoding: 125 125 96
Width: 983
GlyphClass: 1
Flags: W
LayerCount: 2
Fore
SplineSet
177 1387 m 1,0,-1
 177 1422 l 1,1,2
 344 1400 344 1400 448.5 1287.5 c 128,-1,3
 553 1175 553 1175 553 1037 c 0,4,5
 553 965 553 965 530 870 c 128,-1,6
 507 775 507 775 507 722 c 0,7,8
 507 650 507 650 567.5 587.5 c 128,-1,9
 628 525 628 525 735 511 c 1,10,-1
 735 470 l 1,11,12
 628 456 628 456 567.5 393.5 c 128,-1,13
 507 331 507 331 507 259 c 0,14,15
 507 206 507 206 530 110.5 c 128,-1,16
 553 15 553 15 553 -57 c 0,17,18
 553 -193 553 -193 448.5 -306 c 128,-1,19
 344 -419 344 -419 177 -442 c 1,20,-1
 177 -407 l 1,21,22
 294 -378 294 -378 348.5 -315 c 128,-1,23
 403 -252 403 -252 403 -175 c 0,24,25
 403 -116 403 -116 380 -19.5 c 128,-1,26
 357 77 357 77 357 144 c 0,27,28
 357 246 357 246 431.5 341 c 128,-1,29
 506 436 506 436 653 488 c 1,30,31
 509 541 509 541 433 638 c 128,-1,32
 357 735 357 735 357 836 c 0,33,34
 357 904 357 904 380 1000.5 c 128,-1,35
 403 1097 403 1097 403 1156 c 0,36,37
 403 1232 403 1232 348.5 1295.5 c 128,-1,38
 294 1359 294 1359 177 1387 c 1,0,-1
EndSplineSet
EndChar

StartChar: asciitilde
Encoding: 126 126 97
Width: 1108
GlyphClass: 1
Flags: W
LayerCount: 2
Fore
SplineSet
1042 675 m 1,0,-1
 1087 675 l 1,1,2
 1083 545 1083 545 1013 471.5 c 128,-1,3
 943 398 943 398 842 398 c 0,4,5
 796 398 796 398 743 413.5 c 128,-1,6
 690 429 690 429 469 519 c 0,7,8
 315 583 315 583 250 583 c 0,9,10
 180 583 180 583 132 540 c 128,-1,11
 84 497 84 497 64 400 c 1,12,-1
 20 400 l 1,13,14
 26 535 26 535 94 606.5 c 128,-1,15
 162 678 162 678 254 678 c 0,16,17
 298 678 298 678 344 664 c 0,18,19
 448 634 448 634 617.5 561.5 c 128,-1,20
 787 489 787 489 856 489 c 0,21,22
 931 489 931 489 982 537 c 128,-1,23
 1033 585 1033 585 1042 675 c 1,0,-1
EndSplineSet
EndChar

StartChar: dagger
Encoding: 8224 8224 130
Width: 1024
GlyphClass: 1
Flags: W
LayerCount: 2
Fore
SplineSet
524 -421 m 1,0,-1
 487 -421 l 1,1,2
 483 15 483 15 455 281 c 0,3,4
 434 480 434 480 386 659 c 1,5,6
 437 703 437 703 459 752 c 128,-1,7
 481 801 481 801 487 896 c 1,8,9
 422 889 422 889 355 861 c 0,10,11
 250 817 250 817 202 817 c 0,12,13
 157 817 157 817 129 844 c 128,-1,14
 101 871 101 871 101 912 c 0,15,16
 101 954 101 954 130.5 982.5 c 128,-1,17
 160 1011 160 1011 204 1011 c 0,18,19
 229 1011 229 1011 250 1005 c 0,20,21
 261 1002 261 1002 355 961 c 0,22,23
 415 935 415 935 487 931 c 1,24,25
 486 972 486 972 480 993 c 0,26,27
 473 1024 473 1024 450 1079 c 0,28,29
 396 1207 396 1207 396 1273 c 0,30,31
 396 1331 396 1331 429 1367 c 128,-1,32
 462 1403 462 1403 508 1403 c 0,33,34
 550 1403 550 1403 583.5 1365.5 c 128,-1,35
 617 1328 617 1328 617 1273 c 0,36,37
 617 1243 617 1243 609 1213 c 0,38,39
 599 1174 599 1174 563.5 1087.5 c 128,-1,40
 528 1001 528 1001 524 931 c 1,41,42
 595 937 595 937 656 961 c 0,43,44
 755 1000 755 1000 771 1004 c 0,45,46
 793 1010 793 1010 816 1010 c 0,47,48
 864 1010 864 1010 893.5 982 c 128,-1,49
 923 954 923 954 923 912 c 0,50,51
 923 872 923 872 893.5 844 c 128,-1,52
 864 816 864 816 820 816 c 0,53,54
 765 816 765 816 655 863 c 0,55,56
 607 883 607 883 586 888 c 128,-1,57
 565 893 565 893 524 896 c 1,58,59
 529 802 529 802 551.5 751 c 128,-1,60
 574 700 574 700 624 659 c 1,61,62
 576 476 576 476 557 295.5 c 128,-1,63
 538 115 538 115 524 -421 c 1,0,-1
EndSplineSet
EndChar

StartChar: degree
Encoding: 176 176 131
Width: 819
GlyphClass: 1
Flags: W
LayerCount: 2
Fore
SplineSet
405 1386 m 0,0,1
 534 1386 534 1386 623.5 1296 c 128,-1,2
 713 1206 713 1206 713 1078 c 0,3,4
 713 951 713 951 623 861 c 128,-1,5
 533 771 533 771 405 771 c 0,6,7
 278 771 278 771 188 861 c 128,-1,8
 98 951 98 951 98 1078 c 0,9,10
 98 1206 98 1206 187.5 1296 c 128,-1,11
 277 1386 277 1386 405 1386 c 0,0,1
405 1302 m 256,12,13
 312 1302 312 1302 247 1237 c 128,-1,14
 182 1172 182 1172 182 1079 c 0,15,16
 182 987 182 987 247 921.5 c 128,-1,17
 312 856 312 856 405 856 c 0,18,19
 497 856 497 856 562.5 921.5 c 128,-1,20
 628 987 628 987 628 1079 c 0,21,22
 628 1172 628 1172 563 1237 c 128,-1,23
 498 1302 498 1302 405 1302 c 256,12,13
EndSplineSet
EndChar

StartChar: cent
Encoding: 162 162 132
Width: 1024
GlyphClass: 1
Flags: W
LayerCount: 2
Fore
SplineSet
900 349 m 1,0,1
 853 161 853 161 737 57 c 0,2,3
 647 -24 647 -24 516 -24 c 0,4,5
 435 -24 435 -24 354 11 c 1,6,-1
 212 -379 l 1,7,-1
 142 -379 l 1,8,-1
 297 48 l 1,9,10
 216 124 216 124 180 202 c 0,11,12
 129 312 129 312 129 452 c 0,13,14
 129 706 129 706 286 842 c 0,15,16
 406 947 406 947 559 947 c 0,17,18
 579 947 579 947 620 943 c 1,19,-1
 760 1326 l 1,20,-1
 832 1326 l 1,21,-1
 687 924 l 1,22,23
 788 879 788 879 825 837 c 0,24,25
 873 783 873 783 873 722 c 0,26,27
 873 683 873 683 849 660 c 128,-1,28
 825 637 825 637 779 637 c 0,29,30
 724 637 724 637 693 675 c 0,31,32
 675 697 675 697 667 757 c 0,33,34
 663 788 663 788 650 822 c 1,35,-1
 422 191 l 1,36,37
 478 153 478 153 516 140 c 0,38,39
 544 130 544 130 585 130 c 0,40,41
 646 130 646 130 702 155.5 c 128,-1,42
 758 181 758 181 787 215.5 c 128,-1,43
 816 250 816 250 870 362 c 1,44,-1
 900 349 l 1,0,1
370 250 m 1,45,-1
 593 865 l 1,46,47
 565 877 565 877 533 877 c 0,48,49
 431 877 431 877 371 803 c 0,50,51
 289 703 289 703 289 535 c 0,52,53
 289 460 289 460 306.5 397 c 128,-1,54
 324 334 324 334 370 250 c 1,45,-1
EndSplineSet
EndChar

StartChar: sterling
Encoding: 163 163 133
Width: 1024
GlyphClass: 1
Flags: W
LayerCount: 2
Fore
SplineSet
723 659 m 1,0,-1
 465 659 l 1,1,2
 466 613 466 613 466 591 c 0,3,4
 466 497 466 497 452.5 417 c 128,-1,5
 439 337 439 337 404 233 c 1,6,7
 600 170 600 170 628 164 c 0,8,9
 680 152 680 152 730 152 c 0,10,11
 813 152 813 152 865 190.5 c 128,-1,12
 917 229 917 229 941 312 c 1,13,-1
 977 303 l 1,14,15
 956 142 956 142 873.5 59 c 128,-1,16
 791 -24 791 -24 690 -24 c 0,17,18
 622 -24 622 -24 567 0.5 c 128,-1,19
 512 25 512 25 364 136 c 1,20,21
 324 56 324 56 277.5 16 c 128,-1,22
 231 -24 231 -24 178 -24 c 0,23,24
 128 -24 128 -24 94.5 10.5 c 128,-1,25
 61 45 61 45 61 105 c 0,26,27
 61 172 61 172 107 216.5 c 128,-1,28
 153 261 153 261 225 261 c 0,29,30
 242 261 242 261 263 259 c 128,-1,31
 284 257 284 257 310 253 c 1,32,33
 312 279 312 279 312.5 298 c 128,-1,34
 313 317 313 317 313 330 c 0,35,36
 313 418 313 418 292 659 c 1,37,-1
 98 659 l 1,38,-1
 98 754 l 1,39,-1
 292 754 l 1,40,41
 279 903 279 903 279 953 c 0,42,43
 279 1075 279 1075 328 1176 c 128,-1,44
 377 1277 377 1277 463.5 1330.5 c 128,-1,45
 550 1384 550 1384 649 1384 c 0,46,47
 775 1384 775 1384 838.5 1316 c 128,-1,48
 902 1248 902 1248 902 1180 c 0,49,50
 902 1148 902 1148 877.5 1123 c 128,-1,51
 853 1098 853 1098 824 1098 c 0,52,53
 786 1098 786 1098 761 1136 c 0,54,55
 750 1154 750 1154 746 1213.5 c 128,-1,56
 742 1273 742 1273 712 1301 c 0,57,58
 681 1329 681 1329 625 1329 c 0,59,60
 546 1329 546 1329 494.5 1267 c 128,-1,61
 443 1205 443 1205 443 1049 c 0,62,63
 443 976 443 976 455 862 c 0,64,65
 462 787 462 787 465 754 c 1,66,-1
 723 754 l 1,67,-1
 723 659 l 1,0,-1
298 172 m 1,68,69
 276 186 276 186 255 193 c 128,-1,70
 234 200 234 200 213 200 c 0,71,72
 168 200 168 200 143 175.5 c 128,-1,73
 118 151 118 151 118 112 c 0,74,75
 118 76 118 76 137.5 55 c 128,-1,76
 157 34 157 34 183 34 c 0,77,78
 216 34 216 34 247.5 65 c 128,-1,79
 279 96 279 96 298 172 c 1,68,69
EndSplineSet
EndChar

StartChar: section
Encoding: 167 167 134
Width: 1024
GlyphClass: 1
Flags: W
LayerCount: 2
Fore
SplineSet
377 843 m 1,0,1
 310 917 310 917 281.5 978 c 128,-1,2
 253 1039 253 1039 253 1102 c 0,3,4
 253 1219 253 1219 335 1301.5 c 128,-1,5
 417 1384 417 1384 537 1384 c 0,6,7
 647 1384 647 1384 718.5 1317 c 128,-1,8
 790 1250 790 1250 790 1164 c 0,9,10
 790 1125 790 1125 764 1095 c 0,11,12
 745 1074 745 1074 711 1074 c 256,13,14
 677 1074 677 1074 655 1097 c 128,-1,15
 633 1120 633 1120 633 1151 c 0,16,17
 633 1166 633 1166 641 1204 c 0,18,19
 646 1227 646 1227 646 1247 c 0,20,21
 646 1288 646 1288 617 1315 c 128,-1,22
 588 1342 588 1342 537 1342 c 0,23,24
 464 1342 464 1342 413.5 1291 c 128,-1,25
 363 1240 363 1240 363 1167 c 0,26,27
 363 1103 363 1103 390 1061 c 0,28,29
 435 991 435 991 541 914 c 0,30,31
 742 769 742 769 816 654 c 0,32,33
 868 572 868 572 868 482 c 0,34,35
 868 391 868 391 815 300 c 128,-1,36
 762 209 762 209 647 140 c 1,37,38
 717 63 717 63 743.5 7 c 128,-1,39
 770 -49 770 -49 770 -114 c 0,40,41
 770 -236 770 -236 688 -318 c 128,-1,42
 606 -400 606 -400 486 -400 c 0,43,44
 378 -400 378 -400 306.5 -331.5 c 128,-1,45
 235 -263 235 -263 235 -175 c 0,46,47
 235 -138 235 -138 258.5 -112.5 c 128,-1,48
 282 -87 282 -87 313 -87 c 256,49,50
 344 -87 344 -87 366 -110.5 c 128,-1,51
 388 -134 388 -134 388 -174 c 0,52,53
 388 -201 388 -201 380 -233.5 c 128,-1,54
 372 -266 372 -266 372 -283 c 0,55,56
 372 -312 372 -312 397 -331 c 0,57,58
 436 -361 436 -361 492 -361 c 0,59,60
 559 -361 559 -361 613.5 -309 c 128,-1,61
 668 -257 668 -257 668 -196 c 0,62,63
 668 -134 668 -134 637 -85 c 0,64,65
 589 -10 589 -10 463 85 c 0,66,67
 275 225 275 225 207 332 c 0,68,69
 156 413 156 413 156 504 c 0,70,71
 156 596 156 596 210 685.5 c 128,-1,72
 264 775 264 775 377 843 c 1,0,1
409 812 m 1,73,74
 258 721 258 721 258 590 c 0,75,76
 258 520 258 520 295 461 c 0,77,78
 347 380 347 380 492 270 c 0,79,80
 562 217 562 217 614 169 c 1,81,82
 767 262 767 262 767 389 c 0,83,84
 767 454 767 454 723 524.5 c 128,-1,85
 679 595 679 595 542 702 c 0,86,87
 460 765 460 765 409 812 c 1,73,74
EndSplineSet
EndChar

StartChar: bullet
Encoding: 8226 8226 135
Width: 717
GlyphClass: 1
Flags: W
LayerCount: 2
Fore
SplineSet
363 928 m 0,0,1
 467 928 467 928 540.5 854.5 c 128,-1,2
 614 781 614 781 614 677 c 256,3,4
 614 573 614 573 540.5 499.5 c 128,-1,5
 467 426 467 426 363 426 c 256,6,7
 259 426 259 426 185.5 499.5 c 128,-1,8
 112 573 112 573 112 677 c 256,9,10
 112 781 112 781 185 854.5 c 128,-1,11
 258 928 258 928 363 928 c 0,0,1
EndSplineSet
EndChar

StartChar: paragraph
Encoding: 182 182 136
Width: 928
GlyphClass: 1
Flags: W
LayerCount: 2
Fore
SplineSet
798 1301 m 1,0,-1
 798 -442 l 1,1,-1
 726 -442 l 1,2,-1
 726 1301 l 1,3,-1
 539 1301 l 1,4,-1
 539 -442 l 1,5,-1
 466 -442 l 1,6,-1
 466 601 l 1,7,8
 275 609 275 609 180.5 651.5 c 128,-1,9
 86 694 86 694 36 782.5 c 128,-1,10
 -14 871 -14 871 -14 981 c 256,11,12
 -14 1091 -14 1091 29 1161 c 0,13,14
 87 1257 87 1257 183.5 1306.5 c 128,-1,15
 280 1356 280 1356 436 1356 c 2,16,-1
 931 1356 l 1,17,-1
 931 1301 l 1,18,-1
 798 1301 l 1,0,-1
EndSplineSet
EndChar

StartChar: germandbls
Encoding: 223 223 137
Width: 1024
GlyphClass: 1
Flags: W
LayerCount: 2
Fore
SplineSet
35 0 m 1,0,-1
 35 36 l 1,1,2
 95 41 95 41 120.5 57 c 128,-1,3
 146 73 146 73 156.5 101.5 c 128,-1,4
 167 130 167 130 167 225 c 2,5,-1
 167 966 l 2,6,7
 167 1215 167 1215 260 1319 c 0,8,9
 353 1422 353 1422 524 1422 c 0,10,11
 686 1422 686 1422 781 1330.5 c 128,-1,12
 876 1239 876 1239 876 1097 c 0,13,14
 876 991 876 991 822 917 c 0,15,16
 782 863 782 863 685 821 c 1,17,18
 820 781 820 781 889 682 c 128,-1,19
 958 583 958 583 958 422 c 0,20,21
 958 248 958 248 867 117.5 c 128,-1,22
 776 -13 776 -13 623 -13 c 0,23,24
 536 -13 536 -13 483.5 35 c 128,-1,25
 431 83 431 83 431 149 c 0,26,27
 431 191 431 191 452.5 213.5 c 128,-1,28
 474 236 474 236 510 236 c 0,29,30
 549 236 549 236 570.5 214.5 c 128,-1,31
 592 193 592 193 592 157 c 0,32,33
 592 141 592 141 588 124 c 0,34,35
 582 100 582 100 582 89 c 0,36,37
 582 71 582 71 597 57 c 256,38,39
 612 43 612 43 638 43 c 0,40,41
 698 43 698 43 737 96 c 0,42,43
 788 166 788 166 788 312 c 0,44,45
 788 520 788 520 714.5 642 c 128,-1,46
 641 764 641 764 493 774 c 1,47,-1
 493 831 l 1,48,49
 599 831 599 831 653.5 893.5 c 128,-1,50
 708 956 708 956 708 1102 c 0,51,52
 708 1236 708 1236 655.5 1296 c 128,-1,53
 603 1356 603 1356 516 1356 c 0,54,55
 435 1356 435 1356 384 1292 c 128,-1,56
 333 1228 333 1228 333 1037 c 2,57,-1
 333 0 l 1,58,-1
 35 0 l 1,0,-1
EndSplineSet
EndChar

StartChar: registered
Encoding: 174 174 138
Width: 1556
GlyphClass: 1
Flags: W
LayerCount: 2
Fore
SplineSet
778 1387 m 0,0,1
 957 1387 957 1387 1127 1295.5 c 128,-1,2
 1297 1204 1297 1204 1392.5 1033.5 c 128,-1,3
 1488 863 1488 863 1488 678 c 0,4,5
 1488 494 1488 494 1394 325 c 128,-1,6
 1300 156 1300 156 1131 62.5 c 128,-1,7
 962 -31 962 -31 778 -31 c 256,8,9
 594 -31 594 -31 425.5 62.5 c 128,-1,10
 257 156 257 156 163 325 c 128,-1,11
 69 494 69 494 69 678 c 0,12,13
 69 863 69 863 164.5 1033.5 c 128,-1,14
 260 1204 260 1204 430 1295.5 c 128,-1,15
 600 1387 600 1387 778 1387 c 0,0,1
778 1326 m 0,16,17
 615 1326 615 1326 460 1242 c 128,-1,18
 305 1158 305 1158 218 1002.5 c 128,-1,19
 131 847 131 847 131 678 c 0,20,21
 131 510 131 510 216.5 356 c 128,-1,22
 302 202 302 202 456 116 c 128,-1,23
 610 30 610 30 778 30 c 256,24,25
 946 30 946 30 1100.5 116 c 128,-1,26
 1255 202 1255 202 1340.5 356 c 128,-1,27
 1426 510 1426 510 1426 678 c 0,28,29
 1426 847 1426 847 1339 1002.5 c 128,-1,30
 1252 1158 1252 1158 1097 1242 c 128,-1,31
 942 1326 942 1326 778 1326 c 0,16,17
386 1114 m 1,32,-1
 772 1114 l 2,33,34
 917 1114 917 1114 993 1048.5 c 128,-1,35
 1069 983 1069 983 1069 890 c 0,36,37
 1069 814 1069 814 1017.5 756.5 c 128,-1,38
 966 699 966 699 847 668 c 1,39,-1
 1056 370 l 2,40,41
 1094 317 1094 317 1124 297 c 0,42,43
 1143 285 1143 285 1177 282 c 1,44,-1
 1177 249 l 1,45,-1
 993 249 l 1,46,-1
 699 654 l 1,47,-1
 623 654 l 1,48,-1
 623 345 l 1,49,50
 629 312 629 312 651.5 297 c 128,-1,51
 674 282 674 282 741 282 c 1,52,-1
 741 249 l 1,53,-1
 374 249 l 1,54,-1
 374 282 l 1,55,56
 422 282 422 282 442 293.5 c 128,-1,57
 462 305 462 305 471 327 c 0,58,59
 478 343 478 343 478 420 c 2,60,-1
 478 943 l 2,61,62
 478 1017 478 1017 475 1030 c 0,63,64
 468 1053 468 1053 449.5 1065.5 c 128,-1,65
 431 1078 431 1078 386 1078 c 1,66,-1
 386 1114 l 1,32,-1
623 697 m 1,67,68
 741 697 741 697 795.5 720 c 128,-1,69
 850 743 850 743 879 784.5 c 128,-1,70
 908 826 908 826 908 879 c 0,71,72
 908 960 908 960 851.5 1015 c 128,-1,73
 795 1070 795 1070 707 1070 c 0,74,75
 669 1070 669 1070 623 1054 c 1,76,-1
 623 697 l 1,67,68
EndSplineSet
EndChar

StartChar: copyright
Encoding: 169 169 139
Width: 1556
GlyphClass: 1
Flags: W
LayerCount: 2
Fore
SplineSet
778 1387 m 0,0,1
 957 1387 957 1387 1127 1295.5 c 128,-1,2
 1297 1204 1297 1204 1392.5 1033.5 c 128,-1,3
 1488 863 1488 863 1488 678 c 0,4,5
 1488 494 1488 494 1394 325 c 128,-1,6
 1300 156 1300 156 1131 62.5 c 128,-1,7
 962 -31 962 -31 778 -31 c 256,8,9
 594 -31 594 -31 425.5 62.5 c 128,-1,10
 257 156 257 156 163 325 c 128,-1,11
 69 494 69 494 69 678 c 0,12,13
 69 863 69 863 164.5 1033.5 c 128,-1,14
 260 1204 260 1204 430 1295.5 c 128,-1,15
 600 1387 600 1387 778 1387 c 0,0,1
778 1326 m 0,16,17
 615 1326 615 1326 460 1242 c 128,-1,18
 305 1158 305 1158 218 1002.5 c 128,-1,19
 131 847 131 847 131 678 c 0,20,21
 131 510 131 510 216.5 356 c 128,-1,22
 302 202 302 202 456 116 c 128,-1,23
 610 30 610 30 778 30 c 256,24,25
 946 30 946 30 1100.5 116 c 128,-1,26
 1255 202 1255 202 1340.5 356 c 128,-1,27
 1426 510 1426 510 1426 678 c 0,28,29
 1426 847 1426 847 1339 1002.5 c 128,-1,30
 1252 1158 1252 1158 1097 1242 c 128,-1,31
 942 1326 942 1326 778 1326 c 0,16,17
1129 1134 m 1,32,-1
 1149 854 l 1,33,-1
 1110 854 l 1,34,35
 1074 973 1074 973 995.5 1031.5 c 128,-1,36
 917 1090 917 1090 807 1090 c 0,37,38
 725 1090 725 1090 661 1056 c 128,-1,39
 597 1022 597 1022 556 965 c 0,40,41
 526 922 526 922 506 851 c 128,-1,42
 486 780 486 780 486 701 c 0,43,44
 486 489 486 489 577 388.5 c 128,-1,45
 668 288 668 288 817 288 c 0,46,47
 1012 288 1012 288 1129 450 c 1,48,-1
 1166 431 l 1,49,50
 1027 228 1027 228 783 228 c 0,51,52
 583 228 583 228 451.5 357.5 c 128,-1,53
 320 487 320 487 320 672 c 0,54,55
 320 864 320 864 460 999.5 c 128,-1,56
 600 1135 600 1135 818 1135 c 0,57,58
 864 1135 864 1135 894.5 1129 c 128,-1,59
 925 1123 925 1123 1003 1097 c 0,60,61
 1028 1089 1028 1089 1040 1089 c 0,62,63
 1056 1089 1056 1089 1067 1097.5 c 128,-1,64
 1078 1106 1078 1106 1089 1134 c 1,65,-1
 1129 1134 l 1,32,-1
EndSplineSet
EndChar

StartChar: trademark
Encoding: 8482 8482 140
Width: 2007
GlyphClass: 1
Flags: W
LayerCount: 2
Fore
SplineSet
51 1356 m 1,0,-1
 779 1356 l 1,1,-1
 801 1155 l 1,2,-1
 767 1155 l 1,3,4
 757 1227 757 1227 714.5 1261.5 c 128,-1,5
 672 1296 672 1296 573 1296 c 2,6,-1
 498 1296 l 1,7,-1
 498 717 l 2,8,9
 498 633 498 633 518 610.5 c 128,-1,10
 538 588 538 588 604 585 c 1,11,-1
 604 549 l 1,12,-1
 230 549 l 1,13,-1
 230 585 l 1,14,15
 295 591 295 591 312.5 612.5 c 128,-1,16
 330 634 330 634 330 716 c 2,17,-1
 330 1296 l 1,18,-1
 254 1296 l 2,19,20
 159 1296 159 1296 119 1264.5 c 128,-1,21
 79 1233 79 1233 64 1155 c 1,22,-1
 30 1155 l 1,23,-1
 51 1356 l 1,0,-1
1156 1356 m 1,24,-1
 1429 784 l 1,25,-1
 1694 1356 l 1,26,-1
 1973 1356 l 1,27,-1
 1973 1319 l 1,28,29
 1917 1318 1917 1318 1898.5 1308 c 128,-1,30
 1880 1298 1880 1298 1871 1276 c 128,-1,31
 1862 1254 1862 1254 1862 1184 c 2,32,-1
 1862 716 l 2,33,34
 1862 631 1862 631 1881 610 c 128,-1,35
 1900 589 1900 589 1973 585 c 1,36,-1
 1973 549 l 1,37,-1
 1575 549 l 1,38,-1
 1575 585 l 1,39,40
 1634 586 1634 586 1654.5 597 c 128,-1,41
 1675 608 1675 608 1684.5 629 c 128,-1,42
 1694 650 1694 650 1694 715 c 2,43,-1
 1694 1207 l 1,44,-1
 1387 549 l 1,45,-1
 1355 549 l 1,46,-1
 1047 1198 l 1,47,-1
 1047 716 l 2,48,49
 1047 648 1047 648 1055.5 627.5 c 128,-1,50
 1064 607 1064 607 1082.5 596 c 128,-1,51
 1101 585 1101 585 1140 585 c 2,52,-1
 1176 585 l 1,53,-1
 1176 549 l 1,54,-1
 870 549 l 1,55,-1
 870 585 l 1,56,57
 926 585 926 585 945.5 595 c 128,-1,58
 965 605 965 605 974 626 c 128,-1,59
 983 647 983 647 983 716 c 2,60,-1
 983 1182 l 2,61,62
 983 1258 983 1258 974.5 1278 c 128,-1,63
 966 1298 966 1298 946 1308.5 c 128,-1,64
 926 1319 926 1319 870 1319 c 1,65,-1
 870 1356 l 1,66,-1
 1156 1356 l 1,24,-1
EndSplineSet
EndChar

StartChar: acute
Encoding: 180 180 141
Width: 682
GlyphClass: 1
Flags: W
LayerCount: 2
Fore
SplineSet
565 1390 m 1,0,-1
 270 1045 l 1,1,-1
 236 1045 l 1,2,-1
 341 1390 l 1,3,-1
 565 1390 l 1,0,-1
EndSplineSet
EndChar

StartChar: dieresis
Encoding: 168 168 142
Width: 682
GlyphClass: 1
Flags: W
LayerCount: 2
Fore
SplineSet
518 1337 m 256,0,1
 563 1337 563 1337 594.5 1305 c 128,-1,2
 626 1273 626 1273 626 1228 c 256,3,4
 626 1183 626 1183 594.5 1151.5 c 128,-1,5
 563 1120 563 1120 518 1120 c 256,6,7
 473 1120 473 1120 441 1151.5 c 128,-1,8
 409 1183 409 1183 409 1228 c 256,9,10
 409 1273 409 1273 441 1305 c 128,-1,11
 473 1337 473 1337 518 1337 c 256,0,1
165 1337 m 0,12,13
 211 1337 211 1337 242.5 1305 c 128,-1,14
 274 1273 274 1273 274 1228 c 256,15,16
 274 1183 274 1183 242 1151.5 c 128,-1,17
 210 1120 210 1120 166 1120 c 0,18,19
 121 1120 121 1120 89 1151.5 c 128,-1,20
 57 1183 57 1183 57 1228 c 256,21,22
 57 1273 57 1273 88.5 1305 c 128,-1,23
 120 1337 120 1337 165 1337 c 0,12,13
EndSplineSet
EndChar

StartChar: notequal
Encoding: 8800 8800 143
Width: 1124
GlyphClass: 1
Flags: W
LayerCount: 2
Fore
SplineSet
25 818 m 1,0,-1
 627 818 l 1,1,-1
 837 1351 l 1,2,-1
 917 1351 l 1,3,-1
 711 818 l 1,4,-1
 1099 818 l 1,5,-1
 1099 724 l 1,6,-1
 674 724 l 1,7,-1
 530 354 l 1,8,-1
 1099 354 l 1,9,-1
 1099 261 l 1,10,-1
 494 261 l 1,11,-1
 283 -270 l 1,12,-1
 203 -270 l 1,13,-1
 412 261 l 1,14,-1
 25 261 l 1,15,-1
 25 354 l 1,16,-1
 448 354 l 1,17,-1
 593 724 l 1,18,-1
 25 724 l 1,19,-1
 25 818 l 1,0,-1
EndSplineSet
EndChar

StartChar: AE
Encoding: 198 198 144
Width: 1821
GlyphClass: 1
Flags: W
LayerCount: 2
Fore
SplineSet
1027 1282 m 1,0,-1
 1027 746 l 1,1,-1
 1284 746 l 2,2,3
 1399 746 1399 746 1446 789 c 128,-1,4
 1493 832 1493 832 1501 943 c 1,5,-1
 1537 943 l 1,6,-1
 1537 472 l 1,7,-1
 1501 472 l 1,8,9
 1489 572 1489 572 1468.5 606.5 c 128,-1,10
 1448 641 1448 641 1400 662 c 0,11,12
 1377 673 1377 673 1284 673 c 2,13,-1
 1027 673 l 1,14,-1
 1027 224 l 2,15,16
 1027 133 1027 133 1034 115.5 c 128,-1,17
 1041 98 1041 98 1063 86 c 128,-1,18
 1085 74 1085 74 1142 74 c 2,19,-1
 1324 74 l 2,20,21
 1433 74 1433 74 1492 92 c 128,-1,22
 1551 110 1551 110 1606 162 c 0,23,24
 1679 230 1679 230 1726 341 c 1,25,-1
 1764 341 l 1,26,-1
 1656 0 l 1,27,-1
 638 0 l 1,28,-1
 638 37 l 1,29,-1
 689 37 l 2,30,31
 772 37 772 37 811 86 c 0,32,33
 835 118 835 118 835 239 c 2,34,-1
 835 525 l 1,35,-1
 439 525 l 1,36,-1
 315 292 l 2,37,38
 245 160 245 160 245 119 c 0,39,40
 245 91 245 91 275.5 67.5 c 128,-1,41
 306 44 306 44 402 37 c 1,42,-1
 402 0 l 1,43,-1
 -24 0 l 1,44,-1
 -24 37 l 1,45,46
 20 38 20 38 51.5 56 c 128,-1,47
 83 74 83 74 120 121 c 128,-1,48
 157 168 157 168 214 274 c 2,49,-1
 626 1045 l 2,50,51
 703 1188 703 1188 703 1238 c 0,52,53
 703 1270 703 1270 676 1288 c 0,54,55
 642 1313 642 1313 530 1319 c 1,56,-1
 530 1356 l 1,57,-1
 1641 1356 l 1,58,-1
 1656 1058 l 1,59,-1
 1622 1058 l 1,60,61
 1609 1161 1609 1161 1572 1215 c 0,62,63
 1545 1254 1545 1254 1494 1272 c 0,64,65
 1465 1282 1465 1282 1358 1282 c 2,66,-1
 1027 1282 l 1,0,-1
835 1282 m 1,67,-1
 478 598 l 1,68,-1
 835 598 l 1,69,-1
 835 1282 l 1,67,-1
EndSplineSet
EndChar

StartChar: Oslash
Encoding: 216 216 145
Width: 1479
GlyphClass: 1
Flags: W
LayerCount: 2
Fore
SplineSet
1147 1238 m 1,0,-1
 1278 1400 l 1,1,-1
 1336 1356 l 1,2,-1
 1203 1189 l 1,3,4
 1307 1076 1307 1076 1354 960 c 128,-1,5
 1401 844 1401 844 1401 687 c 0,6,7
 1401 344 1401 344 1157 132 c 0,8,9
 969 -31 969 -31 744 -31 c 0,10,11
 641 -31 641 -31 527.5 6.5 c 128,-1,12
 414 44 414 44 330 112 c 1,13,-1
 201 -47 l 1,14,-1
 142 0 l 1,15,-1
 274 164 l 1,16,17
 73 371 73 371 73 692 c 0,18,19
 73 986 73 986 269 1186.5 c 128,-1,20
 465 1387 465 1387 741 1387 c 0,21,22
 968 1387 968 1387 1147 1238 c 1,0,-1
1063 1135 m 1,23,24
 947 1316 947 1316 736 1316 c 0,25,26
 643 1316 643 1316 589 1294 c 0,27,28
 514 1264 514 1264 455 1198 c 0,29,30
 376 1110 376 1110 339 983 c 128,-1,31
 302 856 302 856 302 697 c 0,32,33
 302 466 302 466 375 289 c 1,34,-1
 1063 1135 l 1,23,24
1101 1063 m 1,35,-1
 416 217 l 1,36,37
 470 135 470 135 532 97 c 0,38,39
 621 41 621 41 730 41 c 0,40,41
 835 41 835 41 902 72.5 c 128,-1,42
 969 104 969 104 1027.5 170 c 128,-1,43
 1086 236 1086 236 1128 356 c 128,-1,44
 1170 476 1170 476 1170 656 c 0,45,46
 1170 779 1170 779 1152 884 c 0,47,48
 1138 961 1138 961 1101 1063 c 1,35,-1
EndSplineSet
EndChar

StartChar: infinity
Encoding: 8734 8734 146
Width: 1460
GlyphClass: 1
Flags: W
LayerCount: 2
Fore
SplineSet
653 667 m 1,0,1
 721 823 721 823 802 883.5 c 128,-1,2
 883 944 883 944 1023 944 c 0,3,4
 1184 944 1184 944 1295 828 c 128,-1,5
 1406 712 1406 712 1406 527 c 0,6,7
 1406 344 1406 344 1298 225.5 c 128,-1,8
 1190 107 1190 107 1057 107 c 0,9,10
 958 107 958 107 873 180 c 0,11,12
 817 228 817 228 720 393 c 1,13,14
 656 269 656 269 580 214.5 c 128,-1,15
 504 160 504 160 396 160 c 0,16,17
 252 160 252 160 152.5 263 c 128,-1,18
 53 366 53 366 53 529 c 0,19,20
 53 694 53 694 145 795 c 128,-1,21
 237 896 237 896 360 896 c 0,22,23
 446 896 446 896 512 851.5 c 128,-1,24
 578 807 578 807 653 667 c 1,0,1
749 464 m 1,25,26
 824 308 824 308 897 254.5 c 128,-1,27
 970 201 970 201 1061 201 c 0,28,29
 1184 201 1184 201 1266.5 289.5 c 128,-1,30
 1349 378 1349 378 1349 527 c 0,31,32
 1349 674 1349 674 1262 770 c 128,-1,33
 1175 866 1175 866 1067 866 c 0,34,35
 998 866 998 866 946.5 831 c 128,-1,36
 895 796 895 796 853 719 c 0,37,38
 829 674 829 674 749 464 c 1,25,26
624 590 m 1,39,40
 575 700 575 700 512 752 c 128,-1,41
 449 804 449 804 357 804 c 0,42,43
 251 804 251 804 179.5 729.5 c 128,-1,44
 108 655 108 655 108 530 c 0,45,46
 108 397 108 397 178.5 317.5 c 128,-1,47
 249 238 249 238 338 238 c 0,48,49
 433 238 433 238 506 323 c 0,50,51
 553 379 553 379 624 590 c 1,39,40
EndSplineSet
EndChar

StartChar: plusminus
Encoding: 177 177 147
Width: 1124
GlyphClass: 1
Flags: W
LayerCount: 2
Fore
SplineSet
8 141 m 1,0,-1
 8 222 l 1,1,-1
 506 222 l 1,2,-1
 506 640 l 1,3,-1
 8 640 l 1,4,-1
 8 722 l 1,5,-1
 506 722 l 1,6,-1
 506 1219 l 1,7,-1
 586 1219 l 1,8,-1
 586 722 l 1,9,-1
 1086 722 l 1,10,-1
 1086 640 l 1,11,-1
 586 640 l 1,12,-1
 586 222 l 1,13,-1
 1087 222 l 1,14,-1
 1087 141 l 1,15,-1
 8 141 l 1,0,-1
EndSplineSet
EndChar

StartChar: lessequal
Encoding: 8804 8804 148
Width: 1124
GlyphClass: 1
Flags: W
LayerCount: 2
Fore
SplineSet
1098 246 m 1,0,-1
 25 702 l 1,1,-1
 25 785 l 1,2,-1
 1098 1239 l 1,3,-1
 1098 1137 l 1,4,-1
 148 744 l 1,5,-1
 1098 348 l 1,6,-1
 1098 246 l 1,0,-1
24 -70 m 1,7,-1
 1100 -70 l 1,8,-1
 1100 -163 l 1,9,-1
 24 -163 l 1,10,-1
 24 -70 l 1,7,-1
EndSplineSet
EndChar

StartChar: greaterequal
Encoding: 8805 8805 149
Width: 1124
GlyphClass: 1
Flags: W
LayerCount: 2
Fore
SplineSet
25 1239 m 1,0,-1
 1098 783 l 1,1,-1
 1098 700 l 1,2,-1
 25 246 l 1,3,-1
 25 348 l 1,4,-1
 975 741 l 1,5,-1
 25 1137 l 1,6,-1
 25 1239 l 1,0,-1
24 -70 m 1,7,-1
 1100 -70 l 1,8,-1
 1100 -163 l 1,9,-1
 24 -163 l 1,10,-1
 24 -70 l 1,7,-1
EndSplineSet
EndChar

StartChar: yen
Encoding: 165 165 150
Width: 1024
GlyphClass: 1
Flags: W
LayerCount: 2
Fore
SplineSet
597 425 m 1,0,-1
 1023 425 l 1,1,-1
 1023 352 l 1,2,-1
 597 352 l 1,3,-1
 597 244 l 2,4,5
 597 132 597 132 608 101 c 0,6,7
 617 79 617 79 642 63 c 0,8,9
 679 41 679 41 727 41 c 2,10,-1
 768 41 l 1,11,-1
 768 0 l 1,12,-1
 253 0 l 1,13,-1
 253 41 l 1,14,-1
 285 41 l 2,15,16
 355 41 355 41 389 67 c 0,17,18
 413 86 413 86 422 124 c 0,19,20
 426 143 426 143 426 244 c 2,21,-1
 426 352 l 1,22,-1
 2 352 l 1,23,-1
 2 425 l 1,24,-1
 426 425 l 1,25,-1
 426 569 l 1,26,-1
 411 605 l 1,27,-1
 2 605 l 1,28,-1
 2 678 l 1,29,-1
 379 678 l 1,30,-1
 166 1174 l 2,31,32
 129 1261 129 1261 93.5 1289 c 128,-1,33
 58 1317 58 1317 2 1318 c 1,34,-1
 2 1356 l 1,35,-1
 444 1356 l 1,36,-1
 444 1318 l 1,37,38
 372 1313 372 1313 347.5 1295 c 128,-1,39
 323 1277 323 1277 323 1256 c 0,40,41
 323 1240 323 1240 341 1197 c 2,42,-1
 555 678 l 1,43,-1
 768 1182 l 2,44,45
 789 1232 789 1232 789 1257 c 0,46,47
 789 1278 789 1278 768 1298 c 0,48,49
 754 1311 754 1311 704 1315 c 0,50,51
 695 1315 695 1315 677 1318 c 1,52,-1
 677 1356 l 1,53,-1
 1023 1356 l 1,54,-1
 1023 1318 l 1,55,56
 963 1318 963 1318 936 1295 c 0,57,58
 893 1260 893 1260 850 1163 c 2,59,-1
 636 678 l 1,60,-1
 1023 678 l 1,61,-1
 1023 605 l 1,62,-1
 604 605 l 1,63,-1
 597 589 l 1,64,-1
 597 425 l 1,0,-1
EndSplineSet
EndChar

StartChar: mu1
Encoding: 181 181 151
Width: 1180
GlyphClass: 1
Flags: W
LayerCount: 2
Fore
SplineSet
196 916 m 1,0,-1
 360 916 l 1,1,-1
 360 383 l 2,2,3
 360 238 360 238 378 185 c 0,4,5
 391 145 391 145 426 120 c 128,-1,6
 461 95 461 95 502 95 c 0,7,8
 620 95 620 95 738 229 c 1,9,-1
 738 916 l 1,10,-1
 903 916 l 1,11,-1
 903 262 l 2,12,13
 903 162 903 162 911 131 c 0,14,15
 918 107 918 107 935 93.5 c 128,-1,16
 952 80 952 80 971 80 c 0,17,18
 997 80 997 80 1015 102 c 0,19,20
 1041 133 1041 133 1052 204 c 1,21,-1
 1094 204 l 1,22,23
 1085 83 1085 83 1031 27.5 c 128,-1,24
 977 -28 977 -28 896 -28 c 0,25,26
 818 -28 818 -28 776 30 c 0,27,28
 746 73 746 73 738 162 c 1,29,30
 651 60 651 60 576 16 c 128,-1,31
 501 -28 501 -28 424 -28 c 0,32,33
 371 -28 371 -28 332 -7 c 0,34,35
 304 9 304 9 269 57 c 1,36,37
 268 26 268 26 268 11 c 0,38,39
 268 -68 268 -68 302 -228 c 0,40,41
 315 -289 315 -289 315 -332 c 0,42,43
 315 -380 315 -380 287 -411 c 128,-1,44
 259 -442 259 -442 221 -442 c 0,45,46
 184 -442 184 -442 159 -413 c 128,-1,47
 134 -384 134 -384 134 -333 c 0,48,49
 134 -287 134 -287 163 -168 c 0,50,51
 183 -88 183 -88 185 -64 c 0,52,53
 197 39 197 39 197 115 c 0,54,55
 197 120 197 120 196 190 c 2,56,-1
 196 916 l 1,0,-1
EndSplineSet
EndChar

StartChar: partialdiff
Encoding: 8706 8706 152
Width: 1012
GlyphClass: 1
Flags: W
LayerCount: 2
Fore
SplineSet
929 717 m 1,0,1
 941 830 941 830 941 903 c 0,2,3
 941 1083 941 1083 846.5 1181.5 c 128,-1,4
 752 1280 752 1280 595 1280 c 0,5,6
 489 1280 489 1280 419 1240 c 128,-1,7
 349 1200 349 1200 294 1121 c 1,8,-1
 248 1121 l 1,9,10
 325 1279 325 1279 414 1350.5 c 128,-1,11
 503 1422 503 1422 629 1422 c 0,12,13
 719 1422 719 1422 804.5 1373 c 128,-1,14
 890 1324 890 1324 942.5 1215 c 128,-1,15
 995 1106 995 1106 995 920 c 0,16,17
 995 566 995 566 841 284 c 0,18,19
 668 -31 668 -31 403 -31 c 0,20,21
 247 -31 247 -31 155.5 59 c 128,-1,22
 64 149 64 149 64 304 c 0,23,24
 64 421 64 421 110.5 533.5 c 128,-1,25
 157 646 157 646 228 724 c 128,-1,26
 299 802 299 802 386 848 c 0,27,28
 499 908 499 908 616 908 c 0,29,30
 698 908 698 908 764.5 876.5 c 128,-1,31
 831 845 831 845 874 800 c 0,32,33
 901 772 901 772 929 717 c 1,0,1
912 628 m 1,34,35
 873 739 873 739 795.5 796 c 128,-1,36
 718 853 718 853 625 853 c 0,37,38
 535 853 535 853 448 791 c 128,-1,39
 361 729 361 729 297 573.5 c 128,-1,40
 233 418 233 418 233 263 c 0,41,42
 233 149 233 149 288 87.5 c 128,-1,43
 343 26 343 26 428 26 c 0,44,45
 551 26 551 26 679 156 c 0,46,47
 842 322 842 322 912 628 c 1,34,35
EndSplineSet
EndChar

StartChar: summation
Encoding: 8721 8721 153
Width: 1460
GlyphClass: 1
Flags: W
LayerCount: 2
Fore
SplineSet
1356 -442 m 1,0,-1
 43 -442 l 1,1,-1
 43 -405 l 1,2,-1
 712 496 l 1,3,-1
 43 1383 l 1,4,-1
 43 1420 l 1,5,-1
 1321 1420 l 1,6,-1
 1348 1083 l 1,7,-1
 1308 1083 l 1,8,9
 1292 1221 1292 1221 1230.5 1280 c 128,-1,10
 1169 1339 1169 1339 1059 1339 c 2,11,-1
 319 1339 l 1,12,-1
 881 582 l 1,13,-1
 252 -265 l 1,14,-1
 1070 -265 l 2,15,16
 1140 -265 1140 -265 1223 -238 c 0,17,18
 1280 -220 1280 -220 1317.5 -171.5 c 128,-1,19
 1355 -123 1355 -123 1380 -19 c 1,20,-1
 1420 -27 l 1,21,-1
 1356 -442 l 1,0,-1
EndSplineSet
EndChar

StartChar: product
Encoding: 8719 8719 154
Width: 1686
GlyphClass: 1
Flags: W
LayerCount: 2
Fore
SplineSet
1240 1342 m 1,0,-1
 445 1342 l 1,1,-1
 445 -249 l 2,2,3
 445 -332 445 -332 482 -368 c 128,-1,4
 519 -404 519 -404 607 -404 c 2,5,-1
 643 -404 l 1,6,-1
 643 -442 l 1,7,-1
 46 -442 l 1,8,-1
 46 -404 l 1,9,-1
 81 -404 l 2,10,11
 169 -404 169 -404 206.5 -368.5 c 128,-1,12
 244 -333 244 -333 244 -249 c 2,13,-1
 244 1228 l 2,14,15
 244 1311 244 1311 207 1347 c 128,-1,16
 170 1383 170 1383 81 1383 c 2,17,-1
 46 1383 l 1,18,-1
 46 1420 l 1,19,-1
 1640 1420 l 1,20,-1
 1640 1383 l 1,21,-1
 1605 1383 l 2,22,23
 1517 1383 1517 1383 1480 1347 c 128,-1,24
 1443 1311 1443 1311 1443 1228 c 2,25,-1
 1443 -249 l 2,26,27
 1443 -332 1443 -332 1480 -368 c 128,-1,28
 1517 -404 1517 -404 1605 -404 c 2,29,-1
 1640 -404 l 1,30,-1
 1640 -442 l 1,31,-1
 1043 -442 l 1,32,-1
 1043 -404 l 1,33,-1
 1078 -404 l 2,34,35
 1166 -404 1166 -404 1203 -368.5 c 128,-1,36
 1240 -333 1240 -333 1240 -249 c 2,37,-1
 1240 1342 l 1,0,-1
EndSplineSet
EndChar

StartChar: pi1
Encoding: 65539 -1 155
Width: 1124
GlyphClass: 1
Flags: W
LayerCount: 2
Fore
SplineSet
1024 916 m 1,0,-1
 1024 770 l 1,1,-1
 792 770 l 1,2,3
 775 666 775 666 764 529.5 c 128,-1,4
 753 393 753 393 753 312 c 0,5,6
 753 222 753 222 788.5 180.5 c 128,-1,7
 824 139 824 139 878 139 c 0,8,9
 922 139 922 139 952 167 c 128,-1,10
 982 195 982 195 988 250 c 1,11,-1
 1024 250 l 1,12,13
 1006 100 1006 100 948 36 c 128,-1,14
 890 -28 890 -28 818 -28 c 0,15,16
 744 -28 744 -28 693.5 41.5 c 128,-1,17
 643 111 643 111 643 318 c 0,18,19
 643 409 643 409 654 522 c 0,20,21
 671 705 671 705 681 770 c 1,22,-1
 446 770 l 1,23,-1
 431 537 l 2,24,25
 419 388 419 388 392.5 239 c 128,-1,26
 366 90 366 90 337 37 c 0,27,28
 317 -1 317 -1 295.5 -14.5 c 128,-1,29
 274 -28 274 -28 252 -28 c 0,30,31
 213 -28 213 -28 187.5 -3.5 c 128,-1,32
 162 21 162 21 162 55 c 0,33,34
 162 83 162 83 172 107 c 0,35,36
 178 122 178 122 227 190 c 0,37,38
 260 235 260 235 278 287 c 128,-1,39
 296 339 296 339 311 456 c 0,40,41
 314 477 314 477 335 770 c 1,42,-1
 306 770 l 2,43,44
 236 770 236 770 192 742 c 128,-1,45
 148 714 148 714 98 629 c 1,46,-1
 62 629 l 1,47,48
 94 749 94 749 143 814 c 128,-1,49
 192 879 192 879 238 897.5 c 128,-1,50
 284 916 284 916 386 916 c 2,51,-1
 1024 916 l 1,0,-1
EndSplineSet
EndChar

StartChar: integral
Encoding: 8747 8747 156
Width: 561
GlyphClass: 1
Flags: W
LayerCount: 2
Fore
SplineSet
200 895 m 1,0,-1
 218 1476 l 2,1,2
 226 1630 226 1630 268 1731 c 0,3,4
 295 1798 295 1798 342 1830.5 c 128,-1,5
 389 1863 389 1863 435 1863 c 0,6,7
 485 1863 485 1863 522.5 1829.5 c 128,-1,8
 560 1796 560 1796 560 1756 c 0,9,10
 560 1709 560 1709 533.5 1680.5 c 128,-1,11
 507 1652 507 1652 468 1652 c 0,12,13
 433 1652 433 1652 392 1688 c 0,14,15
 369 1708 369 1708 352 1708 c 256,16,17
 335 1708 335 1708 323.5 1693.5 c 128,-1,18
 312 1679 312 1679 312 1644 c 0,19,20
 312 1603 312 1603 321 1499 c 0,21,22
 358 1088 358 1088 358 836 c 0,23,24
 358 766 358 766 342 246 c 0,25,26
 334 -49 334 -49 252 -153 c 0,27,28
 198 -220 198 -220 118 -220 c 0,29,30
 66 -220 66 -220 33 -186 c 128,-1,31
 0 -152 0 -152 0 -99 c 0,32,33
 0 -54 0 -54 25.5 -27 c 128,-1,34
 51 0 51 0 90 0 c 0,35,36
 130 0 130 0 159 -32 c 128,-1,37
 188 -64 188 -64 208 -64 c 0,38,39
 225 -64 225 -64 236 -50 c 128,-1,40
 247 -36 247 -36 247 -3 c 0,41,42
 247 39 247 39 238 117 c 0,43,44
 221 260 221 260 212 455 c 0,45,46
 200 704 200 704 200 895 c 1,0,-1
EndSplineSet
EndChar

StartChar: ordfeminine
Encoding: 170 170 157
Width: 565
GlyphClass: 1
Flags: W
LayerCount: 2
Fore
SplineSet
340 1180 m 1,0,1
 340 1289 340 1289 313.5 1322.5 c 128,-1,2
 287 1356 287 1356 234 1356 c 0,3,4
 186 1356 186 1356 163 1334.5 c 128,-1,5
 140 1313 140 1313 140 1267 c 0,6,7
 140 1222 140 1222 123.5 1201.5 c 128,-1,8
 107 1181 107 1181 82 1181 c 0,9,10
 59 1181 59 1181 42.5 1198 c 128,-1,11
 26 1215 26 1215 26 1241 c 0,12,13
 26 1296 26 1296 82.5 1340 c 128,-1,14
 139 1384 139 1384 260 1384 c 0,15,16
 352 1384 352 1384 401.5 1353 c 128,-1,17
 451 1322 451 1322 464.5 1289 c 128,-1,18
 478 1256 478 1256 478 1180 c 2,19,-1
 478 962 l 2,20,21
 478 909 478 909 480 901 c 0,22,23
 483 888 483 888 491 881 c 0,24,25
 498 875 498 875 504 875 c 0,26,27
 518 875 518 875 562 905 c 1,28,-1
 562 857 l 1,29,30
 489 804 489 804 464 793.5 c 128,-1,31
 439 783 439 783 413 783 c 0,32,33
 388 783 388 783 368.5 803.5 c 128,-1,34
 349 824 349 824 340 878 c 1,35,36
 277 833 277 833 223 810 c 128,-1,37
 169 787 169 787 125 787 c 0,38,39
 72 787 72 787 33 825 c 128,-1,40
 -6 863 -6 863 -6 911 c 0,41,42
 -6 955 -6 955 16 988 c 0,43,44
 46 1034 46 1034 123 1081 c 0,45,46
 175 1112 175 1112 340 1180 c 1,0,1
340 1142 m 1,47,48
 220 1102 220 1102 176.5 1054 c 128,-1,49
 133 1006 133 1006 133 958 c 0,50,51
 133 924 133 924 158.5 898 c 128,-1,52
 184 872 184 872 222 872 c 0,53,54
 244 872 244 872 273.5 883 c 128,-1,55
 303 894 303 894 340 916 c 1,56,-1
 340 1142 l 1,47,48
EndSplineSet
EndChar

StartChar: ordmasculine
Encoding: 186 186 158
Width: 635
GlyphClass: 1
Flags: W
LayerCount: 2
Fore
SplineSet
324 1384 m 0,0,1
 448 1384 448 1384 529.5 1299.5 c 128,-1,2
 611 1215 611 1215 611 1091 c 256,3,4
 611 967 611 967 522 877 c 128,-1,5
 433 787 433 787 311 787 c 0,6,7
 193 787 193 787 111 868.5 c 128,-1,8
 29 950 29 950 29 1075 c 0,9,10
 29 1213 29 1213 111.5 1298.5 c 128,-1,11
 194 1384 194 1384 324 1384 c 0,0,1
296 1341 m 0,12,13
 244 1341 244 1341 207 1296 c 128,-1,14
 170 1251 170 1251 170 1153 c 0,15,16
 170 994 170 994 239 895 c 0,17,18
 278 838 278 838 341 838 c 0,19,20
 398 838 398 838 435.5 882.5 c 128,-1,21
 473 927 473 927 473 1023 c 0,22,23
 473 1180 473 1180 402 1279 c 0,24,25
 358 1341 358 1341 296 1341 c 0,12,13
EndSplineSet
EndChar

StartChar: Ohm
Encoding: 8486 8486 159
Width: 1573
GlyphClass: 1
Flags: W
LayerCount: 2
Fore
SplineSet
645 290 m 1,0,-1
 675 0 l 1,1,-1
 71 0 l 1,2,-1
 71 334 l 1,3,-1
 105 334 l 1,4,5
 125 255 125 255 152 233 c 128,-1,6
 179 211 179 211 251 211 c 2,7,-1
 554 211 l 1,8,-1
 554 240 l 1,9,10
 396 287 396 287 306 358 c 128,-1,11
 216 429 216 429 163 549.5 c 128,-1,12
 110 670 110 670 110 794 c 0,13,14
 110 946 110 946 191 1087.5 c 128,-1,15
 272 1229 272 1229 427 1305.5 c 128,-1,16
 582 1382 582 1382 787 1382 c 0,17,18
 991 1382 991 1382 1146 1306 c 128,-1,19
 1301 1230 1301 1230 1382 1088.5 c 128,-1,20
 1463 947 1463 947 1463 794 c 0,21,22
 1463 669 1463 669 1410 549 c 128,-1,23
 1357 429 1357 429 1267.5 358 c 128,-1,24
 1178 287 1178 287 1019 240 c 1,25,-1
 1019 211 l 1,26,-1
 1322 211 l 2,27,28
 1395 211 1395 211 1422 233 c 128,-1,29
 1449 255 1449 255 1469 334 c 1,30,-1
 1503 334 l 1,31,-1
 1503 0 l 1,32,-1
 898 0 l 1,33,-1
 929 290 l 1,34,35
 1052 335 1052 335 1114 421 c 0,36,37
 1218 566 1218 566 1218 797 c 0,38,39
 1218 1053 1218 1053 1102.5 1183 c 128,-1,40
 987 1313 987 1313 792 1313 c 0,41,42
 587 1313 587 1313 486 1199 c 0,43,44
 356 1053 356 1053 356 798 c 0,45,46
 356 652 356 652 396.5 541.5 c 128,-1,47
 437 431 437 431 509 366 c 0,48,49
 557 322 557 322 645 290 c 1,0,-1
EndSplineSet
EndChar

StartChar: ae
Encoding: 230 230 160
Width: 1366
GlyphClass: 1
Flags: W
LayerCount: 2
Fore
SplineSet
734 567 m 1,0,1
 733 516 733 516 733 493 c 0,2,3
 733 292 733 292 805 207 c 128,-1,4
 877 122 877 122 989 122 c 0,5,6
 1086 122 1086 122 1165 183 c 0,7,8
 1215 222 1215 222 1272 342 c 1,9,-1
 1304 320 l 1,10,11
 1268 158 1268 158 1149 50 c 0,12,13
 1063 -28 1063 -28 934 -28 c 0,14,15
 826 -28 826 -28 749 19 c 0,16,17
 713 42 713 42 638 132 c 1,18,19
 626 123 626 123 583 89 c 0,20,21
 525 42 525 42 505 31 c 0,22,23
 458 4 458 4 405 -12 c 128,-1,24
 352 -28 352 -28 296 -28 c 0,25,26
 202 -28 202 -28 137.5 38.5 c 128,-1,27
 73 105 73 105 73 201 c 0,28,29
 73 288 73 288 116.5 349 c 128,-1,30
 160 410 160 410 287 475 c 0,31,32
 443 555 443 555 563 597 c 1,33,-1
 563 689 l 2,34,35
 563 797 563 797 523 841.5 c 128,-1,36
 483 886 483 886 416 886 c 0,37,38
 350 886 350 886 313 854 c 0,39,40
 275 821 275 821 275 781 c 0,41,42
 275 697 275 697 266.5 672 c 128,-1,43
 258 647 258 647 240 634 c 128,-1,44
 222 621 222 621 195 621 c 0,45,46
 156 621 156 621 135 644 c 0,47,48
 105 676 105 676 105 716 c 0,49,50
 105 768 105 768 141.5 820 c 128,-1,51
 178 872 178 872 256.5 908 c 128,-1,52
 335 944 335 944 440 944 c 0,53,54
 564 944 564 944 627 908.5 c 128,-1,55
 690 873 690 873 710 821 c 1,56,57
 758 881 758 881 811 908 c 0,58,59
 882 944 882 944 979 944 c 0,60,61
 1123 944 1123 944 1213.5 847 c 128,-1,62
 1304 750 1304 750 1304 567 c 1,63,-1
 734 567 l 1,0,1
734 632 m 1,64,-1
 1112 632 l 1,65,66
 1110 758 1110 758 1058.5 815.5 c 128,-1,67
 1007 873 1007 873 927 873 c 256,68,69
 847 873 847 873 791.5 810.5 c 128,-1,70
 736 748 736 748 734 632 c 1,64,-1
610 184 m 1,71,72
 589 229 589 229 576 301.5 c 128,-1,73
 563 374 563 374 563 443 c 2,74,-1
 563 532 l 1,75,76
 428 490 428 490 315 404 c 0,77,78
 241 347 241 347 241 258 c 0,79,80
 241 179 241 179 288.5 129 c 128,-1,81
 336 79 336 79 402 79 c 0,82,83
 441 79 441 79 484.5 99.5 c 128,-1,84
 528 120 528 120 610 184 c 1,71,72
EndSplineSet
EndChar

StartChar: oslash
Encoding: 248 248 161
Width: 1024
GlyphClass: 1
Flags: W
LayerCount: 2
Fore
SplineSet
806 832 m 1,0,-1
 939 979 l 1,1,-1
 985 936 l 1,2,-1
 850 784 l 1,3,4
 956 649 956 649 956 472 c 0,5,6
 956 354 956 354 898 227.5 c 128,-1,7
 840 101 840 101 737.5 36.5 c 128,-1,8
 635 -28 635 -28 507 -28 c 0,9,10
 424 -28 424 -28 360 -2.5 c 128,-1,11
 296 23 296 23 221 86 c 1,12,-1
 86 -67 l 1,13,-1
 39 -24 l 1,14,-1
 180 135 l 1,15,16
 130 197 130 197 102 287 c 128,-1,17
 74 377 74 377 74 455 c 0,18,19
 74 574 74 574 134.5 695 c 128,-1,20
 195 816 195 816 297 879.5 c 128,-1,21
 399 943 399 943 521 943 c 0,22,23
 603 943 603 943 669.5 917 c 128,-1,24
 736 891 736 891 806 832 c 1,0,-1
704 719 m 1,25,26
 653 808 653 808 603.5 842.5 c 128,-1,27
 554 877 554 877 488 877 c 0,28,29
 390 877 390 877 325 797 c 128,-1,30
 260 717 260 717 260 532 c 0,31,32
 260 408 260 408 299 270 c 1,33,-1
 704 719 l 1,25,26
732 654 m 1,34,-1
 329 204 l 1,35,36
 380 112 380 112 429 77.5 c 128,-1,37
 478 43 478 43 547 43 c 0,38,39
 646 43 646 43 708.5 123 c 128,-1,40
 771 203 771 203 771 402 c 0,41,42
 771 523 771 523 732 654 c 1,34,-1
EndSplineSet
EndChar

StartChar: questiondown
Encoding: 191 191 162
Width: 909
GlyphClass: 1
Flags: W
LayerCount: 2
Fore
SplineSet
452 975 m 256,0,1
 498 975 498 975 530.5 942.5 c 128,-1,2
 563 910 563 910 563 864 c 256,3,4
 563 818 563 818 530.5 785.5 c 128,-1,5
 498 753 498 753 452 753 c 256,6,7
 406 753 406 753 373.5 785.5 c 128,-1,8
 341 818 341 818 341 864 c 256,9,10
 341 910 341 910 373.5 942.5 c 128,-1,11
 406 975 406 975 452 975 c 256,0,1
441 626 m 1,12,-1
 480 626 l 1,13,14
 475 502 475 502 455.5 429.5 c 128,-1,15
 436 357 436 357 353.5 183 c 128,-1,16
 271 9 271 9 271 -106 c 0,17,18
 271 -238 271 -238 337 -310 c 128,-1,19
 403 -382 403 -382 507 -382 c 0,20,21
 594 -382 594 -382 644 -341 c 128,-1,22
 694 -300 694 -300 694 -251 c 0,23,24
 694 -220 694 -220 663 -166.5 c 128,-1,25
 632 -113 632 -113 632 -81 c 0,26,27
 632 -47 632 -47 656 -23.5 c 128,-1,28
 680 0 680 0 713 0 c 0,29,30
 754 0 754 0 789 -41.5 c 128,-1,31
 824 -83 824 -83 824 -152 c 0,32,33
 824 -267 824 -267 726.5 -354.5 c 128,-1,34
 629 -442 629 -442 460 -442 c 0,35,36
 290 -442 290 -442 189.5 -348.5 c 128,-1,37
 89 -255 89 -255 89 -125 c 0,38,39
 89 -42 89 -42 118 27 c 0,40,41
 161 125 161 125 268 248.5 c 128,-1,42
 375 372 375 372 405 440 c 128,-1,43
 435 508 435 508 441 626 c 1,12,-1
EndSplineSet
EndChar

StartChar: exclamdown
Encoding: 161 161 163
Width: 682
GlyphClass: 1
Flags: W
LayerCount: 2
Fore
SplineSet
342 974 m 0,0,1
 389 974 389 974 421 941.5 c 128,-1,2
 453 909 453 909 453 863 c 256,3,4
 453 817 453 817 420.5 785 c 128,-1,5
 388 753 388 753 342 753 c 256,6,7
 296 753 296 753 264 785 c 128,-1,8
 232 817 232 817 232 863 c 256,9,10
 232 909 232 909 264 941.5 c 128,-1,11
 296 974 296 974 342 974 c 0,0,1
322 587 m 1,12,-1
 360 587 l 1,13,-1
 449 -223 l 2,14,15
 454 -276 454 -276 454 -302 c 0,16,17
 454 -365 454 -365 420.5 -403.5 c 128,-1,18
 387 -442 387 -442 341 -442 c 0,19,20
 294 -442 294 -442 261 -404 c 128,-1,21
 228 -366 228 -366 228 -290 c 0,22,23
 228 -266 228 -266 233 -223 c 2,24,-1
 322 587 l 1,12,-1
EndSplineSet
EndChar

StartChar: logicalnot
Encoding: 172 172 164
Width: 1155
GlyphClass: 1
Flags: W
LayerCount: 2
Fore
SplineSet
36 878 m 1,0,-1
 1116 878 l 1,1,-1
 1116 472 l 1,2,-1
 1037 472 l 1,3,-1
 1037 797 l 1,4,-1
 36 797 l 1,5,-1
 36 878 l 1,0,-1
EndSplineSet
EndChar

StartChar: radical
Encoding: 8730 8730 165
Width: 1124
GlyphClass: 1
Flags: W
LayerCount: 2
Fore
SplineSet
1049 1869 m 1,0,-1
 1123 1869 l 1,1,-1
 811 -78 l 1,2,-1
 315 943 l 1,3,-1
 117 852 l 1,4,-1
 83 916 l 1,5,-1
 384 1067 l 1,6,-1
 789 244 l 1,7,-1
 1049 1869 l 1,0,-1
EndSplineSet
EndChar

StartChar: florin
Encoding: 402 402 166
Width: 1024
GlyphClass: 1
Flags: W
LayerCount: 2
Fore
SplineSet
687 875 m 1,0,-1
 865 875 l 1,1,-1
 848 809 l 1,2,-1
 674 809 l 1,3,4
 622 540 622 540 502 101 c 0,5,6
 408 -240 408 -240 297 -348 c 0,7,8
 213 -431 213 -431 124 -431 c 0,9,10
 68 -431 68 -431 35 -400.5 c 128,-1,11
 2 -370 2 -370 2 -326 c 0,12,13
 2 -287 2 -287 25.5 -262 c 128,-1,14
 49 -237 49 -237 79 -237 c 0,15,16
 105 -237 105 -237 124.5 -255 c 128,-1,17
 144 -273 144 -273 144 -293 c 0,18,19
 144 -315 144 -315 130 -331 c 0,20,21
 120 -343 120 -343 120 -350 c 0,22,23
 120 -358 120 -358 127 -364.5 c 128,-1,24
 134 -371 134 -371 145 -371 c 0,25,26
 165 -371 165 -371 182 -361 c 0,27,28
 212 -344 212 -344 241 -297 c 128,-1,29
 270 -250 270 -250 301 -120 c 0,30,31
 307 -98 307 -98 387 295 c 0,32,33
 394 330 394 330 510 809 c 1,34,-1
 333 809 l 1,35,-1
 348 875 l 1,36,37
 447 882 447 882 472.5 890.5 c 128,-1,38
 498 899 498 899 515 922 c 0,39,40
 541 956 541 956 575 1056 c 0,41,42
 648 1268 648 1268 715 1328 c 0,43,44
 781 1387 781 1387 862 1387 c 0,45,46
 924 1387 924 1387 961.5 1354 c 128,-1,47
 999 1321 999 1321 999 1275 c 0,48,49
 999 1240 999 1240 979 1219 c 128,-1,50
 959 1198 959 1198 931 1198 c 0,51,52
 905 1198 905 1198 886.5 1215.5 c 128,-1,53
 868 1233 868 1233 868 1254 c 0,54,55
 868 1270 868 1270 879 1288.5 c 128,-1,56
 890 1307 890 1307 890 1315 c 0,57,58
 890 1326 890 1326 881 1334 c 0,59,60
 872 1341 872 1341 855 1341 c 0,61,62
 823 1341 823 1341 797 1317 c 0,63,64
 762 1284 762 1284 751 1233 c 0,65,66
 724 1112 724 1112 687 875 c 1,0,-1
EndSplineSet
EndChar

StartChar: approxequal
Encoding: 8776 8776 167
Width: 1124
GlyphClass: 1
Flags: W
LayerCount: 2
Fore
SplineSet
1052 1038 m 1,0,-1
 1095 1038 l 1,1,2
 1092 912 1092 912 1022.5 838.5 c 128,-1,3
 953 765 953 765 853 765 c 0,4,5
 807 765 807 765 755 780 c 128,-1,6
 703 795 703 795 480 886 c 0,7,8
 324 950 324 950 259 950 c 0,9,10
 189 950 189 950 140.5 906.5 c 128,-1,11
 92 863 92 863 73 767 c 1,12,-1
 30 767 l 1,13,14
 34 856 34 856 63.5 914.5 c 128,-1,15
 93 973 93 973 149.5 1006.5 c 128,-1,16
 206 1040 206 1040 262 1040 c 0,17,18
 305 1040 305 1040 351 1027 c 0,19,20
 455 997 455 997 642 917 c 0,21,22
 739 875 739 875 798 859 c 0,23,24
 828 851 828 851 865 851 c 0,25,26
 940 851 940 851 991 899 c 128,-1,27
 1042 947 1042 947 1052 1038 c 1,0,-1
1052 547 m 1,28,-1
 1095 547 l 1,29,30
 1092 420 1092 420 1022.5 346.5 c 128,-1,31
 953 273 953 273 853 273 c 0,32,33
 807 273 807 273 703 304 c 1,34,-1
 480 395 l 2,35,36
 324 458 324 458 259 458 c 0,37,38
 189 458 189 458 140.5 414.5 c 128,-1,39
 92 371 92 371 73 275 c 1,40,-1
 30 275 l 1,41,42
 34 364 34 364 63 422.5 c 128,-1,43
 92 481 92 481 148.5 515 c 128,-1,44
 205 549 205 549 261 549 c 0,45,46
 304 549 304 549 350 536 c 0,47,48
 455 505 455 505 642 425 c 0,49,50
 740 383 740 383 798 368 c 0,51,52
 828 360 828 360 865 360 c 0,53,54
 940 360 940 360 991 407.5 c 128,-1,55
 1042 455 1042 455 1052 547 c 1,28,-1
EndSplineSet
EndChar

StartChar: Delta
Encoding: 8710 8710 168
Width: 1253
GlyphClass: 1
Flags: W
LayerCount: 2
Fore
SplineSet
1226 0 m 1,0,-1
 26 0 l 1,1,-1
 654 1387 l 1,2,-1
 1226 0 l 1,0,-1
990 82 m 1,3,-1
 591 1049 l 1,4,-1
 151 82 l 1,5,-1
 990 82 l 1,3,-1
EndSplineSet
EndChar

StartChar: guillemotleft
Encoding: 171 171 169
Width: 1024
GlyphClass: 1
Flags: W
LayerCount: 2
Fore
SplineSet
508 -8 m 1,0,-1
 451 -8 l 1,1,-1
 64 464 l 1,2,-1
 451 934 l 1,3,-1
 508 934 l 1,4,-1
 264 464 l 1,5,-1
 508 -8 l 1,0,-1
960 -8 m 1,6,-1
 902 -8 l 1,7,-1
 508 464 l 1,8,-1
 902 934 l 1,9,-1
 960 934 l 1,10,-1
 717 464 l 1,11,-1
 960 -8 l 1,6,-1
EndSplineSet
EndChar

StartChar: guillemotright
Encoding: 187 187 170
Width: 1024
GlyphClass: 1
Flags: W
LayerCount: 2
Fore
SplineSet
516 934 m 1,0,-1
 573 934 l 1,1,-1
 960 462 l 1,2,-1
 573 -8 l 1,3,-1
 516 -8 l 1,4,-1
 760 462 l 1,5,-1
 516 934 l 1,0,-1
64 934 m 1,6,-1
 122 934 l 1,7,-1
 516 462 l 1,8,-1
 122 -8 l 1,9,-1
 64 -8 l 1,10,-1
 307 462 l 1,11,-1
 64 934 l 1,6,-1
EndSplineSet
EndChar

StartChar: ellipsis
Encoding: 8230 8230 171
Width: 2048
GlyphClass: 1
Flags: W
LayerCount: 2
Fore
SplineSet
341 194 m 0,0,1
 388 194 388 194 420 161.5 c 128,-1,2
 452 129 452 129 452 83 c 256,3,4
 452 37 452 37 419.5 4.5 c 128,-1,5
 387 -28 387 -28 341 -28 c 256,6,7
 295 -28 295 -28 262.5 4.5 c 128,-1,8
 230 37 230 37 230 83 c 0,9,10
 230 130 230 130 262.5 162 c 128,-1,11
 295 194 295 194 341 194 c 0,0,1
1024 194 m 256,12,13
 1070 194 1070 194 1102.5 161.5 c 128,-1,14
 1135 129 1135 129 1135 83 c 256,15,16
 1135 37 1135 37 1102.5 4.5 c 128,-1,17
 1070 -28 1070 -28 1024 -28 c 256,18,19
 978 -28 978 -28 945.5 4.5 c 128,-1,20
 913 37 913 37 913 83 c 0,21,22
 913 130 913 130 945.5 162 c 128,-1,23
 978 194 978 194 1024 194 c 256,12,13
1707 194 m 0,24,25
 1753 194 1753 194 1785.5 161.5 c 128,-1,26
 1818 129 1818 129 1818 83 c 256,27,28
 1818 37 1818 37 1785.5 4.5 c 128,-1,29
 1753 -28 1753 -28 1707 -28 c 256,30,31
 1661 -28 1661 -28 1628.5 4.5 c 128,-1,32
 1596 37 1596 37 1596 83 c 0,33,34
 1596 130 1596 130 1628 162 c 128,-1,35
 1660 194 1660 194 1707 194 c 0,24,25
EndSplineSet
EndChar

StartChar: OE
Encoding: 338 338 175
Width: 1821
GlyphClass: 1
Flags: W
LayerCount: 2
Fore
SplineSet
1104 1282 m 1,0,-1
 1104 747 l 1,1,-1
 1287 747 l 2,2,3
 1402 747 1402 747 1450 794.5 c 128,-1,4
 1498 842 1498 842 1497 943 c 1,5,-1
 1536 943 l 1,6,-1
 1536 471 l 1,7,-1
 1497 471 l 1,8,9
 1488 594 1488 594 1446 633.5 c 128,-1,10
 1404 673 1404 673 1287 673 c 2,11,-1
 1104 673 l 1,12,-1
 1104 225 l 2,13,14
 1104 145 1104 145 1114 121 c 128,-1,15
 1124 97 1124 97 1147 84 c 0,16,17
 1162 76 1162 76 1224 76 c 2,18,-1
 1328 76 l 2,19,20
 1448 76 1448 76 1495.5 89 c 128,-1,21
 1543 102 1543 102 1594 148 c 0,22,23
 1669 216 1669 216 1723 340 c 1,24,-1
 1763 340 l 1,25,-1
 1655 0 l 1,26,-1
 1170 0 l 2,27,28
 1029 0 1029 0 999 -1 c 0,29,30
 987 -1 987 -1 832 -10 c 0,31,32
 724 -16 724 -16 687 -16 c 0,33,34
 518 -16 518 -16 378.5 69.5 c 128,-1,35
 239 155 239 155 157 319.5 c 128,-1,36
 75 484 75 484 75 676 c 0,37,38
 75 934 75 934 216 1131 c 0,39,40
 385 1368 385 1368 709 1368 c 0,41,42
 732 1368 732 1368 903 1361 c 0,43,44
 1043 1356 1043 1356 1170 1356 c 2,45,-1
 1643 1356 l 1,46,-1
 1655 1058 l 1,47,-1
 1623 1058 l 1,48,49
 1599 1176 1599 1176 1580 1207 c 0,50,51
 1555 1247 1555 1247 1503 1269 c 0,52,53
 1470 1282 1470 1282 1360 1282 c 2,54,-1
 1104 1282 l 1,0,-1
912 1042 m 2,55,56
 912 1172 912 1172 893.5 1213.5 c 128,-1,57
 875 1255 875 1255 840 1275 c 0,58,59
 790 1304 790 1304 713 1304 c 0,60,61
 589 1304 589 1304 494.5 1231 c 128,-1,62
 400 1158 400 1158 352.5 1007.5 c 128,-1,63
 305 857 305 857 305 668 c 0,64,65
 305 513 305 513 347 367 c 128,-1,66
 389 221 389 221 482.5 138 c 128,-1,67
 576 55 576 55 709 55 c 0,68,69
 785 55 785 55 831 80.5 c 128,-1,70
 877 106 877 106 894.5 152 c 128,-1,71
 912 198 912 198 912 340 c 2,72,-1
 912 1042 l 2,55,56
EndSplineSet
EndChar

StartChar: oe
Encoding: 339 339 176
Width: 1479
GlyphClass: 1
Flags: W
LayerCount: 2
Fore
SplineSet
863 573 m 1,0,1
 861 548 861 548 861 535 c 0,2,3
 861 441 861 441 894.5 339 c 128,-1,4
 928 237 928 237 994 187 c 128,-1,5
 1060 137 1060 137 1139 137 c 0,6,7
 1219 137 1219 137 1280.5 188 c 128,-1,8
 1342 239 1342 239 1378 355 c 1,9,-1
 1411 338 l 1,10,11
 1375 145 1375 145 1285.5 58.5 c 128,-1,12
 1196 -28 1196 -28 1071 -28 c 0,13,14
 974 -28 974 -28 905.5 19 c 128,-1,15
 837 66 837 66 802 133 c 1,16,17
 740 53 740 53 660.5 12.5 c 128,-1,18
 581 -28 581 -28 484 -28 c 0,19,20
 308 -28 308 -28 187.5 100.5 c 128,-1,21
 67 229 67 229 67 443 c 0,22,23
 67 672 67 672 190.5 807.5 c 128,-1,24
 314 943 314 943 490 943 c 0,25,26
 597 943 597 943 676 899 c 128,-1,27
 755 855 755 855 802 785 c 1,28,29
 861 870 861 870 926 907 c 128,-1,30
 991 944 991 944 1085 944 c 0,31,32
 1232 944 1232 944 1324 845 c 256,33,34
 1416 746 1416 746 1411 573 c 1,35,-1
 863 573 l 1,0,1
453 888 m 0,36,37
 417 888 417 888 367.5 861.5 c 128,-1,38
 318 835 318 835 291 771 c 0,39,40
 254 688 254 688 254 539 c 0,41,42
 254 281 254 281 356 133 c 0,43,44
 418 43 418 43 509 43 c 0,45,46
 598 43 598 43 656.5 117 c 128,-1,47
 715 191 715 191 715 378 c 0,48,49
 715 611 715 611 647.5 749.5 c 128,-1,50
 580 888 580 888 453 888 c 0,36,37
863 638 m 1,51,-1
 1214 638 l 1,52,53
 1215 708 1215 708 1190 772 c 0,54,55
 1172 820 1172 820 1129 848.5 c 128,-1,56
 1086 877 1086 877 1039 877 c 0,57,58
 972 877 972 877 920.5 817 c 128,-1,59
 869 757 869 757 863 638 c 1,51,-1
EndSplineSet
EndChar

StartChar: endash
Encoding: 8211 8211 177
Width: 1024
GlyphClass: 1
Flags: W
LayerCount: 2
Fore
SplineSet
1041 453 m 1,0,-1
 -18 453 l 1,1,-1
 -18 526 l 1,2,-1
 1041 526 l 1,3,-1
 1041 453 l 1,0,-1
EndSplineSet
EndChar

StartChar: emdash
Encoding: 8212 8212 178
Width: 2048
GlyphClass: 1
Flags: W
LayerCount: 2
Fore
SplineSet
2066 453 m 1,0,-1
 -19 453 l 1,1,-1
 -19 527 l 1,2,-1
 2066 527 l 1,3,-1
 2066 453 l 1,0,-1
EndSplineSet
EndChar

StartChar: quotedblleft
Encoding: 8220 8220 179
Width: 909
GlyphClass: 1
Flags: W
LayerCount: 2
Fore
SplineSet
326 1387 m 1,0,-1
 326 1346 l 1,1,2
 238 1300 238 1300 200 1250 c 128,-1,3
 162 1200 162 1200 162 1141 c 0,4,5
 162 1106 162 1106 172 1093 c 0,6,7
 181 1079 181 1079 194 1079 c 256,8,9
 207 1079 207 1079 229 1086.5 c 128,-1,10
 251 1094 251 1094 269 1094 c 0,11,12
 310 1094 310 1094 340.5 1063.5 c 128,-1,13
 371 1033 371 1033 371 989 c 0,14,15
 371 941 371 941 334 906.5 c 128,-1,16
 297 872 297 872 242 872 c 0,17,18
 175 872 175 872 121 930 c 128,-1,19
 67 988 67 988 67 1073 c 0,20,21
 67 1173 67 1173 133.5 1259.5 c 128,-1,22
 200 1346 200 1346 326 1387 c 1,0,-1
803 1384 m 1,23,-1
 803 1346 l 1,24,25
 702 1288 702 1288 670 1242 c 128,-1,26
 638 1196 638 1196 638 1134 c 0,27,28
 638 1106 638 1106 649 1092 c 256,29,30
 660 1078 660 1078 672 1078 c 0,31,32
 683 1078 683 1078 705 1086 c 128,-1,33
 727 1094 727 1094 749 1094 c 0,34,35
 790 1094 790 1094 820.5 1064.5 c 128,-1,36
 851 1035 851 1035 851 992 c 0,37,38
 851 943 851 943 812.5 907 c 128,-1,39
 774 871 774 871 718 871 c 0,40,41
 652 871 652 871 599 928 c 128,-1,42
 546 985 546 985 546 1070 c 0,43,44
 546 1175 546 1175 613 1261.5 c 128,-1,45
 680 1348 680 1348 803 1384 c 1,23,-1
EndSplineSet
EndChar

StartChar: quoteleft
Encoding: 8216 8216 181
Width: 682
GlyphClass: 1
Flags: W
LayerCount: 2
Fore
SplineSet
444 1387 m 1,0,-1
 444 1344 l 1,1,2
 342 1282 342 1282 305 1229 c 0,3,4
 278 1190 278 1190 278 1137 c 0,5,6
 278 1105 278 1105 290 1090 c 0,7,8
 301 1075 301 1075 316 1075 c 0,9,10
 326 1075 326 1075 344 1082 c 0,11,12
 371 1091 371 1091 388 1091 c 0,13,14
 428 1091 428 1091 459 1061 c 128,-1,15
 490 1031 490 1031 490 986 c 0,16,17
 490 935 490 935 459 907 c 0,18,19
 416 869 416 869 359 869 c 0,20,21
 291 869 291 869 238 926 c 128,-1,22
 185 983 185 983 185 1067 c 0,23,24
 185 1185 185 1185 273 1282 c 0,25,26
 332 1346 332 1346 444 1387 c 1,0,-1
EndSplineSet
EndChar

StartChar: quoteright
Encoding: 8217 8217 182
Width: 682
GlyphClass: 1
Flags: W
LayerCount: 2
Fore
SplineSet
238 869 m 1,0,-1
 238 916 l 1,1,2
 341 977 341 977 378 1030 c 0,3,4
 404 1068 404 1068 404 1121 c 0,5,6
 404 1152 404 1152 393 1167 c 0,7,8
 381 1182 381 1182 367 1182 c 0,9,10
 356 1182 356 1182 338 1175 c 0,11,12
 312 1166 312 1166 295 1166 c 0,13,14
 255 1166 255 1166 224 1196 c 128,-1,15
 193 1226 193 1226 193 1271 c 0,16,17
 193 1321 193 1321 224 1349 c 0,18,19
 266 1387 266 1387 324 1387 c 0,20,21
 391 1387 391 1387 444.5 1330.5 c 128,-1,22
 498 1274 498 1274 498 1190 c 0,23,24
 498 1072 498 1072 409 975 c 0,25,26
 350 911 350 911 238 869 c 1,0,-1
EndSplineSet
EndChar

StartChar: divide
Encoding: 247 247 183
Width: 1124
GlyphClass: 1
Flags: W
LayerCount: 2
Fore
SplineSet
562 1075 m 0,0,1
 598 1075 598 1075 623.5 1049.5 c 128,-1,2
 649 1024 649 1024 649 988 c 256,3,4
 649 952 649 952 623.5 926.5 c 128,-1,5
 598 901 598 901 561 901 c 0,6,7
 525 901 525 901 499.5 926.5 c 128,-1,8
 474 952 474 952 474 988 c 256,9,10
 474 1024 474 1024 499.5 1049.5 c 128,-1,11
 525 1075 525 1075 562 1075 c 0,0,1
1101 640 m 1,12,-1
 23 640 l 1,13,-1
 23 722 l 1,14,-1
 1101 722 l 1,15,-1
 1101 640 l 1,12,-1
562 455 m 256,16,17
 599 455 599 455 624.5 429 c 128,-1,18
 650 403 650 403 650 367 c 256,19,20
 650 331 650 331 624 305 c 128,-1,21
 598 279 598 279 562 279 c 256,22,23
 526 279 526 279 500 305 c 128,-1,24
 474 331 474 331 474 367 c 256,25,26
 474 403 474 403 499.5 429 c 128,-1,27
 525 455 525 455 562 455 c 256,16,17
EndSplineSet
EndChar

StartChar: lozenge
Encoding: 9674 9674 184
Width: 1012
GlyphClass: 1
Flags: W
LayerCount: 2
Fore
SplineSet
549 1422 m 1,0,-1
 967 709 l 1,1,-1
 549 0 l 1,2,-1
 438 0 l 1,3,-1
 47 709 l 1,4,-1
 438 1422 l 1,5,-1
 549 1422 l 1,0,-1
495 1325 m 1,6,-1
 155 709 l 1,7,-1
 495 94 l 1,8,-1
 854 709 l 1,9,-1
 495 1325 l 1,6,-1
EndSplineSet
EndChar

StartChar: fraction
Encoding: 8260 8260 187
AltUni2: 002215.ffffffff.0 002215.ffffffff.0
Width: 342
GlyphClass: 1
Flags: W
LayerCount: 2
Fore
SplineSet
683 1384 m 1,0,-1
 -252 -54 l 1,1,-1
 -341 -54 l 1,2,-1
 594 1384 l 1,3,-1
 683 1384 l 1,0,-1
EndSplineSet
EndChar

StartChar: Euro
Encoding: 8364 8364 188
Width: 1024
GlyphClass: 1
Flags: W
LayerCount: 2
Fore
SplineSet
847 737 m 1,0,-1
 273 737 l 1,1,2
 270 695 270 695 270 654 c 1,3,-1
 822 654 l 1,4,-1
 799 576 l 1,5,-1
 272 576 l 1,6,7
 280 365 280 365 356 224 c 0,8,9
 445 60 445 60 596 60 c 0,10,11
 730 60 730 60 820 129 c 0,12,13
 874 170 874 170 957 285 c 1,14,-1
 988 265 l 1,15,16
 902 129 902 129 832 71 c 0,17,18
 717 -24 717 -24 556 -24 c 0,19,20
 326 -24 326 -24 200 167 c 0,21,22
 97 323 97 323 78 576 c 1,23,-1
 -23 576 l 1,24,-1
 0 654 l 1,25,-1
 74 654 l 1,26,-1
 74 670 l 2,27,28
 74 700 74 700 76 737 c 1,29,-1
 -23 737 l 1,30,-1
 0 815 l 1,31,-1
 84 815 l 1,32,33
 118 1052 118 1052 246 1206 c 0,34,35
 393 1384 393 1384 622 1384 c 0,36,37
 793 1384 793 1384 962 1296 c 1,38,-1
 962 997 l 1,39,-1
 923 997 l 1,40,41
 897 1318 897 1318 622 1318 c 0,42,43
 464 1318 464 1318 372 1151 c 0,44,45
 301 1021 301 1021 279 815 c 1,46,-1
 870 815 l 1,47,-1
 847 737 l 1,0,-1
EndSplineSet
EndChar

StartChar: guilsinglleft
Encoding: 8249 8249 189
Width: 682
GlyphClass: 1
Flags: W
LayerCount: 2
Fore
SplineSet
563 -8 m 1,0,-1
 506 -8 l 1,1,-1
 119 464 l 1,2,-1
 506 934 l 1,3,-1
 563 934 l 1,4,-1
 319 464 l 1,5,-1
 563 -8 l 1,0,-1
EndSplineSet
EndChar

StartChar: guilsinglright
Encoding: 8250 8250 190
Width: 682
GlyphClass: 1
Flags: W
LayerCount: 2
Fore
SplineSet
115 934 m 1,0,-1
 173 934 l 1,1,-1
 567 462 l 1,2,-1
 173 -8 l 1,3,-1
 115 -8 l 1,4,-1
 358 462 l 1,5,-1
 115 934 l 1,0,-1
EndSplineSet
EndChar

StartChar: fi
Encoding: 61441 61441 191
AltUni2: 00fb01.ffffffff.0 00fb01.ffffffff.0
Width: 1139
GlyphClass: 1
Flags: W
LayerCount: 2
Fore
SplineSet
367 916 m 1,0,-1
 750 916 l 2,1,2
 862 916 862 916 895 922 c 1,3,-1
 939 922 l 1,4,-1
 939 212 l 2,5,6
 939 101 939 101 965.5 69.5 c 128,-1,7
 992 38 992 38 1085 36 c 1,8,-1
 1085 0 l 1,9,-1
 629 0 l 1,10,-1
 629 36 l 1,11,12
 727 36 727 36 755 79 c 0,13,14
 775 109 775 109 775 212 c 2,15,-1
 775 697 l 2,16,17
 775 790 775 790 765 809 c 0,18,19
 757 824 757 824 734.5 832.5 c 128,-1,20
 712 841 712 841 590 841 c 2,21,-1
 367 841 l 1,22,-1
 367 245 l 2,23,24
 367 137 367 137 379 105 c 0,25,26
 388 81 388 81 416 64 c 0,27,28
 460 36 460 36 492 36 c 2,29,-1
 534 36 l 1,30,-1
 534 0 l 1,31,-1
 34 0 l 1,32,-1
 34 36 l 1,33,-1
 70 36 l 2,34,35
 140 36 140 36 171 74.5 c 128,-1,36
 202 113 202 113 202 245 c 2,37,-1
 202 841 l 1,38,-1
 25 841 l 1,39,-1
 25 916 l 1,40,-1
 202 916 l 1,41,42
 202 1099 202 1099 252.5 1201.5 c 128,-1,43
 303 1304 303 1304 402 1363 c 128,-1,44
 501 1422 501 1422 626 1422 c 0,45,46
 712 1422 712 1422 782 1393.5 c 128,-1,47
 852 1365 852 1365 885.5 1320.5 c 128,-1,48
 919 1276 919 1276 919 1237 c 0,49,50
 919 1203 919 1203 896.5 1180 c 128,-1,51
 874 1157 874 1157 843 1157 c 0,52,53
 809 1157 809 1157 785 1174.5 c 128,-1,54
 761 1192 761 1192 704 1273 c 0,55,56
 671 1320 671 1320 634 1341 c 0,57,58
 606 1356 606 1356 564 1356 c 0,59,60
 513 1356 513 1356 462.5 1315 c 128,-1,61
 412 1274 412 1274 393 1221 c 0,62,63
 367 1149 367 1149 367 969 c 2,64,-1
 367 916 l 1,0,-1
EndSplineSet
EndChar

StartChar: fl
Encoding: 61442 61442 192
AltUni2: 00fb02.ffffffff.0 00fb02.ffffffff.0
Width: 1139
GlyphClass: 1
Flags: W
LayerCount: 2
Fore
SplineSet
777 840 m 1,0,-1
 366 840 l 1,1,-1
 366 247 l 2,2,3
 366 139 366 139 381 105.5 c 128,-1,4
 396 72 396 72 430.5 53 c 128,-1,5
 465 34 465 34 536 36 c 1,6,-1
 536 0 l 1,7,-1
 33 0 l 1,8,-1
 33 36 l 1,9,-1
 73 36 l 2,10,11
 130 36 130 36 165 68 c 128,-1,12
 200 100 200 100 200 240 c 2,13,-1
 200 840 l 1,14,-1
 23 840 l 1,15,-1
 23 916 l 1,16,-1
 200 916 l 1,17,18
 207 1117 207 1117 249 1212.5 c 128,-1,19
 291 1308 291 1308 381 1365 c 128,-1,20
 471 1422 471 1422 561 1422 c 0,21,22
 663 1422 663 1422 761 1348 c 1,23,-1
 902 1422 l 1,24,-1
 942 1422 l 1,25,-1
 942 212 l 2,26,27
 942 122 942 122 952.5 94.5 c 128,-1,28
 963 67 963 67 991.5 52 c 128,-1,29
 1020 37 1020 37 1087 36 c 1,30,-1
 1087 0 l 1,31,-1
 632 0 l 1,32,-1
 632 36 l 1,33,34
 698 37 698 37 733 56 c 0,35,36
 753 66 753 66 765 93 c 128,-1,37
 777 120 777 120 777 212 c 2,38,-1
 777 840 l 1,0,-1
777 916 m 1,39,-1
 777 1214 l 1,40,41
 745 1177 745 1177 708 1177 c 0,42,43
 662 1177 662 1177 604 1261.5 c 128,-1,44
 546 1346 546 1346 488 1346 c 0,45,46
 454 1346 454 1346 431 1326 c 0,47,48
 394 1296 394 1296 378 1240 c 0,49,50
 366 1198 366 1198 366 1006 c 2,51,-1
 366 916 l 1,52,-1
 777 916 l 1,39,-1
EndSplineSet
EndChar

StartChar: daggerdbl
Encoding: 8225 8225 193
Width: 1024
GlyphClass: 1
Flags: W
LayerCount: 2
Fore
SplineSet
530 976 m 1,0,1
 538 910 538 910 556 878 c 128,-1,2
 574 846 574 846 624 806 c 1,3,4
 574 733 574 733 552 662 c 128,-1,5
 530 591 530 591 530 484 c 0,6,7
 530 384 530 384 551 315.5 c 128,-1,8
 572 247 572 247 624 170 c 1,9,10
 576 129 576 129 557.5 96.5 c 128,-1,11
 539 64 539 64 530 0 c 1,12,13
 569 6 569 6 586.5 11 c 128,-1,14
 604 16 604 16 658 38 c 0,15,16
 743 73 743 73 792 73 c 0,17,18
 833 73 833 73 859 48 c 128,-1,19
 885 23 885 23 885 -15 c 0,20,21
 885 -55 885 -55 859 -81 c 128,-1,22
 833 -107 833 -107 793 -107 c 0,23,24
 752 -107 752 -107 666 -70 c 0,25,26
 620 -51 620 -51 592 -44 c 0,27,28
 571 -39 571 -39 530 -37 c 1,29,30
 538 -98 538 -98 543 -117.5 c 128,-1,31
 548 -137 548 -137 564 -173 c 0,32,33
 614 -283 614 -283 614 -337 c 0,34,35
 614 -382 614 -382 585 -412 c 128,-1,36
 556 -442 556 -442 513 -442 c 0,37,38
 471 -442 471 -442 442 -411 c 128,-1,39
 413 -380 413 -380 413 -334 c 0,40,41
 413 -311 413 -311 419.5 -284.5 c 128,-1,42
 426 -258 426 -258 459 -170 c 0,43,44
 483 -105 483 -105 490 -37 c 1,45,46
 445 -39 445 -39 419.5 -45 c 128,-1,47
 394 -51 394 -51 345 -73 c 0,48,49
 269 -107 269 -107 232 -107 c 0,50,51
 191 -107 191 -107 166 -82.5 c 128,-1,52
 141 -58 141 -58 141 -19 c 0,53,54
 141 22 141 22 167.5 47.5 c 128,-1,55
 194 73 194 73 237 73 c 0,56,57
 277 73 277 73 350 41 c 0,58,59
 399 20 399 20 426 14 c 0,60,61
 447 9 447 9 490 7 c 1,62,63
 481 68 481 68 462.5 99.5 c 128,-1,64
 444 131 444 131 394 170 c 1,65,66
 440 231 440 231 460 290 c 0,67,68
 491 381 491 381 491 496 c 0,69,70
 491 614 491 614 459 701 c 0,71,72
 440 755 440 755 394 806 c 1,73,74
 442 842 442 842 460.5 874.5 c 128,-1,75
 479 907 479 907 490 976 c 1,76,77
 449 973 449 973 431.5 968.5 c 128,-1,78
 414 964 414 964 345 936.5 c 128,-1,79
 276 909 276 909 227 909 c 0,80,81
 189 909 189 909 164 934 c 128,-1,82
 139 959 139 959 139 997 c 0,83,84
 139 1034 139 1034 163.5 1058.5 c 128,-1,85
 188 1083 188 1083 226 1083 c 0,86,87
 272 1083 272 1083 357 1049 c 0,88,89
 408 1028 408 1028 433 1022 c 0,90,91
 451 1017 451 1017 490 1014 c 1,92,93
 488 1057 488 1057 482 1077 c 0,94,95
 471 1117 471 1117 437 1206 c 0,96,97
 416 1259 416 1259 414 1266 c 0,98,99
 410 1284 410 1284 410 1311 c 0,100,101
 410 1361 410 1361 439 1391.5 c 128,-1,102
 468 1422 468 1422 511 1422 c 256,103,104
 554 1422 554 1422 581 1393 c 128,-1,105
 608 1364 608 1364 608 1307 c 0,106,107
 608 1276 608 1276 602.5 1256 c 128,-1,108
 597 1236 597 1236 566.5 1165.5 c 128,-1,109
 536 1095 536 1095 530 1014 c 1,110,111
 574 1017 574 1017 593 1021.5 c 128,-1,112
 612 1026 612 1026 669 1050 c 0,113,114
 745 1083 745 1083 795 1083 c 0,115,116
 835 1083 835 1083 860 1058.5 c 128,-1,117
 885 1034 885 1034 885 996 c 0,118,119
 885 957 885 957 859 932 c 128,-1,120
 833 907 833 907 791 907 c 0,121,122
 744 907 744 907 665 940 c 0,123,124
 614 963 614 963 594 968 c 128,-1,125
 574 973 574 973 530 976 c 1,0,1
EndSplineSet
EndChar

StartChar: periodcentered
Encoding: 183 183 194
AltUni2: 002219.ffffffff.0 002219.ffffffff.0
Width: 512
GlyphClass: 1
Flags: W
LayerCount: 2
Fore
SplineSet
256 789 m 0,0,1
 303 789 303 789 335 756.5 c 128,-1,2
 367 724 367 724 367 678 c 256,3,4
 367 632 367 632 334.5 599.5 c 128,-1,5
 302 567 302 567 256 567 c 256,6,7
 210 567 210 567 177.5 599.5 c 128,-1,8
 145 632 145 632 145 678 c 256,9,10
 145 724 145 724 177.5 756.5 c 128,-1,11
 210 789 210 789 256 789 c 0,0,1
EndSplineSet
EndChar

StartChar: quotedblbase
Encoding: 8222 8222 196
Width: 909
GlyphClass: 1
Flags: W
LayerCount: 2
Fore
SplineSet
115 -316 m 1,0,-1
 115 -274 l 1,1,2
 216 -217 216 -217 247.5 -170.5 c 128,-1,3
 279 -124 279 -124 279 -63 c 0,4,5
 279 -35 279 -35 269 -21 c 0,6,7
 258 -7 258 -7 245 -7 c 0,8,9
 235 -7 235 -7 213 -15 c 256,10,11
 191 -23 191 -23 169 -23 c 0,12,13
 127 -23 127 -23 97 7 c 128,-1,14
 67 37 67 37 67 80 c 0,15,16
 67 128 67 128 105.5 164 c 128,-1,17
 144 200 144 200 199 200 c 0,18,19
 265 200 265 200 318.5 143 c 128,-1,20
 372 86 372 86 372 -1 c 0,21,22
 372 -106 372 -106 304.5 -193 c 128,-1,23
 237 -280 237 -280 115 -316 c 1,0,-1
592 -316 m 1,24,-1
 592 -274 l 1,25,26
 679 -229 679 -229 717.5 -178.5 c 128,-1,27
 756 -128 756 -128 756 -69 c 0,28,29
 756 -34 756 -34 746 -20 c 0,30,31
 736 -7 736 -7 724 -7 c 0,32,33
 711 -7 711 -7 689 -15 c 0,34,35
 666 -23 666 -23 649 -23 c 0,36,37
 608 -23 608 -23 577.5 8 c 128,-1,38
 547 39 547 39 547 82 c 0,39,40
 547 130 547 130 584 165 c 128,-1,41
 621 200 621 200 675 200 c 0,42,43
 743 200 743 200 797 141.5 c 128,-1,44
 851 83 851 83 851 -2 c 0,45,46
 851 -102 851 -102 784.5 -188.5 c 128,-1,47
 718 -275 718 -275 592 -316 c 1,24,-1
EndSplineSet
EndChar

StartChar: perthousand
Encoding: 8240 8240 197
Width: 2048
GlyphClass: 1
Flags: W
LayerCount: 2
Fore
SplineSet
1220 1387 m 1,0,-1
 248 -55 l 1,1,-1
 159 -55 l 1,2,-1
 1131 1387 l 1,3,-1
 1220 1387 l 1,0,-1
353 1387 m 0,4,5
 430 1387 430 1387 498 1342 c 128,-1,6
 566 1297 566 1297 604.5 1211 c 128,-1,7
 643 1125 643 1125 643 1021 c 0,8,9
 643 852 643 852 558 755.5 c 128,-1,10
 473 659 473 659 357 659 c 0,11,12
 283 659 283 659 213.5 703 c 128,-1,13
 144 747 144 747 104.5 831 c 128,-1,14
 65 915 65 915 65 1022 c 0,15,16
 65 1126 65 1126 104 1213.5 c 128,-1,17
 143 1301 143 1301 210.5 1344 c 128,-1,18
 278 1387 278 1387 353 1387 c 0,4,5
349 1334 m 0,19,20
 319 1334 319 1334 299 1318 c 0,21,22
 266 1289 266 1289 248 1231 c 0,23,24
 226 1154 226 1154 226 1017 c 0,25,26
 226 832 226 832 273 759 c 0,27,28
 306 709 306 709 355 709 c 0,29,30
 401 709 401 709 434 761 c 0,31,32
 483 839 483 839 483 1030 c 0,33,34
 483 1209 483 1209 435 1282 c 0,35,36
 400 1334 400 1334 349 1334 c 0,19,20
1029 673 m 0,37,38
 1101 673 1101 673 1169 628.5 c 128,-1,39
 1237 584 1237 584 1276.5 498 c 128,-1,40
 1316 412 1316 412 1316 312 c 0,41,42
 1316 203 1316 203 1277 119 c 128,-1,43
 1238 35 1238 35 1167.5 -10 c 128,-1,44
 1097 -55 1097 -55 1026 -55 c 0,45,46
 913 -55 913 -55 825.5 42.5 c 128,-1,47
 738 140 738 140 738 308 c 0,48,49
 738 413 738 413 778 500 c 128,-1,50
 818 587 818 587 888.5 630 c 128,-1,51
 959 673 959 673 1029 673 c 0,37,38
1025 620 m 0,52,53
 994 620 994 620 971 601 c 0,54,55
 936 572 936 572 917 509.5 c 128,-1,56
 898 447 898 447 898 300 c 0,57,58
 898 120 898 120 944 49 c 0,59,60
 976 0 976 0 1024 0 c 0,61,62
 1073 0 1073 0 1106 50 c 0,63,64
 1155 125 1155 125 1155 303 c 0,65,66
 1155 491 1155 491 1105 569 c 0,67,68
 1073 620 1073 620 1025 620 c 0,52,53
1691 673 m 0,69,70
 1759 673 1759 673 1831.5 629.5 c 128,-1,71
 1904 586 1904 586 1942.5 503.5 c 128,-1,72
 1981 421 1981 421 1981 320 c 0,73,74
 1981 199 1981 199 1945 117.5 c 128,-1,75
 1909 36 1909 36 1837.5 -9.5 c 128,-1,76
 1766 -55 1766 -55 1693 -55 c 256,77,78
 1620 -55 1620 -55 1551.5 -10.5 c 128,-1,79
 1483 34 1483 34 1444.5 116.5 c 128,-1,80
 1406 199 1406 199 1406 301 c 0,81,82
 1406 418 1406 418 1444 504 c 128,-1,83
 1482 590 1482 590 1555 631.5 c 128,-1,84
 1628 673 1628 673 1691 673 c 0,69,70
1691 620 m 0,85,86
 1641 620 1641 620 1611 573 c 0,87,88
 1566 500 1566 500 1566 304 c 0,89,90
 1566 121 1566 121 1612 50 c 0,91,92
 1645 0 1645 0 1695 0 c 0,93,94
 1725 0 1725 0 1748 19 c 0,95,96
 1782 48 1782 48 1801.5 113.5 c 128,-1,97
 1821 179 1821 179 1821 329 c 0,98,99
 1821 499 1821 499 1774 569 c 0,100,101
 1739 620 1739 620 1691 620 c 0,85,86
EndSplineSet
EndChar

StartChar: dotlessi
Encoding: 305 305 213
Width: 569
GlyphClass: 1
Flags: W
LayerCount: 2
Fore
SplineSet
379 943 m 1,0,-1
 379 207 l 2,1,2
 379 121 379 121 392 92.5 c 128,-1,3
 405 64 405 64 429.5 50 c 128,-1,4
 454 36 454 36 519 36 c 1,5,-1
 519 0 l 1,6,-1
 74 0 l 1,7,-1
 74 36 l 1,8,9
 141 36 141 36 164 49 c 128,-1,10
 187 62 187 62 200.5 92 c 128,-1,11
 214 122 214 122 214 207 c 2,12,-1
 214 560 l 2,13,14
 214 709 214 709 205 753 c 0,15,16
 198 785 198 785 183 797.5 c 128,-1,17
 168 810 168 810 142 810 c 0,18,19
 114 810 114 810 74 795 c 1,20,-1
 60 831 l 1,21,-1
 336 943 l 1,22,-1
 379 943 l 1,0,-1
EndSplineSet
EndChar

StartChar: circumflex
Encoding: 710 710 214
Width: 682
GlyphClass: 1
Flags: W
LayerCount: 2
Fore
SplineSet
249 1385 m 1,0,-1
 433 1385 l 1,1,-1
 623 1054 l 1,2,-1
 592 1054 l 1,3,-1
 319 1267 l 1,4,-1
 90 1054 l 1,5,-1
 60 1054 l 1,6,-1
 249 1385 l 1,0,-1
EndSplineSet
EndChar

StartChar: tilde
Encoding: 732 732 215
Width: 682
GlyphClass: 1
Flags: W
LayerCount: 2
Fore
SplineSet
54 1097 m 1,0,-1
 22 1097 l 1,1,2
 26 1234 26 1234 79 1295 c 128,-1,3
 132 1356 132 1356 210 1356 c 0,4,5
 251 1356 251 1356 285 1343 c 0,6,7
 330 1326 330 1326 412.5 1271.5 c 128,-1,8
 495 1217 495 1217 535 1217 c 0,9,10
 567 1217 567 1217 591.5 1244 c 128,-1,11
 616 1271 616 1271 630 1356 c 1,12,-1
 661 1356 l 1,13,14
 662 1263 662 1263 636.5 1208.5 c 128,-1,15
 611 1154 611 1154 564.5 1123.5 c 128,-1,16
 518 1093 518 1093 471 1093 c 0,17,18
 392 1093 392 1093 275 1173 c 0,19,20
 212 1216 212 1216 190 1225 c 128,-1,21
 168 1234 168 1234 147 1234 c 0,22,23
 106 1234 106 1234 82 1198 c 0,24,25
 71 1181 71 1181 54 1097 c 1,0,-1
EndSplineSet
EndChar

StartChar: macron
Encoding: 713 713 216
Width: 682
GlyphClass: 1
Flags: W
LayerCount: 2
Fore
SplineSet
23 1353 m 1,0,-1
 661 1353 l 1,1,-1
 661 1225 l 1,2,-1
 23 1225 l 1,3,-1
 23 1353 l 1,0,-1
EndSplineSet
EndChar

StartChar: breve
Encoding: 728 728 217
Width: 682
GlyphClass: 1
Flags: W
LayerCount: 2
Fore
SplineSet
55 1358 m 1,0,-1
 86 1358 l 1,1,2
 119 1297 119 1297 162 1272 c 0,3,4
 234 1229 234 1229 343 1229 c 256,5,6
 452 1229 452 1229 523 1271 c 0,7,8
 574 1300 574 1300 594 1358 c 1,9,-1
 627 1358 l 1,10,11
 618 1234 618 1234 535.5 1156 c 128,-1,12
 453 1078 453 1078 341 1078 c 0,13,14
 230 1078 230 1078 148 1155.5 c 128,-1,15
 66 1233 66 1233 55 1358 c 1,0,-1
EndSplineSet
EndChar

StartChar: dotaccent
Encoding: 729 729 218
Width: 682
GlyphClass: 1
Flags: W
LayerCount: 2
Fore
SplineSet
342 1337 m 0,0,1
 387 1337 387 1337 419 1305 c 128,-1,2
 451 1273 451 1273 451 1228 c 256,3,4
 451 1183 451 1183 419 1151 c 128,-1,5
 387 1119 387 1119 342 1119 c 256,6,7
 297 1119 297 1119 265 1151 c 128,-1,8
 233 1183 233 1183 233 1228 c 256,9,10
 233 1273 233 1273 264.5 1305 c 128,-1,11
 296 1337 296 1337 342 1337 c 0,0,1
EndSplineSet
EndChar

StartChar: ring
Encoding: 730 730 219
Width: 682
GlyphClass: 1
Flags: W
LayerCount: 2
Fore
SplineSet
341 1424 m 256,0,1
 421 1424 421 1424 477 1368 c 128,-1,2
 533 1312 533 1312 533 1233 c 0,3,4
 533 1153 533 1153 477 1097 c 128,-1,5
 421 1041 421 1041 341 1041 c 0,6,7
 262 1041 262 1041 206 1097 c 128,-1,8
 150 1153 150 1153 150 1233 c 0,9,10
 150 1312 150 1312 205.5 1368 c 128,-1,11
 261 1424 261 1424 341 1424 c 256,0,1
341 1355 m 256,12,13
 290 1355 290 1355 254.5 1319.5 c 128,-1,14
 219 1284 219 1284 219 1233 c 0,15,16
 219 1183 219 1183 254.5 1147 c 128,-1,17
 290 1111 290 1111 341 1111 c 256,18,19
 392 1111 392 1111 427.5 1147 c 128,-1,20
 463 1183 463 1183 463 1233 c 0,21,22
 463 1284 463 1284 427.5 1319.5 c 128,-1,23
 392 1355 392 1355 341 1355 c 256,12,13
EndSplineSet
EndChar

StartChar: cedilla
Encoding: 184 184 220
Width: 682
GlyphClass: 1
Flags: W
LayerCount: 2
Fore
SplineSet
361 16 m 1,0,-1
 421 16 l 1,1,-1
 371 -63 l 1,2,3
 434 -79 434 -79 465 -117 c 128,-1,4
 496 -155 496 -155 496 -209 c 0,5,6
 496 -281 496 -281 436 -335.5 c 128,-1,7
 376 -390 376 -390 281 -390 c 0,8,9
 244 -390 244 -390 187 -383 c 1,10,-1
 187 -340 l 1,11,12
 215 -344 215 -344 235 -344 c 0,13,14
 286 -344 286 -344 321 -310.5 c 128,-1,15
 356 -277 356 -277 356 -234 c 0,16,17
 356 -204 356 -204 333 -182 c 128,-1,18
 310 -160 310 -160 276 -160 c 0,19,20
 266 -160 266 -160 250 -162 c 1,21,-1
 361 16 l 1,0,-1
EndSplineSet
EndChar

StartChar: hungarumlaut
Encoding: 733 733 221
Width: 682
GlyphClass: 1
Flags: W
LayerCount: 2
Fore
SplineSet
144 1390 m 1,0,-1
 331 1390 l 1,1,-1
 111 1044 l 1,2,-1
 78 1044 l 1,3,-1
 144 1390 l 1,0,-1
457 1390 m 1,4,-1
 644 1390 l 1,5,-1
 426 1044 l 1,6,-1
 392 1044 l 1,7,-1
 457 1390 l 1,4,-1
EndSplineSet
EndChar

StartChar: ogonek
Encoding: 731 731 222
Width: 682
GlyphClass: 1
Flags: W
LayerCount: 2
Fore
SplineSet
228 16 m 1,0,-1
 280 16 l 1,1,2
 254 -36 254 -36 254 -83 c 0,3,4
 254 -167 254 -167 306 -215 c 0,5,6
 375 -278 375 -278 468 -278 c 0,7,8
 525 -278 525 -278 587 -255 c 1,9,-1
 608 -287 l 1,10,11
 520 -336 520 -336 476 -349.5 c 128,-1,12
 432 -363 432 -363 377 -363 c 0,13,14
 268 -363 268 -363 208 -309 c 128,-1,15
 148 -255 148 -255 148 -179 c 0,16,17
 148 -126 148 -126 169.5 -72.5 c 128,-1,18
 191 -19 191 -19 228 16 c 1,0,-1
EndSplineSet
EndChar

StartChar: caron
Encoding: 711 711 223
Width: 682
GlyphClass: 1
Flags: W
LayerCount: 2
Fore
SplineSet
434 1054 m 1,0,-1
 250 1054 l 1,1,-1
 60 1385 l 1,2,-1
 91 1385 l 1,3,-1
 364 1173 l 1,4,-1
 593 1385 l 1,5,-1
 623 1385 l 1,6,-1
 434 1054 l 1,0,-1
EndSplineSet
EndChar

StartChar: Lslash
Encoding: 321 321 224
Width: 1251
GlyphClass: 1
Flags: W
LayerCount: 2
Fore
SplineSet
1086 0 m 1,0,-1
 37 0 l 1,1,-1
 37 37 l 1,2,-1
 79 37 l 2,3,4
 126 37 126 37 171 60 c 0,5,6
 204 77 204 77 216.5 109.5 c 128,-1,7
 229 142 229 142 229 243 c 2,8,-1
 229 542 l 1,9,-1
 22 376 l 1,10,-1
 22 468 l 1,11,-1
 229 642 l 1,12,-1
 229 1112 l 2,13,14
 229 1226 229 1226 218 1252.5 c 128,-1,15
 207 1279 207 1279 172.5 1299 c 128,-1,16
 138 1319 138 1319 79 1319 c 2,17,-1
 37 1319 l 1,18,-1
 37 1356 l 1,19,-1
 639 1356 l 1,20,-1
 639 1319 l 1,21,-1
 579 1319 l 2,22,23
 508 1319 508 1319 474.5 1296.5 c 128,-1,24
 441 1274 441 1274 428 1229 c 0,25,26
 421 1206 421 1206 421 1112 c 2,27,-1
 421 801 l 1,28,-1
 648 988 l 1,29,-1
 648 893 l 1,30,-1
 421 701 l 1,31,-1
 421 248 l 2,32,33
 421 159 421 159 432 136 c 128,-1,34
 443 113 443 113 473 99 c 0,35,36
 494 88 494 88 587 88 c 2,37,-1
 739 88 l 2,38,39
 884 88 884 88 932 103 c 0,40,41
 1001 123 1001 123 1062.5 188.5 c 128,-1,42
 1124 254 1124 254 1167 376 c 1,43,-1
 1199 368 l 1,44,-1
 1086 0 l 1,0,-1
EndSplineSet
EndChar

StartChar: lslash
Encoding: 322 322 225
Width: 569
GlyphClass: 1
Flags: W
LayerCount: 2
Fore
SplineSet
380 1422 m 1,0,-1
 380 814 l 1,1,-1
 551 955 l 1,2,-1
 551 870 l 1,3,-1
 380 728 l 1,4,-1
 380 206 l 2,5,6
 380 110 380 110 390.5 87 c 128,-1,7
 401 64 401 64 425 53 c 0,8,9
 462 34 462 34 526 36 c 1,10,-1
 526 0 l 1,11,-1
 64 0 l 1,12,-1
 64 36 l 1,13,-1
 89 35 l 2,14,15
 141 35 141 35 172 53 c 0,16,17
 194 66 194 66 205 92 c 128,-1,18
 216 118 216 118 216 217 c 2,19,-1
 216 596 l 1,20,-1
 30 443 l 1,21,-1
 30 527 l 1,22,-1
 216 681 l 1,23,-1
 216 1036 l 2,24,25
 216 1185 216 1185 207 1222 c 0,26,27
 202 1248 202 1248 183 1264 c 128,-1,28
 164 1280 164 1280 141 1280 c 0,29,30
 124 1280 124 1280 74 1263 c 1,31,-1
 64 1299 l 1,32,-1
 348 1422 l 1,33,-1
 380 1422 l 1,0,-1
EndSplineSet
EndChar

StartChar: brokenbar
Encoding: 166 166 230
Width: 410
GlyphClass: 1
Flags: W
LayerCount: 2
Fore
SplineSet
244 1422 m 1,0,-1
 244 680 l 1,1,-1
 161 680 l 1,2,-1
 161 1422 l 1,3,-1
 244 1422 l 1,0,-1
244 300 m 1,4,-1
 244 -442 l 1,5,-1
 161 -442 l 1,6,-1
 161 300 l 1,7,-1
 244 300 l 1,4,-1
EndSplineSet
EndChar

StartChar: Eth
Encoding: 208 208 231
Width: 1479
GlyphClass: 1
Flags: W
LayerCount: 2
Fore
SplineSet
35 0 m 1,0,-1
 35 37 l 1,1,-1
 86 37 l 2,2,3
 172 37 172 37 209 93 c 0,4,5
 230 125 230 125 230 240 c 2,6,-1
 230 678 l 1,7,-1
 35 678 l 1,8,-1
 35 752 l 1,9,-1
 230 752 l 1,10,-1
 230 1116 l 2,11,12
 230 1243 230 1243 202 1275 c 0,13,14
 163 1319 163 1319 86 1319 c 2,15,-1
 35 1319 l 1,16,-1
 35 1356 l 1,17,-1
 587 1356 l 2,18,19
 902 1356 902 1356 1053 1284.5 c 128,-1,20
 1204 1213 1204 1213 1302 1055.5 c 128,-1,21
 1400 898 1400 898 1400 687 c 0,22,23
 1400 400 1400 400 1216.5 200 c 128,-1,24
 1033 0 1033 0 640 0 c 2,25,-1
 35 0 l 1,0,-1
423 100 m 1,26,27
 550 72 550 72 636 72 c 0,28,29
 867 72 867 72 1020 235 c 128,-1,30
 1173 398 1173 398 1173 677 c 0,31,32
 1173 958 1173 958 1020 1120 c 128,-1,33
 867 1282 867 1282 628 1282 c 0,34,35
 538 1282 538 1282 423 1253 c 1,36,-1
 423 752 l 1,37,-1
 816 752 l 1,38,-1
 816 678 l 1,39,-1
 423 678 l 1,40,-1
 423 100 l 1,26,27
EndSplineSet
EndChar

StartChar: eth
Encoding: 240 240 232
Width: 1024
GlyphClass: 1
Flags: W
LayerCount: 2
Fore
SplineSet
469 1169 m 1,0,-1
 222 1034 l 1,1,-1
 192 1089 l 1,2,-1
 425 1221 l 1,3,4
 359 1288 359 1288 325.5 1315.5 c 128,-1,5
 292 1343 292 1343 237 1379 c 1,6,-1
 264 1422 l 1,7,8
 384 1362 384 1362 511 1267 c 1,9,-1
 760 1406 l 1,10,-1
 794 1351 l 1,11,-1
 565 1221 l 1,12,13
 755 1056 755 1056 852 857.5 c 128,-1,14
 949 659 949 659 949 474 c 0,15,16
 949 335 949 335 891.5 218.5 c 128,-1,17
 834 102 834 102 730 37 c 128,-1,18
 626 -28 626 -28 499 -28 c 0,19,20
 320 -28 320 -28 194 105.5 c 128,-1,21
 68 239 68 239 68 441 c 0,22,23
 68 652 68 652 206 806 c 0,24,25
 324 935 324 935 488 935 c 0,26,27
 537 935 537 935 576 922 c 0,28,29
 607 912 607 912 657 876 c 1,30,31
 577 1041 577 1041 469 1169 c 1,0,-1
479 874 m 0,32,33
 383 874 383 874 318 793 c 128,-1,34
 253 712 253 712 253 518 c 0,35,36
 253 382 253 382 293.5 267.5 c 128,-1,37
 334 153 334 153 403 97.5 c 128,-1,38
 472 42 472 42 547 42 c 0,39,40
 638 42 638 42 701 121 c 128,-1,41
 764 200 764 200 764 377 c 0,42,43
 764 602 764 602 685 738 c 128,-1,44
 606 874 606 874 479 874 c 0,32,33
EndSplineSet
EndChar

StartChar: Thorn
Encoding: 222 222 235
Width: 1139
GlyphClass: 1
Flags: W
LayerCount: 2
Fore
SplineSet
420 1048 m 1,0,-1
 494 1048 l 2,1,2
 644 1048 644 1048 718 1036 c 0,3,4
 826 1017 826 1017 897.5 971.5 c 128,-1,5
 969 926 969 926 1014.5 850 c 128,-1,6
 1060 774 1060 774 1060 680 c 0,7,8
 1060 603 1060 603 1031 537.5 c 128,-1,9
 1002 472 1002 472 953 425 c 128,-1,10
 904 378 904 378 842 350 c 128,-1,11
 780 322 780 322 681 309 c 0,12,13
 645 304 645 304 490 304 c 2,14,-1
 420 304 l 1,15,-1
 420 243 l 2,16,17
 420 114 420 114 454.5 75.5 c 128,-1,18
 489 37 489 37 573 37 c 2,19,-1
 614 37 l 1,20,-1
 614 0 l 1,21,-1
 36 0 l 1,22,-1
 36 37 l 1,23,-1
 74 37 l 2,24,25
 167 37 167 37 207 93 c 0,26,27
 227 121 227 121 227 240 c 2,28,-1
 227 1108 l 2,29,30
 227 1222 227 1222 216 1248.5 c 128,-1,31
 205 1275 205 1275 167.5 1297 c 128,-1,32
 130 1319 130 1319 76 1319 c 2,33,-1
 36 1319 l 1,34,-1
 36 1356 l 1,35,-1
 614 1356 l 1,36,-1
 614 1319 l 1,37,-1
 574 1319 l 2,38,39
 530 1319 530 1319 480 1296 c 0,40,41
 450 1282 450 1282 435 1247 c 128,-1,42
 420 1212 420 1212 420 1113 c 2,43,-1
 420 1048 l 1,0,-1
420 970 m 1,44,-1
 420 375 l 1,45,-1
 464 375 l 2,46,47
 586 375 586 375 654 403 c 0,48,49
 744 441 744 441 787 512 c 128,-1,50
 830 583 830 583 830 677 c 0,51,52
 830 752 830 752 799 815 c 128,-1,53
 768 878 768 878 717.5 913.5 c 128,-1,54
 667 949 667 949 605 962 c 0,55,56
 565 970 565 970 468 970 c 2,57,-1
 420 970 l 1,44,-1
EndSplineSet
EndChar

StartChar: thorn
Encoding: 254 254 236
Width: 1024
GlyphClass: 1
Flags: W
LayerCount: 2
Fore
SplineSet
-2 1308 m 1,0,-1
 280 1422 l 1,1,-1
 318 1422 l 1,2,-1
 318 725 l 1,3,4
 389 846 389 846 460.5 894.5 c 128,-1,5
 532 943 532 943 611 943 c 0,6,7
 749 943 749 943 841 835 c 0,8,9
 954 703 954 703 954 491 c 0,10,11
 954 254 954 254 818 99 c 0,12,13
 706 -28 706 -28 536 -28 c 0,14,15
 462 -28 462 -28 408 -7 c 0,16,17
 368 8 368 8 318 53 c 1,18,-1
 318 -226 l 2,19,20
 318 -319 318 -319 329.5 -344 c 128,-1,21
 341 -369 341 -369 369.5 -384 c 128,-1,22
 398 -399 398 -399 473 -399 c 1,23,-1
 473 -437 l 1,24,-1
 -7 -437 l 1,25,-1
 -7 -399 l 1,26,-1
 18 -400 l 2,27,28
 73 -401 73 -401 112 -379 c 0,29,30
 131 -368 131 -368 141.5 -343.5 c 128,-1,31
 152 -319 152 -319 152 -220 c 2,32,-1
 152 1129 l 2,33,34
 152 1218 152 1218 144 1242.5 c 128,-1,35
 136 1267 136 1267 118.5 1279 c 128,-1,36
 101 1291 101 1291 71 1291 c 0,37,38
 47 1291 47 1291 10 1276 c 1,39,-1
 -2 1308 l 1,0,-1
318 666 m 1,40,-1
 318 324 l 2,41,42
 318 213 318 213 327 178 c 0,43,44
 341 120 341 120 395.5 76 c 128,-1,45
 450 32 450 32 533 32 c 0,46,47
 633 32 633 32 695 110 c 0,48,49
 776 212 776 212 776 397 c 0,50,51
 776 607 776 607 684 720 c 0,52,53
 620 798 620 798 532 798 c 0,54,55
 484 798 484 798 437 774 c 0,56,57
 401 756 401 756 318 666 c 1,40,-1
EndSplineSet
EndChar

StartChar: minus
Encoding: 8722 8722 237
Width: 1155
GlyphClass: 1
Flags: W
LayerCount: 2
Fore
SplineSet
1115 640 m 1,0,-1
 37 640 l 1,1,-1
 37 722 l 1,2,-1
 1115 722 l 1,3,-1
 1115 640 l 1,0,-1
EndSplineSet
EndChar

StartChar: multiply
Encoding: 215 215 238
Width: 1155
GlyphClass: 1
Flags: W
LayerCount: 2
Fore
SplineSet
165 328 m 1,0,-1
 518 681 l 1,1,-1
 166 1033 l 1,2,-1
 224 1091 l 1,3,-1
 576 739 l 1,4,-1
 928 1091 l 1,5,-1
 984 1034 l 1,6,-1
 632 682 l 1,7,-1
 986 328 l 1,8,-1
 929 270 l 1,9,-1
 575 624 l 1,10,-1
 222 271 l 1,11,-1
 165 328 l 1,0,-1
EndSplineSet
EndChar

StartChar: onesuperior
Encoding: 185 185 239
Width: 614
GlyphClass: 1
Flags: W
LayerCount: 2
Fore
SplineSet
136 1297 m 1,0,-1
 341 1384 l 1,1,-1
 376 1384 l 1,2,-1
 376 792 l 2,3,4
 376 732 376 732 382 718 c 0,5,6
 387 709 387 709 398 704 c 0,7,8
 414 696 414 696 477 696 c 1,9,-1
 477 664 l 1,10,-1
 152 664 l 1,11,-1
 152 696 l 1,12,13
 216 696 216 696 232 703 c 0,14,15
 244 708 244 708 249 719 c 128,-1,16
 254 730 254 730 254 792 c 2,17,-1
 254 1166 l 2,18,19
 254 1237 254 1237 249 1260 c 0,20,21
 246 1276 246 1276 238.5 1282.5 c 128,-1,22
 231 1289 231 1289 219 1289 c 0,23,24
 199 1289 199 1289 152 1269 c 1,25,-1
 136 1297 l 1,0,-1
EndSplineSet
EndChar

StartChar: twosuperior
Encoding: 178 178 240
Width: 614
GlyphClass: 1
Flags: W
LayerCount: 2
Fore
SplineSet
575 816 m 1,0,-1
 514 664 l 1,1,-1
 20 664 l 1,2,-1
 20 693 l 1,3,4
 267 885 267 885 348 1006 c 0,5,6
 398 1080 398 1080 398 1149 c 0,7,8
 398 1210 398 1210 356.5 1251.5 c 128,-1,9
 315 1293 315 1293 252 1293 c 0,10,11
 195 1293 195 1293 152 1263.5 c 128,-1,12
 109 1234 109 1234 87 1175 c 1,13,-1
 42 1175 l 1,14,15
 56 1273 56 1273 119.5 1328.5 c 128,-1,16
 183 1384 183 1384 284 1384 c 0,17,18
 390 1384 390 1384 456.5 1326 c 128,-1,19
 523 1268 523 1268 523 1196 c 0,20,21
 523 1130 523 1130 475 1055 c 0,22,23
 400 938 400 938 180 760 c 1,24,-1
 366 760 l 2,25,26
 453 760 453 760 481.5 772 c 128,-1,27
 510 784 510 784 530 816 c 1,28,-1
 575 816 l 1,0,-1
EndSplineSet
EndChar

StartChar: threesuperior
Encoding: 179 179 241
Width: 614
GlyphClass: 1
Flags: W
LayerCount: 2
Fore
SplineSet
55 1229 m 1,0,1
 91 1303 91 1303 136 1337 c 0,2,3
 200 1384 200 1384 285 1384 c 0,4,5
 377 1384 377 1384 430 1338 c 128,-1,6
 483 1292 483 1292 483 1237 c 0,7,8
 483 1169 483 1169 378 1082 c 1,9,10
 450 1056 450 1056 486.5 1007.5 c 128,-1,11
 523 959 523 959 523 900 c 0,12,13
 523 797 523 797 437.5 723 c 128,-1,14
 352 649 352 649 191 649 c 0,15,16
 107 649 107 649 70 673 c 0,17,18
 44 690 44 690 44 712 c 0,19,20
 44 729 44 729 60.5 743 c 128,-1,21
 77 757 77 757 103 757 c 0,22,23
 131 757 131 757 184 733 c 128,-1,24
 237 709 237 709 275 709 c 0,25,26
 331 709 331 709 371 748.5 c 128,-1,27
 411 788 411 788 411 841 c 0,28,29
 411 886 411 886 384.5 927 c 128,-1,30
 358 968 358 968 316 984 c 0,31,32
 256 1007 256 1007 209 1007 c 2,33,-1
 179 1007 l 1,34,-1
 179 1035 l 1,35,36
 256 1035 256 1035 308.5 1082 c 128,-1,37
 361 1129 361 1129 361 1190 c 0,38,39
 361 1239 361 1239 328 1270 c 128,-1,40
 295 1301 295 1301 240 1301 c 0,41,42
 155 1301 155 1301 93 1213 c 1,43,-1
 55 1229 l 1,0,1
EndSplineSet
EndChar

StartChar: onehalf
Encoding: 189 189 242
Width: 1536
GlyphClass: 1
Flags: W
LayerCount: 2
Fore
SplineSet
134 1297 m 1,0,-1
 339 1384 l 1,1,-1
 374 1384 l 1,2,-1
 374 792 l 2,3,4
 374 732 374 732 380 718 c 0,5,6
 385 709 385 709 396 704 c 0,7,8
 412 696 412 696 475 696 c 1,9,-1
 475 664 l 1,10,-1
 150 664 l 1,11,-1
 150 696 l 1,12,13
 214 696 214 696 230 703 c 0,14,15
 242 708 242 708 247 719 c 128,-1,16
 252 730 252 730 252 792 c 2,17,-1
 252 1166 l 2,18,19
 252 1237 252 1237 247 1260 c 0,20,21
 244 1276 244 1276 236.5 1282.5 c 128,-1,22
 229 1289 229 1289 217 1289 c 0,23,24
 197 1289 197 1289 150 1269 c 1,25,-1
 134 1297 l 1,0,-1
1268 1384 m 1,26,-1
 333 -54 l 1,27,-1
 244 -54 l 1,28,-1
 1179 1384 l 1,29,-1
 1268 1384 l 1,26,-1
1494 113 m 1,30,-1
 1433 -40 l 1,31,-1
 939 -40 l 1,32,-1
 939 -10 l 1,33,34
 1186 182 1186 182 1267 303 c 0,35,36
 1317 377 1317 377 1317 446 c 0,37,38
 1317 507 1317 507 1275.5 548.5 c 128,-1,39
 1234 590 1234 590 1171 590 c 0,40,41
 1114 590 1114 590 1071 560.5 c 128,-1,42
 1028 531 1028 531 1006 472 c 1,43,-1
 961 472 l 1,44,45
 975 569 975 569 1038.5 625 c 128,-1,46
 1102 681 1102 681 1203 681 c 0,47,48
 1309 681 1309 681 1375.5 622.5 c 128,-1,49
 1442 564 1442 564 1442 493 c 0,50,51
 1442 427 1442 427 1394 351 c 0,52,53
 1319 235 1319 235 1099 57 c 1,54,-1
 1286 57 l 2,55,56
 1372 57 1372 57 1400.5 68.5 c 128,-1,57
 1429 80 1429 80 1449 113 c 1,58,-1
 1494 113 l 1,30,-1
EndSplineSet
EndChar

StartChar: onequarter
Encoding: 188 188 243
Width: 1536
GlyphClass: 1
Flags: W
LayerCount: 2
Fore
SplineSet
134 1297 m 1,0,-1
 339 1384 l 1,1,-1
 374 1384 l 1,2,-1
 374 792 l 2,3,4
 374 732 374 732 380 718 c 0,5,6
 385 709 385 709 396 704 c 0,7,8
 412 696 412 696 475 696 c 1,9,-1
 475 664 l 1,10,-1
 150 664 l 1,11,-1
 150 696 l 1,12,13
 214 696 214 696 230 703 c 0,14,15
 242 708 242 708 247 719 c 128,-1,16
 252 730 252 730 252 792 c 2,17,-1
 252 1166 l 2,18,19
 252 1237 252 1237 247 1260 c 0,20,21
 244 1276 244 1276 236.5 1282.5 c 128,-1,22
 229 1289 229 1289 217 1289 c 0,23,24
 197 1289 197 1289 150 1269 c 1,25,-1
 134 1297 l 1,0,-1
1292 1384 m 1,26,-1
 358 -54 l 1,27,-1
 268 -54 l 1,28,-1
 1203 1384 l 1,29,-1
 1292 1384 l 1,26,-1
1501 224 m 1,30,-1
 1501 143 l 1,31,-1
 1393 143 l 1,32,-1
 1393 -40 l 1,33,-1
 1276 -40 l 1,34,-1
 1276 143 l 1,35,-1
 933 143 l 1,36,-1
 933 216 l 1,37,-1
 1309 681 l 1,38,-1
 1393 681 l 1,39,-1
 1393 224 l 1,40,-1
 1501 224 l 1,30,-1
1276 224 m 1,41,-1
 1276 540 l 1,42,-1
 1016 224 l 1,43,-1
 1276 224 l 1,41,-1
EndSplineSet
EndChar

StartChar: threequarters
Encoding: 190 190 244
Width: 1536
GlyphClass: 1
Flags: W
LayerCount: 2
Fore
SplineSet
1277 1384 m 1,0,-1
 346 -54 l 1,1,-1
 256 -54 l 1,2,-1
 1191 1384 l 1,3,-1
 1277 1384 l 1,0,-1
53 1229 m 1,4,5
 89 1303 89 1303 134 1337 c 0,6,7
 198 1384 198 1384 283 1384 c 0,8,9
 375 1384 375 1384 428 1338 c 128,-1,10
 481 1292 481 1292 481 1237 c 0,11,12
 481 1169 481 1169 376 1082 c 1,13,14
 448 1056 448 1056 484.5 1007.5 c 128,-1,15
 521 959 521 959 521 900 c 0,16,17
 521 797 521 797 435.5 723 c 128,-1,18
 350 649 350 649 189 649 c 0,19,20
 105 649 105 649 68 673 c 0,21,22
 42 690 42 690 42 712 c 0,23,24
 42 729 42 729 58.5 743 c 128,-1,25
 75 757 75 757 101 757 c 0,26,27
 129 757 129 757 182 733 c 128,-1,28
 235 709 235 709 273 709 c 0,29,30
 329 709 329 709 369 748.5 c 128,-1,31
 409 788 409 788 409 841 c 0,32,33
 409 913 409 913 352.5 961 c 128,-1,34
 296 1009 296 1009 177 1007 c 1,35,-1
 177 1035 l 1,36,37
 254 1035 254 1035 306.5 1082 c 128,-1,38
 359 1129 359 1129 359 1190 c 0,39,40
 359 1239 359 1239 326 1270 c 128,-1,41
 293 1301 293 1301 238 1301 c 0,42,43
 153 1301 153 1301 91 1213 c 1,44,-1
 53 1229 l 1,4,5
1501 224 m 1,45,-1
 1501 143 l 1,46,-1
 1393 143 l 1,47,-1
 1393 -40 l 1,48,-1
 1277 -40 l 1,49,-1
 1277 143 l 1,50,-1
 933 143 l 1,51,-1
 933 216 l 1,52,-1
 1309 681 l 1,53,-1
 1393 681 l 1,54,-1
 1393 224 l 1,55,-1
 1501 224 l 1,45,-1
1277 224 m 1,56,-1
 1277 540 l 1,57,-1
 1017 224 l 1,58,-1
 1277 224 l 1,56,-1
EndSplineSet
EndChar

StartChar: franc
Encoding: 8355 8355 245
Width: 1024
GlyphClass: 1
Flags: W
LayerCount: 2
Fore
SplineSet
419 392 m 1,0,-1
 693 392 l 1,1,-1
 693 317 l 1,2,-1
 419 317 l 1,3,-1
 419 240 l 2,4,5
 419 137 419 137 432 104 c 0,6,7
 442 79 442 79 474 61 c 0,8,9
 518 37 518 37 566 37 c 2,10,-1
 615 37 l 1,11,-1
 615 0 l 1,12,-1
 33 0 l 1,13,-1
 33 37 l 1,14,-1
 81 37 l 2,15,16
 165 37 165 37 203 86 c 0,17,18
 227 118 227 118 227 240 c 2,19,-1
 227 317 l 1,20,-1
 33 317 l 1,21,-1
 33 392 l 1,22,-1
 227 392 l 1,23,-1
 227 1116 l 2,24,25
 227 1249 227 1249 197 1278 c 0,26,27
 155 1319 155 1319 81 1319 c 2,28,-1
 33 1319 l 1,29,-1
 33 1356 l 1,30,-1
 936 1356 l 1,31,-1
 948 1058 l 1,32,-1
 914 1058 l 1,33,34
 887 1153 887 1153 852.5 1197.5 c 128,-1,35
 818 1242 818 1242 767.5 1262 c 128,-1,36
 717 1282 717 1282 612 1282 c 2,37,-1
 419 1282 l 1,38,-1
 419 749 l 1,39,-1
 596 749 l 2,40,41
 681 749 681 749 720 786.5 c 128,-1,42
 759 824 759 824 773 935 c 1,43,-1
 809 935 l 1,44,-1
 809 476 l 1,45,-1
 773 476 l 1,46,47
 772 555 772 555 752.5 592 c 128,-1,48
 733 629 733 629 698 647.5 c 128,-1,49
 663 666 663 666 596 666 c 2,50,-1
 419 666 l 1,51,-1
 419 392 l 1,0,-1
EndSplineSet
EndChar

StartChar: dmacron
Encoding: 273 273 255
Width: 1024
GlyphClass: 1
Flags: W
LayerCount: 2
Fore
SplineSet
681 1068 m 1,0,-1
 390 1068 l 1,1,-1
 390 1150 l 1,2,-1
 680 1150 l 1,3,4
 676 1246 676 1246 659.5 1268.5 c 128,-1,5
 643 1291 643 1291 610 1291 c 0,6,7
 584 1291 584 1291 541 1275 c 1,8,-1
 528 1310 l 1,9,-1
 801 1422 l 1,10,-1
 846 1422 l 1,11,-1
 846 1150 l 1,12,-1
 999 1150 l 1,13,-1
 999 1068 l 1,14,-1
 846 1068 l 1,15,-1
 846 363 l 2,16,17
 846 202 846 202 853.5 166.5 c 128,-1,18
 861 131 861 131 877.5 117 c 128,-1,19
 894 103 894 103 916 103 c 0,20,21
 943 103 943 103 988 120 c 1,22,-1
 999 85 l 1,23,-1
 727 -28 l 1,24,-1
 681 -28 l 1,25,-1
 681 103 l 1,26,27
 614 33 614 33 550 2.5 c 128,-1,28
 486 -28 486 -28 412 -28 c 0,29,30
 262 -28 262 -28 150 97.5 c 128,-1,31
 38 223 38 223 38 420 c 256,32,33
 38 617 38 617 162 780.5 c 128,-1,34
 286 944 286 944 481 944 c 0,35,36
 602 944 602 944 681 867 c 1,37,-1
 681 1068 l 1,0,-1
681 173 m 1,38,-1
 681 645 l 1,39,40
 675 713 675 713 645 769 c 128,-1,41
 615 825 615 825 565.5 853.5 c 128,-1,42
 516 882 516 882 469 882 c 0,43,44
 381 882 381 882 312 803 c 0,45,46
 221 699 221 699 221 499 c 0,47,48
 221 297 221 297 309 189.5 c 128,-1,49
 397 82 397 82 505 82 c 0,50,51
 596 82 596 82 681 173 c 1,38,-1
EndSplineSet
EndChar

StartChar: overscore
Encoding: 175 175 256
Width: 1024
GlyphClass: 1
Flags: W
LayerCount: 2
Fore
SplineSet
1042 1462 m 1,0,-1
 -17 1462 l 1,1,-1
 -17 1546 l 1,2,-1
 1042 1546 l 1,3,-1
 1042 1462 l 1,0,-1
EndSplineSet
EndChar

StartChar: middot
Encoding: 65540 -1 257
Width: 682
GlyphClass: 1
Flags: W
LayerCount: 2
Fore
SplineSet
600 808 m 256,0,1
 644 808 644 808 674.5 777.5 c 128,-1,2
 705 747 705 747 705 703 c 0,3,4
 705 660 705 660 674 629 c 128,-1,5
 643 598 643 598 600 598 c 256,6,7
 557 598 557 598 526 629 c 128,-1,8
 495 660 495 660 495 703 c 0,9,10
 495 747 495 747 525.5 777.5 c 128,-1,11
 556 808 556 808 600 808 c 256,0,1
EndSplineSet
EndChar

StartChar: dcaron
Encoding: 271 271 263
Width: 1324
GlyphClass: 1
Flags: W
LayerCount: 2
Fore
SplineSet
1047 904 m 1,0,-1
 1047 951 l 1,1,2
 1149 1012 1149 1012 1187 1065 c 0,3,4
 1213 1103 1213 1103 1213 1156 c 0,5,6
 1213 1187 1213 1187 1202 1202 c 0,7,8
 1190 1217 1190 1217 1176 1217 c 0,9,10
 1165 1217 1165 1217 1147 1210 c 0,11,12
 1121 1200 1121 1200 1102 1200 c 0,13,14
 1063 1200 1063 1200 1032.5 1230.5 c 128,-1,15
 1002 1261 1002 1261 1002 1306 c 0,16,17
 1002 1356 1002 1356 1033 1384 c 0,18,19
 1075 1422 1075 1422 1133 1422 c 0,20,21
 1200 1422 1200 1422 1253 1365.5 c 128,-1,22
 1306 1309 1306 1309 1306 1225 c 0,23,24
 1306 1107 1306 1107 1218 1010 c 0,25,26
 1159 946 1159 946 1047 904 c 1,0,-1
711 103 m 1,27,28
 644 33 644 33 580 2.5 c 128,-1,29
 516 -28 516 -28 442 -28 c 0,30,31
 292 -28 292 -28 180 97.5 c 128,-1,32
 68 223 68 223 68 420 c 256,33,34
 68 617 68 617 192 780.5 c 128,-1,35
 316 944 316 944 511 944 c 0,36,37
 632 944 632 944 711 867 c 1,38,-1
 711 1036 l 2,39,40
 711 1193 711 1193 703.5 1229 c 128,-1,41
 696 1265 696 1265 680 1278 c 128,-1,42
 664 1291 664 1291 640 1291 c 0,43,44
 614 1291 614 1291 571 1275 c 1,45,-1
 558 1310 l 1,46,-1
 831 1422 l 1,47,-1
 876 1422 l 1,48,-1
 876 363 l 2,49,50
 876 202 876 202 883.5 166.5 c 128,-1,51
 891 131 891 131 907.5 117 c 128,-1,52
 924 103 924 103 946 103 c 0,53,54
 973 103 973 103 1018 120 c 1,55,-1
 1029 85 l 1,56,-1
 757 -28 l 1,57,-1
 711 -28 l 1,58,-1
 711 103 l 1,27,28
711 173 m 1,59,-1
 711 645 l 1,60,61
 705 713 705 713 675 769 c 128,-1,62
 645 825 645 825 595.5 853.5 c 128,-1,63
 546 882 546 882 499 882 c 0,64,65
 411 882 411 882 342 803 c 0,66,67
 251 699 251 699 251 499 c 0,68,69
 251 297 251 297 339 189.5 c 128,-1,70
 427 82 427 82 535 82 c 0,71,72
 626 82 626 82 711 173 c 1,59,-1
EndSplineSet
EndChar

StartChar: Dslash
Encoding: 272 272 264
Width: 1479
GlyphClass: 1
Flags: W
LayerCount: 2
Fore
SplineSet
35 0 m 1,0,-1
 35 37 l 1,1,-1
 86 37 l 2,2,3
 172 37 172 37 209 93 c 0,4,5
 230 125 230 125 230 240 c 2,6,-1
 230 678 l 1,7,-1
 35 678 l 1,8,-1
 35 752 l 1,9,-1
 230 752 l 1,10,-1
 230 1116 l 2,11,12
 230 1243 230 1243 202 1275 c 0,13,14
 163 1319 163 1319 86 1319 c 2,15,-1
 35 1319 l 1,16,-1
 35 1356 l 1,17,-1
 587 1356 l 2,18,19
 902 1356 902 1356 1053 1284.5 c 128,-1,20
 1204 1213 1204 1213 1302 1055.5 c 128,-1,21
 1400 898 1400 898 1400 687 c 0,22,23
 1400 400 1400 400 1216.5 200 c 128,-1,24
 1033 0 1033 0 640 0 c 2,25,-1
 35 0 l 1,0,-1
423 100 m 1,26,27
 550 72 550 72 636 72 c 0,28,29
 867 72 867 72 1020 235 c 128,-1,30
 1173 398 1173 398 1173 677 c 0,31,32
 1173 958 1173 958 1020 1120 c 128,-1,33
 867 1282 867 1282 628 1282 c 0,34,35
 538 1282 538 1282 423 1253 c 1,36,-1
 423 752 l 1,37,-1
 816 752 l 1,38,-1
 816 678 l 1,39,-1
 423 678 l 1,40,-1
 423 100 l 1,26,27
EndSplineSet
EndChar

StartChar: Lcaron
Encoding: 317 317 271
Width: 1251
GlyphClass: 1
Flags: W
LayerCount: 2
Fore
SplineSet
819 847 m 1,0,-1
 819 891 l 1,1,2
 922 924 922 924 978.5 995.5 c 128,-1,3
 1035 1067 1035 1067 1035 1147 c 0,4,5
 1035 1167 1035 1167 1026 1179 c 0,6,7
 1018 1188 1018 1188 1012 1188 c 0,8,9
 1001 1188 1001 1188 964 1169 c 0,10,11
 946 1159 946 1159 926 1159 c 0,12,13
 877 1159 877 1159 848 1188 c 128,-1,14
 819 1217 819 1217 819 1268 c 0,15,16
 819 1317 819 1317 856.5 1352 c 128,-1,17
 894 1387 894 1387 948 1387 c 0,18,19
 1014 1387 1014 1387 1065.5 1329.5 c 128,-1,20
 1117 1272 1117 1272 1117 1178 c 0,21,22
 1117 1075 1117 1075 1045.5 986.5 c 128,-1,23
 974 898 974 898 819 847 c 1,0,-1
1174 375 m 1,24,-1
 1207 368 l 1,25,-1
 1091 0 l 1,26,-1
 41 0 l 1,27,-1
 41 37 l 1,28,-1
 92 37 l 2,29,30
 178 37 178 37 215 93 c 0,31,32
 236 125 236 125 236 241 c 2,33,-1
 236 1116 l 2,34,35
 236 1243 236 1243 208 1275 c 0,36,37
 169 1319 169 1319 92 1319 c 2,38,-1
 41 1319 l 1,39,-1
 41 1356 l 1,40,-1
 655 1356 l 1,41,-1
 655 1319 l 1,42,43
 547 1320 547 1320 503.5 1299 c 128,-1,44
 460 1278 460 1278 444 1246 c 128,-1,45
 428 1214 428 1214 428 1093 c 2,46,-1
 428 241 l 2,47,48
 428 158 428 158 444 127 c 0,49,50
 456 106 456 106 481 96 c 128,-1,51
 506 86 506 86 637 86 c 2,52,-1
 736 86 l 2,53,54
 892 86 892 86 955 109 c 128,-1,55
 1018 132 1018 132 1070 190.5 c 128,-1,56
 1122 249 1122 249 1174 375 c 1,24,-1
EndSplineSet
EndChar

StartChar: lcaron
Encoding: 318 318 272
Width: 832
GlyphClass: 1
Flags: W
LayerCount: 2
Fore
SplineSet
555 904 m 1,0,-1
 555 951 l 1,1,2
 657 1012 657 1012 694 1065 c 0,3,4
 721 1103 721 1103 721 1156 c 0,5,6
 721 1187 721 1187 709 1202 c 256,7,8
 697 1217 697 1217 683 1217 c 0,9,10
 672 1217 672 1217 654 1210 c 0,11,12
 628 1200 628 1200 611 1200 c 0,13,14
 571 1200 571 1200 540 1230.5 c 128,-1,15
 509 1261 509 1261 509 1306 c 0,16,17
 509 1356 509 1356 540 1384 c 0,18,19
 583 1422 583 1422 640 1422 c 0,20,21
 708 1422 708 1422 761 1365.5 c 128,-1,22
 814 1309 814 1309 814 1225 c 0,23,24
 814 1107 814 1107 726 1010 c 0,25,26
 666 946 666 946 555 904 c 1,0,-1
378 1422 m 1,27,-1
 378 207 l 2,28,29
 378 121 378 121 390.5 93 c 128,-1,30
 403 65 403 65 429 50.5 c 128,-1,31
 455 36 455 36 526 36 c 1,32,-1
 526 0 l 1,33,-1
 77 0 l 1,34,-1
 77 36 l 1,35,36
 140 36 140 36 163 49 c 128,-1,37
 186 62 186 62 199 92 c 128,-1,38
 212 122 212 122 212 207 c 2,39,-1
 212 1039 l 2,40,41
 212 1194 212 1194 205 1229.5 c 128,-1,42
 198 1265 198 1265 182.5 1278 c 128,-1,43
 167 1291 167 1291 143 1291 c 0,44,45
 117 1291 117 1291 77 1275 c 1,46,-1
 60 1310 l 1,47,-1
 333 1422 l 1,48,-1
 378 1422 l 1,27,-1
EndSplineSet
EndChar

StartChar: Tcedilla
Encoding: 354 354 287
Width: 1251
GlyphClass: 1
Flags: W
LayerCount: 2
Fore
SplineSet
1185 1356 m 1,0,-1
 1200 1038 l 1,1,-1
 1162 1038 l 1,2,3
 1151 1122 1151 1122 1132 1158 c 0,4,5
 1101 1216 1101 1216 1049.5 1243.5 c 128,-1,6
 998 1271 998 1271 914 1271 c 2,7,-1
 723 1271 l 1,8,-1
 723 235 l 2,9,10
 723 110 723 110 750 79 c 0,11,12
 788 37 788 37 867 37 c 2,13,-1
 914 37 l 1,14,-1
 914 0 l 1,15,-1
 339 0 l 1,16,-1
 339 37 l 1,17,-1
 387 37 l 2,18,19
 473 37 473 37 509 89 c 0,20,21
 531 121 531 121 531 235 c 2,22,-1
 531 1271 l 1,23,-1
 368 1271 l 2,24,25
 273 1271 273 1271 233 1257 c 0,26,27
 181 1238 181 1238 144 1184 c 128,-1,28
 107 1130 107 1130 100 1038 c 1,29,-1
 62 1038 l 1,30,-1
 78 1356 l 1,31,-1
 1185 1356 l 1,0,-1
510 -462 m 1,32,-1
 510 -426 l 1,33,34
 557 -426 557 -426 598 -405 c 128,-1,35
 639 -384 639 -384 661 -349 c 128,-1,36
 683 -314 683 -314 683 -283 c 0,37,38
 683 -265 683 -265 677 -257 c 0,39,40
 670 -249 670 -249 662 -249 c 0,41,42
 655 -249 655 -249 637 -258 c 0,43,44
 612 -272 612 -272 594 -272 c 0,45,46
 556 -272 556 -272 533 -249 c 128,-1,47
 510 -226 510 -226 510 -185 c 0,48,49
 510 -143 510 -143 539 -116 c 128,-1,50
 568 -89 568 -89 615 -89 c 0,51,52
 670 -89 670 -89 709 -132 c 128,-1,53
 748 -175 748 -175 748 -250 c 0,54,55
 748 -361 748 -361 664 -424 c 0,56,57
 619 -459 619 -459 510 -462 c 1,32,-1
EndSplineSet
EndChar

StartChar: tcedilla
Encoding: 355 355 288
Width: 569
GlyphClass: 1
Flags: W
LayerCount: 2
Fore
SplineSet
330 1217 m 1,0,-1
 330 916 l 1,1,-1
 544 916 l 1,2,-1
 544 846 l 1,3,-1
 330 846 l 1,4,-1
 330 252 l 2,5,6
 330 163 330 163 355.5 132 c 128,-1,7
 381 101 381 101 421 101 c 0,8,9
 454 101 454 101 485 121.5 c 128,-1,10
 516 142 516 142 533 182 c 1,11,-1
 572 182 l 1,12,13
 537 84 537 84 473 34.5 c 128,-1,14
 409 -15 409 -15 341 -15 c 0,15,16
 295 -15 295 -15 251 10.5 c 128,-1,17
 207 36 207 36 186 83.5 c 128,-1,18
 165 131 165 131 165 230 c 2,19,-1
 165 846 l 1,20,-1
 20 846 l 1,21,-1
 20 879 l 1,22,23
 75 901 75 901 132.5 953.5 c 128,-1,24
 190 1006 190 1006 235 1078 c 0,25,26
 258 1116 258 1116 299 1217 c 1,27,-1
 330 1217 l 1,0,-1
181 -462 m 1,28,-1
 181 -426 l 1,29,30
 228 -426 228 -426 269 -405 c 128,-1,31
 310 -384 310 -384 332.5 -349 c 128,-1,32
 355 -314 355 -314 355 -283 c 0,33,34
 355 -265 355 -265 348 -257 c 256,35,36
 341 -249 341 -249 333 -249 c 0,37,38
 326 -249 326 -249 308 -258 c 0,39,40
 283 -272 283 -272 266 -272 c 0,41,42
 227 -272 227 -272 204 -249 c 128,-1,43
 181 -226 181 -226 181 -185 c 0,44,45
 181 -143 181 -143 210 -116 c 128,-1,46
 239 -89 239 -89 286 -89 c 0,47,48
 341 -89 341 -89 380 -132 c 128,-1,49
 419 -175 419 -175 419 -250 c 0,50,51
 419 -361 419 -361 335 -424 c 0,52,53
 290 -459 290 -459 181 -462 c 1,28,-1
EndSplineSet
EndChar

StartChar: tcaron
Encoding: 357 357 290
Width: 875
GlyphClass: 1
Flags: W
LayerCount: 2
Fore
SplineSet
598 904 m 1,0,-1
 598 951 l 1,1,2
 700 1012 700 1012 737 1065 c 0,3,4
 764 1103 764 1103 764 1156 c 0,5,6
 764 1187 764 1187 753 1202 c 0,7,8
 741 1217 741 1217 726 1217 c 0,9,10
 716 1217 716 1217 698 1210 c 0,11,12
 671 1200 671 1200 654 1200 c 0,13,14
 614 1200 614 1200 583 1230.5 c 128,-1,15
 552 1261 552 1261 552 1306 c 0,16,17
 552 1356 552 1356 583 1384 c 0,18,19
 626 1422 626 1422 683 1422 c 0,20,21
 751 1422 751 1422 804 1365.5 c 128,-1,22
 857 1309 857 1309 857 1225 c 0,23,24
 857 1107 857 1107 769 1010 c 0,25,26
 710 946 710 946 598 904 c 1,0,-1
329 1217 m 1,27,-1
 329 916 l 1,28,-1
 543 916 l 1,29,-1
 543 846 l 1,30,-1
 329 846 l 1,31,-1
 329 252 l 2,32,33
 329 163 329 163 354.5 132 c 128,-1,34
 380 101 380 101 420 101 c 0,35,36
 453 101 453 101 484 121.5 c 128,-1,37
 515 142 515 142 532 182 c 1,38,-1
 571 182 l 1,39,40
 536 84 536 84 472 34.5 c 128,-1,41
 408 -15 408 -15 340 -15 c 0,42,43
 294 -15 294 -15 250 10.5 c 128,-1,44
 206 36 206 36 185 83.5 c 128,-1,45
 164 131 164 131 164 230 c 2,46,-1
 164 846 l 1,47,-1
 19 846 l 1,48,-1
 19 879 l 1,49,50
 74 901 74 901 131.5 953.5 c 128,-1,51
 189 1006 189 1006 234 1078 c 0,52,53
 257 1116 257 1116 298 1217 c 1,54,-1
 329 1217 l 1,27,-1
EndSplineSet
EndChar

StartChar: Gamma
Encoding: 915 915 299
Width: 1184
GlyphClass: 1
Flags: W
LayerCount: 2
Fore
SplineSet
1125 1356 m 1,0,-1
 1130 1039 l 1,1,-1
 1091 1039 l 1,2,3
 1087 1135 1087 1135 1050 1193 c 128,-1,4
 1013 1251 1013 1251 959.5 1266.5 c 128,-1,5
 906 1282 906 1282 805 1282 c 2,6,-1
 425 1282 l 1,7,-1
 425 247 l 2,8,9
 425 113 425 113 459.5 77 c 128,-1,10
 494 41 494 41 619 37 c 1,11,-1
 619 0 l 1,12,-1
 37 0 l 1,13,-1
 37 37 l 1,14,15
 163 41 163 41 198 77 c 128,-1,16
 233 113 233 113 233 247 c 2,17,-1
 233 1109 l 2,18,19
 233 1243 233 1243 198 1279 c 128,-1,20
 163 1315 163 1315 37 1319 c 1,21,-1
 37 1356 l 1,22,-1
 1125 1356 l 1,0,-1
EndSplineSet
EndChar

StartChar: Theta
Encoding: 920 920 300
Width: 1479
GlyphClass: 1
Flags: W
LayerCount: 2
Fore
SplineSet
753 1387 m 0,0,1
 1002 1387 1002 1387 1203 1194.5 c 128,-1,2
 1404 1002 1404 1002 1404 685 c 0,3,4
 1404 370 1404 370 1206 169.5 c 128,-1,5
 1008 -31 1008 -31 737 -31 c 0,6,7
 436 -31 436 -31 256 180 c 128,-1,8
 76 391 76 391 76 683 c 0,9,10
 76 999 76 999 278.5 1193 c 128,-1,11
 481 1387 481 1387 753 1387 c 0,0,1
734 1314 m 0,12,13
 540 1314 540 1314 422.5 1153.5 c 128,-1,14
 305 993 305 993 305 687 c 0,15,16
 305 401 305 401 415 220.5 c 128,-1,17
 525 40 525 40 735 40 c 0,18,19
 939 40 939 40 1057 198.5 c 128,-1,20
 1175 357 1175 357 1175 659 c 0,21,22
 1175 965 1175 965 1064.5 1139.5 c 128,-1,23
 954 1314 954 1314 734 1314 c 0,12,13
499 920 m 1,24,-1
 537 920 l 1,25,26
 537 834 537 834 572 797 c 128,-1,27
 607 760 607 760 701 760 c 2,28,-1
 782 760 l 2,29,30
 871 760 871 760 907 796.5 c 128,-1,31
 943 833 943 833 943 920 c 1,32,-1
 981 920 l 1,33,-1
 981 437 l 1,34,-1
 943 437 l 1,35,36
 943 522 943 522 908 559 c 128,-1,37
 873 596 873 596 780 596 c 2,38,-1
 697 596 l 2,39,40
 608 596 608 596 572.5 559 c 128,-1,41
 537 522 537 522 537 437 c 1,42,-1
 499 437 l 1,43,-1
 499 920 l 1,24,-1
EndSplineSet
EndChar

StartChar: Phi
Encoding: 934 934 301
Width: 1497
GlyphClass: 1
Flags: W
LayerCount: 2
Fore
SplineSet
844 191 m 1,0,1
 857 37 857 37 1036 37 c 1,2,-1
 1036 0 l 1,3,-1
 460 0 l 1,4,-1
 460 37 l 1,5,6
 639 37 639 37 652 191 c 1,7,8
 388 191 388 191 229.5 333 c 128,-1,9
 71 475 71 475 71 678 c 0,10,11
 71 895 71 895 232 1024.5 c 128,-1,12
 393 1154 393 1154 652 1165 c 1,13,14
 640 1319 640 1319 460 1319 c 1,15,-1
 460 1356 l 1,16,-1
 1036 1356 l 1,17,-1
 1036 1319 l 1,18,19
 857 1319 857 1319 844 1165 c 1,20,21
 1130 1156 1130 1156 1277.5 1014.5 c 128,-1,22
 1425 873 1425 873 1425 678 c 0,23,24
 1425 475 1425 475 1267 333 c 128,-1,25
 1109 191 1109 191 844 191 c 1,0,1
652 1110 m 1,26,27
 481 1100 481 1100 384 1003.5 c 128,-1,28
 287 907 287 907 287 661 c 0,29,30
 287 267 287 267 652 246 c 1,31,-1
 652 1110 l 1,26,27
844 1110 m 1,32,-1
 844 246 l 1,33,34
 1009 253 1009 253 1109.5 348 c 128,-1,35
 1210 443 1210 443 1210 694 c 0,36,37
 1210 1089 1210 1089 844 1110 c 1,32,-1
EndSplineSet
EndChar

StartChar: alpha
Encoding: 945 945 302
Width: 1073
GlyphClass: 1
Flags: W
LayerCount: 2
Fore
SplineSet
788 916 m 1,0,-1
 958 916 l 1,1,-1
 855 453 l 2,2,3
 825 321 825 321 814 291 c 1,4,5
 854 107 854 107 930 107 c 0,6,7
 1020 107 1020 107 1023 231 c 1,8,-1
 1059 231 l 1,9,10
 1056 115 1056 115 1016.5 43.5 c 128,-1,11
 977 -28 977 -28 913 -28 c 0,12,13
 860 -28 860 -28 834 15 c 128,-1,14
 808 58 808 58 778 191 c 1,15,16
 674 -28 674 -28 438 -28 c 0,17,18
 277 -28 277 -28 182 97.5 c 128,-1,19
 87 223 87 223 87 457 c 0,20,21
 87 687 87 687 191 815 c 128,-1,22
 295 943 295 943 441 943 c 0,23,24
 544 943 544 943 610 870 c 128,-1,25
 676 797 676 797 727 632 c 1,26,-1
 788 916 l 1,0,-1
700 524 m 1,27,28
 653 685 653 685 595 775.5 c 128,-1,29
 537 866 537 866 456 866 c 0,30,31
 273 866 273 866 273 438 c 0,32,33
 273 32 273 32 448 32 c 0,34,35
 600 32 600 32 673 390 c 2,36,-1
 700 524 l 1,27,28
EndSplineSet
EndChar

StartChar: delta
Encoding: 948 948 303
Width: 965
GlyphClass: 1
Flags: W
LayerCount: 2
Fore
SplineSet
494 853 m 1,0,1
 444 909 444 909 355 987 c 0,2,3
 257 1073 257 1073 223 1122.5 c 128,-1,4
 189 1172 189 1172 189 1231 c 0,5,6
 189 1319 189 1319 271 1369.5 c 128,-1,7
 353 1420 353 1420 485 1420 c 256,8,9
 617 1420 617 1420 715.5 1375 c 128,-1,10
 814 1330 814 1330 814 1251 c 0,11,12
 814 1213 814 1213 790 1188 c 128,-1,13
 766 1163 766 1163 734 1163 c 0,14,15
 688 1163 688 1163 626 1232 c 0,16,17
 563 1302 563 1302 519.5 1330.5 c 128,-1,18
 476 1359 476 1359 418 1359 c 0,19,20
 344 1359 344 1359 296.5 1326 c 128,-1,21
 249 1293 249 1293 249 1242 c 0,22,23
 249 1194 249 1194 288 1152 c 128,-1,24
 327 1110 327 1110 489 999 c 0,25,26
 662 880 662 880 733.5 813 c 128,-1,27
 805 746 805 746 850 650 c 128,-1,28
 895 554 895 554 895 447 c 0,29,30
 895 259 895 259 762.5 115.5 c 128,-1,31
 630 -28 630 -28 453 -28 c 0,32,33
 292 -28 292 -28 181 87 c 128,-1,34
 70 202 70 202 70 394 c 0,35,36
 70 579 70 579 192.5 703 c 128,-1,37
 315 827 315 827 494 853 c 1,0,1
538 807 m 1,38,39
 251 760 251 760 251 413 c 0,40,41
 251 234 251 234 322.5 135 c 128,-1,42
 394 36 394 36 489 36 c 0,43,44
 588 36 588 36 652 131.5 c 128,-1,45
 716 227 716 227 716 390 c 0,46,47
 716 626 716 626 538 807 c 1,38,39
EndSplineSet
EndChar

StartChar: epsilon
Encoding: 949 949 304
Width: 860
GlyphClass: 1
Flags: W
LayerCount: 2
Fore
SplineSet
316 485 m 1,0,1
 119 555 119 555 119 697 c 0,2,3
 119 809 119 809 223.5 876 c 128,-1,4
 328 943 328 943 483 943 c 0,5,6
 624 943 624 943 707 896.5 c 128,-1,7
 790 850 790 850 790 785 c 0,8,9
 790 751 790 751 764 725.5 c 128,-1,10
 738 700 738 700 704 700 c 0,11,12
 648 700 648 700 612 778 c 0,13,14
 562 886 562 886 462 886 c 0,15,16
 383 886 383 886 332 834 c 128,-1,17
 281 782 281 782 281 689 c 0,18,19
 281 506 281 506 470 506 c 0,20,21
 490 506 490 506 516 510 c 0,22,23
 561 516 561 516 586 516 c 0,24,25
 647 516 647 516 647 481 c 0,26,27
 647 442 647 442 585 442 c 0,28,29
 563 442 563 442 519 449 c 0,30,31
 486 455 486 455 468 455 c 0,32,33
 268 455 268 455 268 251 c 0,34,35
 268 152 268 152 321 91.5 c 128,-1,36
 374 31 374 31 469 31 c 0,37,38
 588 31 588 31 627 154 c 0,39,40
 647 219 647 219 671.5 244 c 128,-1,41
 696 269 696 269 737 269 c 0,42,43
 771 269 771 269 798.5 244.5 c 128,-1,44
 826 220 826 220 826 182 c 0,45,46
 826 91 826 91 724 31.5 c 128,-1,47
 622 -28 622 -28 477 -28 c 0,48,49
 318 -28 318 -28 194.5 48 c 128,-1,50
 71 124 71 124 71 251 c 0,51,52
 71 410 71 410 316 485 c 1,0,1
EndSplineSet
EndChar

StartChar: sigma
Encoding: 963 963 305
Width: 1104
GlyphClass: 1
Flags: W
LayerCount: 2
Fore
SplineSet
1063 916 m 1,0,-1
 1063 770 l 1,1,-1
 673 770 l 1,2,3
 801 697 801 697 882 585.5 c 128,-1,4
 963 474 963 474 963 349 c 0,5,6
 963 186 963 186 834.5 79 c 128,-1,7
 706 -28 706 -28 543 -28 c 0,8,9
 350 -28 350 -28 210 123.5 c 128,-1,10
 70 275 70 275 70 476 c 0,11,12
 70 618 70 618 143.5 727 c 128,-1,13
 217 836 217 836 314.5 876 c 128,-1,14
 412 916 412 916 578 916 c 2,15,-1
 1063 916 l 1,0,-1
606 770 m 1,16,-1
 571 770 l 2,17,18
 421 770 421 770 331.5 695.5 c 128,-1,19
 242 621 242 621 242 462 c 0,20,21
 242 293 242 293 336 163.5 c 128,-1,22
 430 34 430 34 556 34 c 0,23,24
 657 34 657 34 723 131.5 c 128,-1,25
 789 229 789 229 789 367 c 0,26,27
 789 586 789 586 606 770 c 1,16,-1
EndSplineSet
EndChar

StartChar: tau
Encoding: 964 964 306
Width: 823
GlyphClass: 1
Flags: W
LayerCount: 2
Fore
SplineSet
493 770 m 1,0,-1
 464 483 l 2,1,2
 457 408 457 408 457 333 c 0,3,4
 457 190 457 190 490.5 159.5 c 128,-1,5
 524 129 524 129 567 129 c 0,6,7
 663 129 663 129 681 250 c 1,8,-1
 718 250 l 1,9,10
 685 -28 685 -28 497 -28 c 0,11,12
 300 -28 300 -28 300 198 c 0,13,14
 300 312 300 312 322 482 c 2,15,-1
 359 770 l 1,16,-1
 260 770 l 2,17,18
 178 770 178 770 132.5 742.5 c 128,-1,19
 87 715 87 715 48 632 c 1,20,-1
 12 632 l 1,21,22
 44 742 44 742 88 806.5 c 128,-1,23
 132 871 132 871 172 893.5 c 128,-1,24
 212 916 212 916 291 916 c 2,25,-1
 783 916 l 1,26,-1
 783 770 l 1,27,-1
 493 770 l 1,0,-1
EndSplineSet
EndChar

StartChar: phi
Encoding: 966 966 307
Width: 1182
GlyphClass: 1
Flags: W
LayerCount: 2
Fore
SplineSet
474 943 m 1,0,-1
 474 907 l 1,1,2
 253 850 253 850 253 489 c 0,3,4
 253 98 253 98 528 29 c 1,5,-1
 528 610 l 2,6,7
 528 737 528 737 544 795.5 c 128,-1,8
 560 854 560 854 614.5 898.5 c 128,-1,9
 669 943 669 943 746 943 c 0,10,11
 881 943 881 943 996.5 816 c 128,-1,12
 1112 689 1112 689 1112 485 c 0,13,14
 1112 294 1112 294 993.5 144 c 128,-1,15
 875 -6 875 -6 636 -27 c 1,16,-1
 636 -438 l 1,17,-1
 528 -438 l 1,18,-1
 528 -27 l 1,19,20
 320 -9 320 -9 194.5 128.5 c 128,-1,21
 69 266 69 266 69 486 c 0,22,23
 69 684 69 684 183 809.5 c 128,-1,24
 297 935 297 935 474 943 c 1,0,-1
636 29 m 1,25,26
 951 76 951 76 951 436 c 0,27,28
 951 602 951 602 883.5 714.5 c 128,-1,29
 816 827 816 827 725 827 c 0,30,31
 692 827 692 827 669.5 803.5 c 128,-1,32
 647 780 647 780 641.5 748 c 128,-1,33
 636 716 636 716 636 622 c 2,34,-1
 636 29 l 1,25,26
EndSplineSet
EndChar

StartChar: underscoredbl
Encoding: 8215 8215 308
Width: 1024
GlyphClass: 1
Flags: W
LayerCount: 2
Fore
SplineSet
1042 -284 m 1,0,-1
 -17 -284 l 1,1,-1
 -17 -200 l 1,2,-1
 1042 -200 l 1,3,-1
 1042 -284 l 1,0,-1
1042 -442 m 1,4,-1
 -17 -442 l 1,5,-1
 -17 -358 l 1,6,-1
 1042 -358 l 1,7,-1
 1042 -442 l 1,4,-1
EndSplineSet
EndChar

